<svg width="24" height="25" viewBox="0 0 24 25" fill="none" xmlns="http://www.w3.org/2000/svg">
<path d="M11.99 2.76465C6.47 2.76465 2 7.24465 2 12.7646C2 18.2846 6.47 22.7646 11.99 22.7646C17.52 22.7646 22 18.2846 22 12.7646C22 7.24465 17.52 2.76465 11.99 2.76465ZM12 20.7646C7.58 20.7646 4 17.1846 4 12.7646C4 8.34465 7.58 4.76465 12 4.76465C16.42 4.76465 20 8.34465 20 12.7646C20 17.1846 16.42 20.7646 12 20.7646Z" fill="#4E4C4A"/>
<path d="M12.5 7.76465H11V13.7646L16.25 16.9146L17 15.6846L12.5 13.0146V7.76465Z" fill="#4E4C4A"/>
</svg>
