<svg width="45" height="45" viewBox="0 0 45 45" fill="none" xmlns="http://www.w3.org/2000/svg">
<circle cx="22.5" cy="22.5" r="22.5" fill="#DCDBDB"/>
<g clip-path="url(#clip0)">
<path d="M34.7023 20.2583C34.0159 19.8429 33.306 19.4673 32.5762 19.1333V13.25C32.5716 12.1441 31.6698 11.25 30.5589 11.25H14.0187C12.9111 11.2546 12.0144 12.1473 12.0098 13.25V18.9583C11.2408 19.2337 10.4865 19.548 9.74974 19.9C9.28293 20.1215 8.98862 20.5936 8.99624 21.1083V33.3H10.252V27.175H34.108V33.3H35.3636V21.4083C35.3603 20.9363 35.1095 20.5002 34.7023 20.2583ZM13.2821 13.25C13.2821 12.8422 13.6092 12.5091 14.0187 12.5H30.5589C30.7601 12.4978 30.9539 12.5758 31.097 12.7167C31.2401 12.8576 31.3206 13.0496 31.3206 13.25V18.6C24.3563 15.8833 17.4339 17.1917 13.2821 18.525V13.25ZM10.252 25.925V21.1083C10.2513 21.0733 10.2708 21.0409 10.3022 21.025C12.4702 19.9917 23.7704 15.1917 34.0578 21.325C34.07 21.3515 34.07 21.3819 34.0578 21.4083V25.925H10.252Z" fill="#4e4c4a"/>
</g>
<defs>
<clipPath id="clip0">
<rect width="26.7857" height="22.5" fill="white" transform="translate(8.99609 11.25)"/>
</clipPath>
</defs>
</svg>
