<?xml version="1.0" encoding="UTF-8"?>
<svg width="48px" height="48px" viewBox="0 0 48 48" version="1.1" xmlns="http://www.w3.org/2000/svg" xmlns:xlink="http://www.w3.org/1999/xlink">
    <!-- Generator: Sketch 62 (91390) - https://sketch.com -->
    <title>Atom/ Icon/ Rich icon/ Journey / Date</title>
    <desc>Created with Sketch.</desc>
    <g id="Atom/-Icon/-Rich-icon/-Journey-/-Date" stroke="none" stroke-width="1" fill="none" fill-rule="evenodd">
        <g id="JRNY_Date">
            <rect id="Rectangle" x="0" y="0" width="48" height="48"></rect>
            <g id="Group" transform="translate(0.000000, 4.000000)" fill-rule="nonzero">
                <polygon id="Path" fill="#bd8b13" points="48 40 48 32 40 40"></polygon>
                <path d="M11.0051294,6 C11.2659995,5.99642368 11.516151,5.89440468 11.7065797,5.71392834 C11.8995713,5.52146695 12.0056184,5.25699551 11.9997231,4.98285631 C12.0061762,4.71481354 11.8995743,4.45666445 11.7065797,4.27297477 C11.308094,3.90900841 10.7021647,3.90900841 10.3036791,4.27297477 C10.1079262,4.45557021 9.9976332,4.71344786 10.0000662,4.98285631 C9.99690796,5.25857394 10.1068392,5.52327824 10.3036791,5.71392834 C10.4941078,5.89440468 10.7442593,5.99642368 11.0051294,6 Z" id="Path" fill="#4e4c4a"></path>
                <path d="M37.0052578,6 C37.2624633,5.99380116 37.5084113,5.89172152 37.6961517,5.71324743 C37.8929668,5.52214356 38.0028842,5.25680921 37.9997263,4.98043532 C38.0062671,4.70955883 37.8952858,4.44942137 37.6961517,4.26886414 C37.2993227,3.91037862 36.7007247,3.91037862 36.3038957,4.26886414 C36.1179303,4.45876301 36.0095064,4.71290585 36.0003211,4.98043532 C35.9932324,5.25757433 36.1037913,5.52445718 36.3038957,5.71324743 C36.4943005,5.89415335 36.7444205,5.99641517 37.0052578,6 Z" id="Path" fill="#4e4c4a"></path>
                <path d="M47.005238,8.75965007e-07 L1.09314507,8.75965007e-07 C0.510134193,-0.000732897583 0.0291501106,0.459619746 -7.10542736e-14,1.04625721 L-7.10542736e-14,38.8986785 C-7.10542736e-14,39.5069216 0.489417718,40.0000009 1.09314507,40.0000009 L36.7296743,40.0000009 L38.2272831,38.4911895 L38.8175814,37.8964759 L2.08790708,37.8964759 L2.08790708,10.5066092 L45.9120929,10.5066092 L45.9120929,30.6387669 L46.5242542,30.0220269 L48,28.5352428 L48,1.04625721 C47.9748259,0.495928072 47.5498941,0.048999833 47.005238,8.75965007e-07 Z M45.9120929,8.4140983 L2.08790708,8.4140983 L2.08790708,2.10352589 L45.9120929,2.10352589 L45.9120929,8.4140983 Z" id="Shape" fill="#4e4c4a"></path>
                <rect id="Rectangle" fill="#4e4c4a" x="6" y="31" width="4" height="2"></rect>
                <rect id="Rectangle" fill="#4e4c4a" x="13" y="31" width="4" height="2"></rect>
                <rect id="Rectangle" fill="#4e4c4a" x="19" y="31" width="4" height="2"></rect>
                <rect id="Rectangle" fill="#4e4c4a" x="25" y="31" width="4" height="2"></rect>
                <rect id="Rectangle" fill="#4e4c4a" x="6" y="27" width="4" height="2"></rect>
                <rect id="Rectangle" fill="#4e4c4a" x="13" y="27" width="4" height="2"></rect>
                <rect id="Rectangle" fill="#4e4c4a" x="19" y="27" width="4" height="2"></rect>
                <rect id="Rectangle" fill="#4e4c4a" x="25" y="27" width="4" height="2"></rect>
                <rect id="Rectangle" fill="#4e4c4a" x="31" y="27" width="4" height="2"></rect>
                <rect id="Rectangle" fill="#4e4c4a" x="38" y="27" width="4" height="2"></rect>
                <rect id="Rectangle" fill="#4e4c4a" x="6" y="23" width="4" height="2"></rect>
                <rect id="Rectangle" fill="#4e4c4a" x="13" y="23" width="4" height="2"></rect>
                <rect id="Rectangle" fill="#4e4c4a" x="19" y="23" width="4" height="2"></rect>
                <rect id="Rectangle" fill="#4e4c4a" x="25" y="23" width="4" height="2"></rect>
                <rect id="Rectangle" fill="#4e4c4a" x="31" y="23" width="4" height="2"></rect>
                <rect id="Rectangle" fill="#4e4c4a" x="38" y="23" width="4" height="2"></rect>
                <rect id="Rectangle" fill="#4e4c4a" x="6" y="19" width="4" height="2"></rect>
                <rect id="Rectangle" fill="#4e4c4a" x="13" y="19" width="4" height="2"></rect>
                <rect id="Rectangle" fill="#4e4c4a" x="19" y="19" width="4" height="2"></rect>
                <rect id="Rectangle" fill="#4e4c4a" x="25" y="19" width="4" height="2"></rect>
                <rect id="Rectangle" fill="#4e4c4a" x="31" y="19" width="4" height="2"></rect>
                <rect id="Rectangle" fill="#4e4c4a" x="38" y="19" width="4" height="2"></rect>
                <rect id="Rectangle" fill="#4e4c4a" x="25" y="15" width="4" height="2"></rect>
                <rect id="Rectangle" fill="#4e4c4a" x="31" y="15" width="4" height="2"></rect>
                <rect id="Rectangle" fill="#4e4c4a" x="38" y="15" width="4" height="2"></rect>
            </g>
        </g>
    </g>
</svg>
