<?xml version="1.0" encoding="UTF-8"?>
<svg width="48px" height="48px" viewBox="0 0 48 48" version="1.1" xmlns="http://www.w3.org/2000/svg" xmlns:xlink="http://www.w3.org/1999/xlink">
    <!-- Generator: Sketch 62 (91390) - https://sketch.com -->
    <title>Atom/ Icon/ Rich icon/ Journey / Check-in area</title>
    <desc>Created with Sketch.</desc>
    <g id="Atom/-Icon/-Rich-icon/-Journey-/-Check-in-area" stroke="none" stroke-width="1" fill="none" fill-rule="evenodd">
        <g id="JRNY_Check-in-area">
            <rect id="Rectangle" x="0" y="0" width="48" height="48"></rect>
            <g id="Group" fill-rule="nonzero">
                <polygon id="Path" fill="#BD8B13" points="0.000163272539 24 0.000163272539 32.0034783 8.00364153 24"></polygon>
                <path d="M25.0119729,34.03125 L21.9718896,34.03125 L21.9718896,32.9895833 C21.9661777,31.340855 20.6317326,30.0057149 18.9838626,30 L16.9849037,30 C15.3370337,30.0057149 14.0025885,31.340855 13.9968766,32.9895833 L13.9968766,34.03125 L10.9880271,34.03125 C9.34015703,34.0369649 8.00571191,35.372105 8,37.0208333 L8,45 C8,46.6527948 9.33610261,47.9942611 10.9880271,48 L25.0119729,48 C26.6638974,47.9942611 28,46.6527948 28,45 L28,37.0208333 C27.9942881,35.372105 26.659843,34.0369649 25.0119729,34.03125 L25.0119729,34.03125 Z M16.016658,32.9895833 C16.0444209,32.434722 16.5025159,31.9993051 17.0577824,31.9999992 L19.0567413,31.9999992 C19.6120078,31.9993051 20.0701028,32.434722 20.0978657,32.9895833 L20.0978657,34.03125 L15.9854243,34.03125 L16.016658,32.9895833 Z M11.0192608,45.96875 C10.4442637,45.96875 9.97813639,45.5023799 9.97813639,44.9270833 L9.97813639,37.0208333 C9.97813639,36.4455367 10.4442637,35.9791667 11.0192608,35.9791667 L13.2056221,35.9791667 L13.2056221,45.9479167 L11.0192608,45.96875 Z M15.1837585,45.96875 L15.1837585,36.03125 L20.8474753,36.03125 L20.8474753,46 L15.1837585,45.96875 Z M25.9906299,44.9270833 C25.9906299,45.5023799 25.5245026,45.96875 24.9495055,45.96875 L22.8047892,45.96875 L22.8047892,36.03125 L25.0119729,36.03125 C25.5869701,36.03125 26.0530973,36.4976201 26.0530973,37.0729167 L25.9906299,44.9270833 Z" id="Shape" fill="#4E4C4A"></path>
                <path d="M8.99494588,9.99652174 C11.7554091,9.99652174 13.9932068,7.75872412 13.9932068,4.99826087 C13.9932068,2.23779762 11.7554091,-3.64153152e-14 8.99494588,-3.64153152e-14 C6.23448263,-3.64153152e-14 3.99668501,2.23779762 3.99668501,4.99826087 C4.00242506,7.75634302 6.23686373,9.9907817 8.99494588,9.99652174 L8.99494588,9.99652174 Z M8.99494588,2.00346008 C10.2123317,1.99925851 11.3119994,2.72990504 11.7798241,3.85382051 C12.2476489,4.97773598 11.9911991,6.27286028 11.1303722,7.1336872 C10.2695453,7.99451411 8.97442099,8.25096385 7.85050552,7.78313911 C6.72659006,7.31531437 5.99594353,6.21564666 6.00014509,4.99826087 C6.00588809,3.34666522 7.34335023,2.00920308 8.99494588,2.00346008 Z" id="Shape" fill="#4E4C4A"></path>
                <path d="M24.0001633,22 L24.0001633,20.012487 L18.0001633,20.012487 L18.0001633,15.0280957 C18.0001733,13.3770208 16.6610399,12.0369504 15.0053807,12.0312175 L10.9984241,12.0312175 C10.6213224,12.0397956 10.2782187,12.2506565 10.1010328,12.5827263 L8.99494588,14.7887617 L7.89929371,12.5515088 C7.72210789,12.219439 7.37900413,12.0085781 7.0019024,12 L3.00538066,12 C2.20289386,12 1.43372244,12.3199799 0.869226279,12.8887735 C0.30473012,13.4575671 -0.00819596617,14.2278792 1.03206332e-12,15.0280957 L1.03206332e-12,22 L24.0001633,22 Z M2.00364153,20.012487 L2.00364153,15.0280957 C2.00364153,14.4533978 2.47082266,13.987513 3.04711979,13.987513 L6.38625023,13.987513 L8.10798936,17.421436 C8.29715405,17.7324239 8.63542266,17.9223434 9.00016327,17.9223434 C9.36490389,17.9223434 9.70317249,17.7324239 9.89233719,17.421436 L11.6140763,13.987513 L15.0053807,13.987513 C15.5612069,14.0152615 15.9973811,14.4731181 15.9966858,15.0280957 L15.9966858,20.012487 L2.00364153,20.012487 Z" id="Shape" fill="#4E4C4A"></path>
                <path d="M40.0722527,14 C42.7764657,14 44.5722322,10.6956593 44.5722322,8.49948159 C44.652623,6.91845635 43.8139545,5.42358699 42.3901723,4.61010871 C40.9663902,3.79663043 39.1886785,3.79663043 37.7648963,4.61010871 C36.3411141,5.42358699 35.5024457,6.91845635 35.5828365,8.49948159 C35.5828365,10.6956593 37.3680396,14 40.0722527,14 Z M40.0722527,6.142095 C41.4391203,6.142095 42.5488193,7.19591694 42.5546357,8.49948159 C42.5546357,9.98039039 41.2764725,12.075826 40.0722527,12.075826 C38.8680328,12.075826 37.5898696,9.98039039 37.5898696,8.49948159 C37.5898696,7.87252012 37.8517363,7.27138332 38.3175795,6.82900088 C38.7834228,6.38661844 39.414857,6.13943723 40.0722527,6.142095 Z" id="Shape" fill="#4E4C4A"></path>
                <path d="M46.4847734,20.1885309 C46.0835681,17.764456 43.9584033,15.9884444 41.4728702,16 L38.8980447,16 C37.1261528,16.0072839 35.4835588,16.9178858 34.5536888,18.4084293 L28.3444387,28.4502964 C28.0118446,28.7509695 27.9081533,29.2266736 28.0859854,29.6360011 C28.2638176,30.0453286 28.6842398,30.2986642 29.1338987,30.2674465 C29.5835576,30.2362289 29.964008,29.9272927 30.082181,29.4974149 L36.2914311,19.403192 C36.8498762,18.5107683 37.8362639,17.9679088 38.8980447,17.9686395 L41.4728702,17.9686395 C42.9738297,17.9568709 44.2557109,19.0363125 44.4821313,20.5026664 L45.7748421,28.5235947 L43.4967043,29.8220217 L42.2145895,45.9895324 L41.1549905,45.9895324 L41.1549905,31.9790859 C41.2901414,31.5490576 41.1319576,31.0817948 40.7621631,30.818704 C40.3923686,30.5556132 39.8937783,30.5556132 39.5239838,30.818704 C39.1541893,31.0817948 38.9960055,31.5490576 39.1311564,31.9790859 L39.1311564,45.9895324 L37.9020216,45.9895324 L36.6622908,30.345581 C36.5976304,29.8168227 36.141631,29.4202696 35.6026918,29.4241166 C35.0676313,29.4880154 34.6663518,29.9386438 34.6702447,30.4712352 L36.0265314,48 L44.0900797,48 L45.4357704,31.026208 L48,29.5811844 L46.4847734,20.1885309 Z" id="Path" fill="#4E4C4A"></path>
            </g>
        </g>
    </g>
</svg>