<?xml version="1.0" encoding="UTF-8"?>
<svg width="48px" height="48px" viewBox="0 0 48 48" version="1.1" xmlns="http://www.w3.org/2000/svg" xmlns:xlink="http://www.w3.org/1999/xlink">
    <!-- Generator: Sketch 62 (91390) - https://sketch.com -->
    <title>Atom/ Icon/ Rich icon/ Journey / Checked Baggage</title>
    <desc>Created with Sketch.</desc>
    <g id="Atom/-Icon/-Rich-icon/-Journey-/-Checked-Baggage" stroke="none" stroke-width="1" fill="none" fill-rule="evenodd">
        <g id="JRNY_Checked-Baggage">
            <rect id="Rectangle" x="0" y="0" width="48" height="48"></rect>
            <g id="Group" transform="translate(0.000000, 6.000000)" fill-rule="nonzero">
                <polygon id="Path" fill="#BD8B13" points="8.00398225 10 8.00398225 18 16.0039823 10"></polygon>
                <path d="M43.0022431,4.03358425 L30.000504,4.03358425 L30.000504,2.99131442 C29.9947792,1.34163144 28.657317,0.00571819004 27.0057214,-2.48689958e-14 L20.9952866,-2.48689958e-14 C19.3436909,0.00571819004 18.0062288,1.34163144 18.000504,2.99131442 L18.000504,4.03358425 L4.99876486,4.03358425 C2.23661455,4.03933208 0.00050399385,6.27752193 0.00050399385,9.03647944 L0.00050399385,31.0075275 C0.00624403777,33.7624156 2.24068271,35.9942666 4.99876486,36 L43.0022431,36 C45.7603253,35.9942666 47.9947639,33.7624156 48.000504,31.0075275 L48.000504,9.03647944 C48.000504,6.27752193 45.7643934,4.03933208 43.0022431,4.03358425 Z M20.0457214,2.99131442 C20.0719261,2.45568237 20.5007727,2.02733249 21.0370257,2.00115808 L27.0474605,2.00115808 C27.5837136,2.02733249 28.0125601,2.45568237 28.0387649,2.99131442 L28.0387649,4.03358425 L20.0039823,4.03358425 L20.0457214,2.99131442 Z M45.9970257,31.0075275 C45.9913009,32.6572105 44.6538388,33.9931237 43.0022431,33.9988419 L38.014417,33.9988419 L38.014417,28.0057904 L36.0109388,28.0057904 L36.0109388,33.9988419 L12.0109388,33.9988419 L12.0109388,16.8430805 L10.0074605,18.8338159 L10.0074605,33.9988419 L4.99876486,33.9988419 C3.34716921,33.9931237 2.00970707,32.6572105 2.00398225,31.0075275 L2.00398225,9.03647944 C2.00398225,7.38272761 3.34310562,6.04048452 4.99876486,6.03474233 L10.0074605,6.03474233 L10.0074605,8.03590041 L12.0109388,8.03590041 L12.0109388,6.03474233 L36.0109388,6.03474233 L36.0109388,10.0266358 L38.014417,10.0266358 L38.014417,6.03474233 L43.0126779,6.03474233 C44.6683372,6.04048452 46.0074605,7.38272761 46.0074605,9.03647944 L45.9970257,31.0075275 Z" id="Shape" fill="#4E4C4A"></path>
                <path d="M0.611250492,39.0795533 C0.48849258,39.1199983 0.380408648,39.1962805 0.300699385,39.2987302 C0.117528804,39.4686719 0.00942606655,39.7054507 0.000499981181,39.956261 C-0.00419752978,40.0899265 0.0242671821,40.2226605 0.0833136098,40.3424299 C0.123428085,40.4661993 0.199086838,40.5751738 0.300699385,40.6555398 C0.380408648,40.7579896 0.48849258,40.8342717 0.611250492,40.8747167 C0.738175785,40.9559895 0.8853125,40.9994088 1.03567034,40.9999607 C1.29888614,41.0023862 1.5508362,40.8924346 1.72923448,40.6972878 C1.82760457,40.6138783 1.90255963,40.5059173 1.94662025,40.3841779 C1.9987125,40.2479778 2.01302708,40.1000443 1.98802707,39.956261 C1.99043273,39.6908765 1.88137972,39.4368505 1.68782766,39.2569823 C1.39149593,38.9965303 0.974412667,38.9277915 0.611250492,39.0795533 Z" id="Path" fill="#4E4C4A"></path>
                <path d="M5.87747454,39.2730436 C5.48156197,38.9089855 4.87954521,38.9089855 4.48363264,39.2730436 C4.38121803,39.3587744 4.30535186,39.4728788 4.26519473,39.6015791 C4.20792348,39.720149 4.17938783,39.8509805 4.18198029,39.9831042 C4.17970228,40.1185977 4.20818105,40.2527953 4.26519473,40.3752272 C4.30550336,40.5009049 4.38152829,40.6115597 4.48363264,40.6931648 C4.66447906,40.8889717 4.9166598,41 5.18055359,41 C5.44444738,41 5.69662812,40.8889717 5.87747454,40.6931648 C5.97957889,40.6115597 6.05560382,40.5009049 6.09591245,40.3752272 C6.16241836,40.2409684 6.19121635,40.0905961 6.17912689,39.9407125 C6.18171935,39.8085888 6.1531837,39.6777573 6.09591245,39.5591874 C6.04904534,39.4459057 5.97370238,39.3472098 5.87747454,39.2730436 L5.87747454,39.2730436 Z" id="Path" fill="#4E4C4A"></path>
                <path d="M10.0595023,39.2785333 C9.97340318,39.1785346 9.86250085,39.1021356 9.73755632,39.0567493 C9.36556225,38.9316633 8.95384417,39.0167513 8.66440307,39.2785333 C8.46657647,39.4616318 8.35730558,39.71895 8.36392017,39.98613 C8.36068146,40.1201399 8.38628198,40.2533085 8.43904089,40.3768924 C8.4847182,40.5000799 8.56242355,40.6093251 8.66440307,40.6937268 C8.85163445,40.8879998 9.11134353,40.9986264 9.38341575,41 C9.5063804,40.9981222 9.62736875,40.9692573 9.73755632,40.9155108 C9.98575701,40.8113917 10.184998,40.6190848 10.295596,40.3768924 C10.3509892,40.23945 10.3730365,40.0911851 10.3599852,39.9438855 C10.3611265,39.8134746 10.3355787,39.6841722 10.2848645,39.5636842 C10.233403,39.4526178 10.1562206,39.3549588 10.0595023,39.2785333 L10.0595023,39.2785333 Z" id="Path" fill="#4E4C4A"></path>
                <path d="M13.920266,39.0779276 C13.6775098,38.9740241 13.4029879,38.9740241 13.1602317,39.0779276 C13.0367655,39.1183968 12.928058,39.1947247 12.8478888,39.297236 C12.6532201,39.4772121 12.5435379,39.7313904 12.5459574,39.9969342 C12.5412328,40.1306798 12.5698617,40.2634935 12.6292488,40.3833347 C12.7379951,40.6181886 12.9260936,40.8068622 13.1602317,40.9159409 C13.2797077,40.9755095 13.4121165,41.004226 13.5454545,40.9994869 C13.6754611,41.0042733 13.8045163,40.9755066 13.920266,40.9159409 C14.0467016,40.8756237 14.1587981,40.7994552 14.2430203,40.6966325 C14.3419579,40.6131729 14.4173454,40.5051472 14.4616603,40.3833347 C14.5210474,40.2634935 14.5496763,40.1306798 14.5449517,39.9969342 C14.5473712,39.7313904 14.437689,39.4772121 14.2430203,39.297236 C14.1587981,39.1944132 14.0467016,39.1182447 13.920266,39.0779276 L13.920266,39.0779276 Z" id="Path" fill="#4E4C4A"></path>
                <path d="M17.3524613,39.0747029 C17.2260257,39.1150877 17.1139292,39.191384 17.029707,39.2943793 C16.8350382,39.4746573 16.725356,39.7292621 16.7277756,39.9952514 C16.723051,40.1292214 16.7516799,40.2622578 16.811067,40.3823002 C16.8514129,40.5063516 16.9275082,40.6155744 17.029707,40.6961235 C17.1139292,40.7991187 17.2260257,40.875415 17.3524613,40.9157998 C17.468211,40.9754656 17.5972662,41.0042804 17.7272727,40.9994861 C17.9920072,41.0019171 18.2454109,40.891715 18.4248384,40.6961235 C18.5270372,40.6155744 18.6031325,40.5063516 18.6434784,40.3823002 C18.7028655,40.2622578 18.7314945,40.1292214 18.7267699,39.9952514 C18.7291894,39.7292621 18.6195072,39.4746573 18.4248384,39.2943793 C18.145343,39.0084118 17.7210739,38.9215003 17.3524613,39.0747029 L17.3524613,39.0747029 Z" id="Path" fill="#4E4C4A"></path>
                <path d="M22.6156751,39.2770844 C22.2156213,38.9076385 21.6023298,38.9076385 21.2022761,39.2770844 C21.1023774,39.3654596 21.0266664,39.4782778 20.982414,39.6047044 C20.9329374,39.725275 20.9080132,39.8546661 20.9091266,39.9851664 C20.908804,40.1190186 20.933674,40.2517142 20.982414,40.3761967 C21.0269765,40.4994687 21.1027854,40.6087888 21.2022761,40.6932484 C21.3861458,40.8890806 21.6416838,41 21.9089756,41 C22.1762674,41 22.4318053,40.8890806 22.6156751,40.6932484 C22.7151657,40.6087888 22.7909746,40.4994687 22.8355371,40.3761967 C22.8870084,40.252528 22.9119842,40.1192681 22.9088245,39.9851664 C22.9099379,39.8546661 22.8850137,39.725275 22.8355371,39.6047044 C22.7912847,39.4782778 22.7155737,39.3654596 22.6156751,39.2770844 Z" id="Path" fill="#4E4C4A"></path>
                <path d="M26.7538477,39.2866931 C26.6713435,39.1832337 26.5615335,39.1065936 26.437677,39.0660269 C26.0852003,38.9261636 25.685865,39.0125636 25.4177715,39.2866931 C25.2259358,39.4522921 25.1080477,39.691413 25.0914017,39.948692 C25.0867735,40.0832657 25.1148184,40.2169017 25.1729941,40.3374849 C25.2125171,40.4620953 25.2870601,40.5718103 25.3871743,40.6527225 C25.5645522,40.8760922 25.8312188,41.0037893 26.1113072,40.9994837 C26.2386619,41.0042997 26.3650846,40.975355 26.4784732,40.9154204 C26.6023297,40.8748536 26.7121397,40.7982135 26.7946439,40.6947541 C26.8915634,40.6107778 26.9654132,40.5020832 27.008824,40.3795166 C27.0669998,40.2589333 27.0950447,40.1252974 27.0904165,39.9907236 C27.0929584,39.8597219 27.064979,39.7300015 27.008824,39.6124386 C26.9543205,39.4818914 26.8661347,39.3692295 26.7538477,39.2866931 Z" id="Path" fill="#4E4C4A"></path>
                <path d="M30.6579501,39.0779276 C30.4151939,38.9740241 30.1406721,38.9740241 29.8979158,39.0779276 C29.7714802,39.1182447 29.6593837,39.1944132 29.5751616,39.297236 C29.3804928,39.4772121 29.2708106,39.7313904 29.2732301,39.9969342 C29.2685055,40.1306798 29.2971345,40.2634935 29.3565216,40.3833347 C29.3968675,40.5071784 29.4729628,40.6162182 29.5751616,40.6966325 C29.6593837,40.7994552 29.7714802,40.8756237 29.8979158,40.9159409 C30.0136655,40.9755066 30.1427207,41.0042733 30.2727273,40.9994869 C30.4060653,41.004226 30.5384741,40.9755095 30.6579501,40.9159409 C30.8920882,40.8068622 31.0801867,40.6181886 31.188933,40.3833347 C31.2483201,40.2634935 31.276949,40.1306798 31.2722244,39.9969342 C31.274644,39.7313904 31.1649618,39.4772121 30.970293,39.297236 C30.8901238,39.1947247 30.7814163,39.1183968 30.6579501,39.0779276 Z" id="Path" fill="#4E4C4A"></path>
                <path d="M34.0724523,39.0673248 C33.9467854,39.1108414 33.8348269,39.1869294 33.7479348,39.2878701 C33.5549606,39.4699459 33.44837,39.725827 33.4548223,39.9915147 C33.451663,40.1247761 33.4766356,40.2572009 33.5281004,40.3800946 C33.6359856,40.6209342 33.8303396,40.812167 34.0724523,40.9157046 C34.1892913,40.9743257 34.3187212,41.0031809 34.4493113,40.9997219 C34.718096,41 34.9752943,40.889954 35.1611561,40.6951593 C35.2606342,40.611229 35.3364336,40.502594 35.3809905,40.3800946 C35.4324553,40.2572009 35.4574279,40.1247761 35.4542686,39.9915147 C35.460721,39.725827 35.3541303,39.4699459 35.1611561,39.2878701 C34.8702483,39.011354 34.4475164,38.9257187 34.0724523,39.0673248 Z" id="Path" fill="#4E4C4A"></path>
                <path d="M39.3339293,39.2730436 C38.9376505,38.9089855 38.3350768,38.9089855 37.9387979,39.2730436 C37.8362886,39.3587744 37.7603522,39.4728788 37.7201579,39.6015791 C37.6628337,39.720149 37.6342716,39.8509805 37.6368665,39.9831042 C37.6321419,40.1188306 37.6607708,40.2536112 37.7201579,40.3752272 C37.7605038,40.5009049 37.8365991,40.6115597 37.9387979,40.6931648 C38.1198117,40.8889717 38.3722257,41 38.6363636,41 C38.9005016,41 39.1529156,40.8889717 39.3339293,40.6931648 C39.432867,40.6084692 39.5082545,40.4988437 39.5525693,40.3752272 C39.6119564,40.2536112 39.6405854,40.1188306 39.6358608,39.9831042 C39.6384556,39.8509805 39.6098936,39.720149 39.5525693,39.6015791 C39.5085629,39.4747992 39.4332727,39.3616658 39.3339293,39.2730436 Z" id="Path" fill="#4E4C4A"></path>
                <path d="M43.4741018,39.2784623 C43.3939327,39.1748203 43.2852251,39.0976505 43.161759,39.0567348 C42.8008609,38.9316807 42.4014236,39.0167471 42.1206161,39.2784623 C41.9259473,39.4604236 41.8162651,39.7174057 41.8186847,39.9858786 C41.8139601,40.1210995 41.842589,40.2553782 41.9019761,40.3765413 C41.942322,40.501751 42.0184173,40.6119937 42.1206161,40.6932949 C42.3000437,40.8907127 42.5534474,41.0019437 42.8181818,40.99949 C42.9515198,41.0042814 43.0839287,40.9752481 43.2034047,40.9150224 C43.4375427,40.8047405 43.6256413,40.6139858 43.7343875,40.3765413 C43.7937746,40.2553782 43.8224036,40.1210995 43.817679,39.9858786 C43.8202738,39.8542469 43.7917118,39.7239026 43.7343875,39.6057743 C43.6829281,39.4720938 43.5920268,39.3577846 43.4741018,39.2784623 L43.4741018,39.2784623 Z" id="Path" fill="#4E4C4A"></path>
                <path d="M47.3820931,39.0779279 C47.1380108,38.974024 46.8619892,38.974024 46.6179069,39.0779279 C46.4922399,39.1212005 46.3802815,39.1968622 46.2933894,39.2972372 C46.1004152,39.4782927 45.9938245,39.7327397 46.0002768,39.9969385 C45.9971176,40.1294531 46.0220902,40.2611358 46.073555,40.3833407 C46.1814402,40.6228307 46.3757941,40.8129918 46.6179069,40.9159492 C46.7347458,40.9742417 46.8641757,41.0029353 46.9947658,40.9994956 C47.1288323,41.0042347 47.2619645,40.9755181 47.3820931,40.9159492 C47.6242059,40.8129918 47.8185598,40.6228307 47.926445,40.3833407 C47.9779098,40.2611358 48.0028824,40.1294531 47.9997232,39.9969385 C48.0061755,39.7327397 47.8995848,39.4782927 47.7066106,39.2972372 C47.6197185,39.1968622 47.5077601,39.1212005 47.3820931,39.0779279 Z" id="Path" fill="#4E4C4A"></path>
                <path d="M33.7048518,10.1414634 C33.5140256,9.96084798 33.2603332,9.85829728 32.9952866,9.85463415 L27.0057214,9.85463415 C26.4294243,9.85463415 25.9622431,10.3132693 25.9622431,10.8790244 L25.9622431,16.6873171 C25.9659745,16.9475153 26.0704361,17.196567 26.254417,17.3839024 L34.2474605,25.2409756 C34.4382867,25.421591 34.6919791,25.5241417 34.9570257,25.5278049 C35.2220723,25.5241417 35.4757647,25.421591 35.666591,25.2409756 L41.7396344,19.3917073 C42.1108176,18.9987992 42.1108176,18.3914447 41.7396344,17.9985366 L33.7048518,10.1414634 Z M34.9987649,23.1921951 L27.9970257,16.3185366 L27.9970257,11.8214634 L32.5883301,11.8214634 L39.5900692,18.7360976 L34.9987649,23.1921951 Z" id="Shape" fill="#4E4C4A"></path>
                <polygon id="Rectangle" fill="#4E4C4A" transform="translate(34.001753, 17.714147) rotate(-45.000000) translate(-34.001753, -17.714147) " points="32.59161 16.7086379 35.3935718 16.7345022 35.4118963 18.7196559 32.6099345 18.6937917"></polygon>
                <polygon id="Rectangle" fill="#4E4C4A" transform="translate(32.000133, 15.754561) rotate(-45.000000) translate(-32.000133, -15.754561) " points="30.5899902 14.7490522 33.391952 14.7749164 33.4102765 16.7600702 30.6083147 16.7342059"></polygon>
            </g>
        </g>
    </g>
</svg>