<?xml version="1.0" encoding="UTF-8"?>
<svg width="48px" height="48px" viewBox="0 0 48 48" version="1.1" xmlns="http://www.w3.org/2000/svg" xmlns:xlink="http://www.w3.org/1999/xlink">
    <!-- Generator: Sketch 62 (91390) - https://sketch.com -->
    <title>Atom/ Icon/ Rich icon/ Loyalty / Earn miles</title>
    <desc>Created with Sketch.</desc>
    <g id="Atom/-Icon/-Rich-icon/-Loyalty-/-Earn-miles" stroke="none" stroke-width="1" fill="none" fill-rule="evenodd">
        <g id="LOYAL_Earn-miles">
            <rect id="Rectangle" x="0" y="0" width="48" height="48"></rect>
            <g id="Group" transform="translate(0.000000, 6.000000)" fill-rule="nonzero">
                <polygon id="Path" fill="#4E4C4A" points="35.9978308 26.0021692 35.9978308 22 34.0021692 22 34.0021692 26.0021692 30 26.0021692 30 27.9978308 34.0021692 27.9978308 34.0021692 32 35.9978308 32 35.9978308 27.9978308 40 27.9978308 40 26.0021692"></polygon>
                <path d="M35,18 C30.0294373,18 26,22.0294373 26,27 C26,31.9705627 30.0294373,36 35,36 C39.9705627,36 44,31.9705627 44,27 C43.994018,22.0319172 39.9680828,18.005982 35,18 Z M35,34.0024125 C31.1326743,34.0024125 27.9975875,30.8673257 27.9975875,27 C27.9975875,23.1326743 31.1326743,19.9975875 35,19.9975875 C38.8673257,19.9975875 42.0024125,23.1326743 42.0024125,27 C41.9785339,30.8503561 38.8504301,33.9590608 35,33.9589867 L35,34.0024125 Z" id="Shape" fill="#4E4C4A"></path>
                <polygon id="Path" fill="#BD8B13" points="4.39466667 16.0729412 10.912 11.7105882 -2.18491891e-13 9.60352941"></polygon>
                <path d="M46.8532542,2.65487131 C43.6544291,0.855702324 37.4969638,3.24728061 36.8309968,3.52154418 L28.8284753,6.58232557 L16.8192343,-1.59872116e-14 L14.3409637,0.943466665 L21.917703,12.0566263 L23.8828515,11.3545116 L18.2275908,3.07175193 L28.7083829,8.78740463 L37.5952212,5.39750697 C39.2219275,4.73927441 43.9055314,3.28019224 45.9034324,4.41015813 C45.9320761,4.40272644 45.9621287,4.40272644 45.9907724,4.41015813 C45.1100989,5.15941801 44.0998029,5.73953527 43.0102971,6.12156278 L19.8433796,15.2490542 C16.2355155,15.8415989 12.5805507,16.0950169 8.9258878,16.0060217 L6,17.9807193 L6.09825743,17.9807193 C7.1900066,17.9807193 8.28175578,17.9807193 9.24249506,17.9807193 C12.9738325,18.0803588 16.7054625,17.7936122 20.3783367,17.125017 L43.6325941,8.01946665 C44.8990232,7.53676277 47.8576635,6.2312682 48,4.47598139 C48.0155357,3.69285834 47.564258,2.97594308 46.8532542,2.65487131 Z" id="Path" fill="#4E4C4A"></path>
                <path d="M15.008,13.4152941 L19.2746667,11.2976471 L18.208,9.66705882 L15.52,11.0117647 L11.9893333,13.3729412 L11.456,13.7329412 C11.8984548,13.8197831 12.3490789,13.858834 12.8,13.8494118 C13.5572754,13.8469981 14.3069718,13.6995994 15.008,13.4152941 Z" id="Path" fill="#4E4C4A"></path>
            </g>
        </g>
    </g>
</svg>