<?xml version="1.0" encoding="UTF-8"?>
<svg width="30px" height="32px" viewBox="0 0 30 32" version="1.1" xmlns="http://www.w3.org/2000/svg" xmlns:xlink="http://www.w3.org/1999/xlink">
    <g id="Atom/-Icon/-Functional-icon/-Journey/-Flight---filled" stroke="none" stroke-width="1" fill="none" fill-rule="evenodd">
        <g id="functional_plane_2" fill="#bd8b13">
            <path d="M19.77,31.32 L17,28.12 L17.32,18.6 L28.8,21.5 C28.9777403,21.5496006 29.1685069,21.5084548 29.31,21.39 C29.4573228,21.2746201 29.5423788,21.0971119 29.5400656,20.91 L29.5400656,18.51 C29.5430263,18.3050399 29.4412088,18.112718 29.27,18 L17.71,10.87 L18,4.68 C17.9848016,3.46287075 17.5261319,2.29308542 16.71,1.39 C16.3669016,0.963799814 15.8683455,0.691600509 15.3243042,0.633444369 C14.7802629,0.575288229 14.2354351,0.73595339 13.81,1.08 C13.6945531,1.17046479 13.5904648,1.27455309 13.5,1.39 C12.6986818,2.29985833 12.2514471,3.46763782 12.24,4.68 L12.56,10.87 L1,18 C0.826518165,18.1130728 0.718466362,18.3030949 0.71,18.51 L0.71,20.91 C0.71581504,21.097434 0.803541798,21.2728875 0.95,21.39 C1.09495213,21.5011843 1.28210504,21.5415506 1.46,21.5 L13,18.6 L13.37,28 L10.7,31.34 L19.77,31.32 Z" id="Path"></path>
        </g>
    </g>
</svg>
