<?xml version="1.0" encoding="UTF-8"?>
<svg width="48px" height="48px" viewBox="0 0 48 48" version="1.1" xmlns="http://www.w3.org/2000/svg" xmlns:xlink="http://www.w3.org/1999/xlink">
    <!-- Generator: Sketch 62 (91390) - https://sketch.com -->
    <title>Atom/ Icon/ Rich icon/ Payments / Free refund</title>
    <desc>Created with Sketch.</desc>
    <g id="Atom/-Icon/-Rich-icon/-Payments-/-Free-refund" stroke="none" stroke-width="1" fill="none" fill-rule="evenodd">
        <g id="PAY_Free-refund">
            <rect id="Rectangle" x="0" y="0" width="48" height="48"></rect>
            <g id="Group" transform="translate(0.000000, 1.000000)">
                <polygon id="Path" fill="#bd8b13" fill-rule="nonzero" points="27.4330435 31.5948965 33.0678261 25.9494419 21.7982609 25.9494419"></polygon>
                <path d="M46.158776,15.9646155 C46.4066586,15.9318605 46.632125,15.8040831 46.7876026,15.6082439 C46.9724723,15.3546662 47.0340051,15.0315859 46.9552897,14.7277964 L43.0146432,0.724488124 C42.8685513,0.274476202 42.4391212,-0.0218609762 41.9665989,0.00126337138 L10.0012482,0.00126337138 C9.55952687,0.014916963 9.17383553,0.304215151 9.03704745,0.724488124 L5.03351829,14.7277964 C4.9548029,15.0315859 5.01633568,15.3546662 5.20120537,15.6082439 C5.356683,15.8040831 5.58214938,15.9318605 5.83003194,15.9646155 L5.03351829,18.7317363 C4.96867472,19.0312045 5.03810502,19.3440543 5.22354031,19.587967 C5.40897559,19.8318798 5.69184525,19.9824285 5.99771903,20 L46.0120498,20 C46.3179236,19.9824285 46.6007933,19.8318798 46.7862285,19.587967 C46.9716638,19.3440543 47.0410941,19.0312045 46.9762506,18.7317363 L46.158776,15.9646155 Z M12.9357722,14.0045716 C12.8286388,12.8905673 12.348561,11.8453678 11.5733146,11.038302 C10.7552636,10.281001 9.73652697,9.77521913 8.63879063,9.58137096 L9.62395225,6.13295149 C12.0791074,5.85112594 14.1949636,4.2750713 15.1681065,2.00323334 L37.1979974,2.00323334 C38.123229,4.17824166 40.1036095,5.72309691 42.4382188,6.09102542 L43.4862631,9.58137096 C42.3885267,9.77521913 41.3697901,10.281001 40.5517391,11.038302 C39.7496208,11.8348842 39.2431347,12.8812366 39.1159184,14.0045716 L12.9357722,14.0045716 Z M7.38113748,14.0045716 L8.04140538,11.5309333 C8.82268415,11.628957 9.55468384,11.9657114 10.137494,12.495233 C10.5477101,12.9158866 10.8247713,13.4481905 10.9340076,14.0255347 L7.38113748,14.0045716 Z M41.9665989,12.47427 C42.5499567,11.9437802 43.2811494,11.6037407 44.0626874,11.4994888 L44.7753576,14.0045716 L41.1281634,14.0045716 C41.2260196,13.4342021 41.4841018,12.9034435 41.8722749,12.47427 L41.9665989,12.47427 Z M41.8827553,3.86894357 C40.9351794,3.50358753 40.1254022,2.85130189 39.5665775,2.00323334 L41.3482527,2.00323334 L41.8827553,3.86894357 Z M12.8414482,2.00323334 C12.2263658,2.96486674 11.2847856,3.67205488 10.1898962,3.99472179 L10.7558401,2.00323334 L12.8414482,2.00323334 Z M7.38113748,18.0085116 L7.9470814,16.0065416 L44.1150897,16.0065416 L44.691514,18.0085116 L7.38113748,18.0085116 Z" id="Shape" fill="#4e4c4a" fill-rule="nonzero"></path>
                <circle id="Oval" fill="#4e4c4a" cx="16" cy="8" r="1"></circle>
                <circle id="Oval" fill="#4e4c4a" cx="36" cy="8" r="1"></circle>
                <path d="M25.9947566,3.5 C22.0726592,3.5 19,5.48020955 19,7.99476135 C19,10.5093132 22.0726592,12.5 25.9947566,12.5 C29.9168539,12.5 33,10.5197905 33,7.99476135 C33,5.46973225 29.9273408,3.5 25.9947566,3.5 Z M21.0029963,7.99476135 C21.0029963,6.81082654 23.1003745,5.50116414 25.9947566,5.50116414 C28.8891386,5.50116414 30.9970037,6.82130384 30.9970037,7.99476135 C30.9970037,9.16821886 28.941573,10.4975739 25.9947566,10.4975739 C23.058427,10.4988359 21.0029963,9.17869616 21.0029963,7.99476135 Z" id="Shape" fill="#4e4c4a" fill-rule="nonzero"></path>
                <path d="M43.6069565,33.5751241 C42.585718,32.8539821 41.2527534,32.7497097 40.1321739,33.3033059 L32.4,36.7951241 C31.9545661,36.2940265 31.3751983,35.9312358 30.7304348,35.7496696 L19.7843478,32.6133059 C14.8591304,31.1810332 6.3026087,32.6133059 2.19130435,33.3137605 L-4.08562073e-13,33.669215 L0.313043478,35.5719423 L2.52521739,35.2060332 C6.49043478,34.5473969 14.733913,33.1151241 19.2208696,34.4533059 L30.1669565,37.5896696 C30.6201272,37.6903978 30.9857209,38.024833 31.1269565,38.4678514 L31.1269565,38.5619423 C31.2395309,39.1125171 31.0668064,39.682801 30.6678261,40.0778514 C30.2992679,40.4260156 29.7658439,40.5353317 29.2904348,40.3601241 L18.7304348,37.349215 L18.1669565,39.2623969 L28.7582609,42.3464878 C29.0969296,42.4479607 29.4482594,42.5007599 29.8017391,42.5033059 C30.6431095,42.5084417 31.4527202,42.1817309 32.0556522,41.5937605 C32.8328467,40.8211385 33.2168661,39.7361528 33.0991304,38.6455787 L40.8834783,35.1223969 C41.3579843,34.865883 41.9345245,34.889951 42.386087,35.1851241 C42.8498004,35.5110409 43.1169502,36.0502885 43.0956522,36.6173969 C43.0242966,37.0971337 42.6955759,37.4987719 42.24,37.6628514 L36.6052174,40.2346696 C29.6034783,43.4546696 29.6034783,43.4546696 25.5652174,43.4546696 C21.1892558,43.3961938 16.8753479,42.4092064 12.9078261,40.5587605 C11.1756522,39.7955787 8.64,40.4960332 5.41565217,41.374215 C4.63304348,41.5937605 3.80869565,41.8237605 2.96347826,42.0328514 L1.99304348,42.2837605 L2.48347826,44.2178514 L3.45391304,43.9669423 L5.9373913,43.3083059 C8.55652174,42.5869423 11.0295652,41.9073969 12.1043478,42.3883059 C16.3249056,44.3494407 20.9131175,45.3899797 25.5652174,45.4410332 C30.0313043,45.4410332 30.3130435,45.3155787 37.44,42.0433059 C38.9530435,41.3428514 40.7895652,40.5064878 43.0643478,39.4819423 C44.1772576,39.0135566 44.9485039,37.9766079 45.0782609,36.774215 C45.174162,35.5244785 44.61748,34.314072 43.6069565,33.5751241 L43.6069565,33.5751241 Z" id="Path" fill="#4e4c4a" fill-rule="nonzero"></path>
            </g>
        </g>
    </g>
</svg>
