<svg width="30" height="29" viewBox="0 0 30 29" fill="none" xmlns="http://www.w3.org/2000/svg">
<path d="M13.4062 1.20831V6.04165L18.2387 1.20831H13.4062Z" fill="#BD8B13"/>
<path d="M13.8587 23.0601L13.2546 22.9647L13.0793 24.1858L13.6835 24.2812C15.9673 24.65 16.9943 25.4704 16.9943 25.9411C16.9943 26.6851 14.8737 27.7663 11.5568 27.7663C8.23997 27.7663 6.11935 26.6851 6.11935 25.9411C6.11935 25.4641 7.1706 24.631 9.49664 24.2685L10.1008 24.1794L9.93164 22.9584L9.32747 23.0474C6.62685 23.4671 4.94727 24.5737 4.94727 25.9411C4.94727 27.9507 8.27622 29 11.5931 29C14.91 29 18.2389 27.9507 18.2389 25.9411C18.1725 24.5928 16.5593 23.5117 13.8587 23.0601Z" fill="#4E4C4A"/>
<path d="M12.1948 0H10.9883V25.9792H12.1948V0Z" fill="#4E4C4A"/>
<path d="M23.6758 24.1666C22.6748 24.1666 21.8633 24.9781 21.8633 25.9791C21.8633 26.9801 22.6748 27.7916 23.6758 27.7916C24.6768 27.7916 25.4883 26.9801 25.4883 25.9791C25.4883 24.9781 24.6768 24.1666 23.6758 24.1666ZM23.6758 26.5833C23.3318 26.5833 23.0529 26.3044 23.0529 25.9604C23.0529 25.6164 23.3318 25.3376 23.6758 25.3376C24.0198 25.3376 24.2986 25.6164 24.2986 25.9604C24.2986 26.3044 24.0198 26.5833 23.6758 26.5833Z" fill="#4E4C4A"/>
</svg>
