<?xml version="1.0" encoding="UTF-8"?>
<svg width="28px" height="25px" viewBox="-4 -10 40 50" version="1.1" xmlns="http://www.w3.org/2000/svg" xmlns:xlink="http://www.w3.org/1999/xlink">
  <g id="Atom/-Icon/-Functional-icon/-Navigation/-Hotels-World-wide" stroke="none" stroke-width="1" fill="none" fill-rule="evenodd">
    <g id="staying_abroad" fill="#4E4C4A" fill-rule="nonzero">
      <path d="M30.71,10.81 C29.8900106,10.3115086 29.0419337,9.86075912 28.17,9.46 L28.17,2.4 C28.1644933,1.07290066 27.0871108,0 25.76,0 L6,0 C4.6767928,0.0054791892 3.60547919,1.0767928 3.6,2.4 L3.6,9.25 C2.68133487,9.58041794 1.78015917,9.95757666 0.9,10.38 C0.342319914,10.6458146 -0.00927909451,11.2122797 -0.000179272153,11.83 L-0.000179272153,26.46 L1.5,26.46 L1.5,19.11 L30,19.11 L30,26.46 L31.5,26.46 L31.5,12.19 C31.4960674,11.6235128 31.1965074,11.1002306 30.71,10.81 Z M5.11999997,2.4 C5.11999997,1.9106506 5.51077143,1.51087442 6,1.49994437 L25.76,1.49994437 C26.0004228,1.49732847 26.2319187,1.59096894 26.4028704,1.76004211 C26.5738222,1.92911527 26.67,2.1595624 26.67,2.4 L26.67,8.82 C18.35,5.56 10.08,7.13 5.11999997,8.73 L5.11999997,2.4 Z M1.49998152,17.61 L1.49998152,11.83 C1.49923084,11.7879354 1.52252221,11.7491164 1.56,11.73 C4.15,10.49 17.65,4.73 29.94,12.09 C29.9545505,12.1217455 29.9545505,12.1582545 29.94,12.19 L29.94,17.61 L1.49998152,17.61 Z" id="Shape"></path>
    </g>
  </g>
</svg>