<?xml version="1.0" encoding="UTF-8"?>
<svg width="48px" height="48px" viewBox="0 0 48 48" version="1.1" xmlns="http://www.w3.org/2000/svg" xmlns:xlink="http://www.w3.org/1999/xlink">
    <!-- Generator: Sketch 62 (91390) - https://sketch.com -->
    <title>Atom/ Icon/ Rich icon/ Journey / Hotel</title>
    <desc>Created with Sketch.</desc>
    <g id="Atom/-Icon/-Rich-icon/-Journey-/-Hotel" stroke="none" stroke-width="1" fill="none" fill-rule="evenodd">
        <g id="Hotel" transform="translate(0.000000, 0.941176)">
            <rect id="Rectangle_1081" x="0" y="0" width="47.0588235" height="47.0588235"></rect>
            <g id="Group_757" transform="translate(0.368000, 8.790588)" fill-rule="nonzero">
                <g id="Group_756" transform="translate(0.000000, 5.365647)">
                    <polygon id="Path_1767" fill="#BD8B13" points="21.2687059 18.6522353 15.8098824 24.1110588 26.7275294 24.1110588"></polygon>
                    <g id="Group_755" fill="#4E4C4A">
                        <path d="M41.4964706,0.968470588 L16.4056471,0.968470588 C15.0235909,0.97320699 13.7106419,1.57343183 12.8028235,2.61552941 C12.5900975,2.32086827 12.3506523,2.04645151 12.0875294,1.79576471 C11.1929411,0.926931779 10.0708477,0.32885173 8.85082353,0.0705882353 C7.14146755,-0.234808221 5.41670702,0.52107564 4.48273041,1.98492418 C3.5487538,3.44877273 3.59004124,5.33144494 4.58729412,6.75294118 L4.59482353,6.76235294 L0.965647059,6.76235294 C0.709714575,6.76210288 0.464192545,6.86366095 0.283220863,7.04463263 C0.102249182,7.22560431 0.000940715796,7.47112634 0.000940715796,7.72705882 L0.000940715796,11.5858824 C0.000940715796,11.8419013 0.102219489,12.0875199 0.283164016,12.2686409 C0.464108542,12.449762 0.709627998,12.5515295 0.965647059,12.5515294 L11.5821176,12.5515294 L11.5821176,13.5162353 C11.5821176,14.0490276 12.0140312,14.4809416 12.5468235,14.4809416 L45.3571765,14.4809416 C45.613109,14.4811912 45.858631,14.3796332 46.0396027,14.1986615 C46.2205743,14.0176898 46.3218828,13.7721678 46.3218828,13.5162353 L46.3218828,5.79858824 C46.3213649,3.13303935 44.1620177,0.971586317 41.4964706,0.968470588 Z M6.75105882,2.35952941 C7.14485039,2.08246396 7.61450556,1.93358097 8.096,1.93317639 C8.23578882,1.93317639 8.37530891,1.9454227 8.51294118,1.96988235 L8.51294118,1.96988235 C9.35730139,2.16559243 10.1319688,2.58873009 10.7529412,3.19341176 C11.2922237,3.60226874 11.6102522,4.23902168 11.6131765,4.91576471 C11.5275294,5.39952941 11.0042353,5.89270588 10.2136471,6.23905882 C9.42231939,6.59242316 8.54941142,6.72261078 7.68941176,6.61552941 C6.74701869,6.45399363 5.99608464,5.73824566 5.78954419,4.80468283 C5.58300375,3.87112 5.96193215,2.90540246 6.74823529,2.36141176 L6.75105882,2.35952941 Z M1.93035294,10.6183529 L1.93035294,8.68611765 L11.5802353,8.68611765 L11.5802353,10.6164706 L1.93035294,10.6183529 Z M44.3915294,12.5496471 L13.5105882,12.5496471 L13.5105882,5.79388235 C13.5121447,4.19563068 14.8073954,2.90038002 16.4056471,2.89882353 L41.4964706,2.89882353 C43.0947223,2.90038002 44.3899729,4.19563068 44.3915294,5.79388235 L44.3915294,12.5496471 Z" id="Path_1768"></path>
                    </g>
                </g>
                <rect id="Rectangle_1082" fill="#4E4C4A" x="0" y="0" width="1.93035294" height="22.6315294"></rect>
                <rect id="Rectangle_1083" fill="#4E4C4A" x="44.3915294" y="11.1567059" width="1.93035294" height="11.4748235"></rect>
            </g>
        </g>
    </g>
</svg>