<svg width="24" height="23" viewBox="0 0 24 23" fill="none" xmlns="http://www.w3.org/2000/svg">
<g clip-path="url(#clip0)">
<path d="M0.449219 22.9374H4.27228L0.449219 19.1144V22.9374Z" fill="#BD8B13"/>
<path d="M13.8304 5.73436C13.8304 4.67878 12.9747 3.82306 11.9191 3.82306C10.8635 3.82306 10.0078 4.67878 10.0078 5.73436C10.0078 6.78994 10.8635 7.64566 11.9191 7.64566C12.426 7.64566 12.9122 7.44429 13.2706 7.08585C13.629 6.72741 13.8304 6.24127 13.8304 5.73436ZM10.9632 5.73436C10.9632 5.20644 11.3912 4.77848 11.9191 4.77848C12.447 4.77848 12.875 5.20644 12.875 5.73436C12.875 6.26228 12.447 6.69024 11.9191 6.69024C11.3912 6.69024 10.9632 6.26228 10.9632 5.73436Z" fill="#4E4C4A"/>
<path d="M11.9179 -4.58474e-05C5.83529 -0.00986634 0.80955 4.74399 0.48142 10.8178C0.459983 10.8729 0.449219 10.9316 0.449219 10.9907V17.7629L1.12496 18.4386L1.4051 18.7187V11.1416C1.41906 11.0995 1.42711 11.0557 1.42902 11.0114C1.68274 5.27413 6.49636 0.803713 12.2367 0.974287C17.9771 1.14486 22.5168 5.89322 22.4294 11.6355C22.342 17.3777 17.6599 21.9857 11.917 21.9815H4.66788L4.94802 22.2617L5.62376 22.9374H11.9179C18.2519 22.9374 23.3867 17.8027 23.3867 11.4687C23.3867 5.13469 18.2519 -4.58474e-05 11.9179 -4.58474e-05Z" fill="#4E4C4A"/>
<path d="M9.52734 16.2472C8.73559 16.2472 8.09375 16.889 8.09375 17.6808C8.09375 18.4725 8.73559 19.1144 9.52734 19.1144H14.304C15.0957 19.1144 15.7376 18.4725 15.7376 17.6808C15.7376 16.889 15.0957 16.2472 14.304 16.2472H13.8283V10.0372C13.8291 9.90999 13.779 9.78776 13.6893 9.69761C13.5996 9.60745 13.4776 9.55682 13.3504 9.55695H9.52734C8.73559 9.55695 8.09375 10.1988 8.09375 10.9905C8.09375 11.7823 8.73559 12.4241 9.52734 12.4241H10.0053V16.2472H9.52734ZM10.4832 11.4687H9.52734C9.35659 11.4687 9.19881 11.3776 9.11343 11.2297C9.02806 11.0819 9.02806 10.8997 9.11343 10.7518C9.19881 10.6039 9.35659 10.5128 9.52734 10.5128H12.8725V16.7228C12.8723 16.8496 12.9227 16.9713 13.0123 17.0609C13.102 17.1506 13.2236 17.2009 13.3504 17.2008H14.304C14.5679 17.2008 14.7819 17.4147 14.7819 17.6787C14.7819 17.9427 14.5679 18.1566 14.304 18.1566H9.52734C9.26338 18.1566 9.0494 17.9427 9.0494 17.6787C9.0494 17.4147 9.26338 17.2008 9.52734 17.2008H10.4832C10.61 17.2009 10.7317 17.1506 10.8213 17.0609C10.911 16.9713 10.9613 16.8496 10.9612 16.7228V11.9462C10.9613 11.8194 10.911 11.6978 10.8213 11.6081C10.7317 11.5184 10.61 11.4681 10.4832 11.4682V11.4687Z" fill="#4E4C4A"/>
</g>
<defs>
<clipPath id="clip0">
<rect width="23" height="23" fill="white" transform="translate(0.449219)"/>
</clipPath>
</defs>
</svg>
