<svg width="32" height="32" viewBox="0 0 32 32" fill="none" xmlns="http://www.w3.org/2000/svg">
<path d="M17 9L24 16L17 23" stroke="#4E4C4A"/>
<path d="M24 16H9" stroke="#4E4C4A"/>
<path fill-rule="evenodd" clip-rule="evenodd" d="M31.0008 16C31.0008 24.2843 24.2851 31 16.0008 31C9.2858 31 3.60139 26.5876 1.68875 20.504L0.882844 21.2524C3.05628 27.509 9.00407 32 16.0008 32C24.8373 32 32.0008 24.8366 32.0008 16C32.0008 7.16344 24.8373 0 16.0008 0C8.71969 0 2.57453 4.8635 0.636719 11.5191L1.46384 12.2871C3.11606 5.7987 8.99802 1 16.0008 1C24.2851 1 31.0008 7.71573 31.0008 16Z" fill="#4E4C4A"/>
<path d="M4 16.5L0 13V20L4 16.5Z" fill="#BD8B13"/>
</svg>
