<svg width="45" height="45" viewBox="0 0 45 45" fill="none" xmlns="http://www.w3.org/2000/svg">
<circle cx="22.5" cy="22.5" r="22.5" fill="#F2E8D0"/>
<path fill-rule="evenodd" clip-rule="evenodd" d="M9.27393 27.0551L12.1539 24.5621L20.7219 24.8501L18.1119 35.1821C18.0673 35.3421 18.1043 35.5138 18.2109 35.6411C18.3148 35.7737 18.4745 35.8503 18.6429 35.8482H20.8029C20.9874 35.8509 21.1605 35.7592 21.2619 35.6051L27.6789 25.2011L33.2499 25.4621C34.3454 25.4484 35.3982 25.0356 36.2109 24.3011C36.5945 23.9923 36.8395 23.5436 36.8918 23.054C36.9442 22.5644 36.7996 22.074 36.4899 21.6911C36.4085 21.5872 36.3148 21.4935 36.2109 21.4121C35.3921 20.6909 34.3411 20.2884 33.2499 20.2781L27.6789 20.5661L21.2619 10.1621C21.1602 10.006 20.9891 9.90874 20.8029 9.90112H18.6429C18.4742 9.90636 18.3163 9.98531 18.2109 10.1171C18.1109 10.2476 18.0745 10.416 18.1119 10.5761L20.7219 20.9621L12.2619 21.2951L9.25593 18.8921L9.27393 27.0551Z" fill="#bd8b13"/>
</svg>
