<svg width="23" height="17" viewBox="0 0 23 17" fill="none" xmlns="http://www.w3.org/2000/svg">
<path d="M18.2773 10.9397V2.9397C18.2773 1.8397 17.3773 0.939697 16.2773 0.939697H2.27734C1.17734 0.939697 0.277344 1.8397 0.277344 2.9397V10.9397C0.277344 12.0397 1.17734 12.9397 2.27734 12.9397H16.2773C17.3773 12.9397 18.2773 12.0397 18.2773 10.9397ZM9.27734 9.9397C7.61734 9.9397 6.27734 8.5997 6.27734 6.9397C6.27734 5.2797 7.61734 3.9397 9.27734 3.9397C10.9373 3.9397 12.2773 5.2797 12.2773 6.9397C12.2773 8.5997 10.9373 9.9397 9.27734 9.9397ZM22.2773 3.9397V14.9397C22.2773 16.0397 21.3773 16.9397 20.2773 16.9397H3.27734V14.9397H20.2773V3.9397H22.2773Z" fill="#4E4C4A"/>
</svg>
