<?xml version="1.0" encoding="UTF-8"?>
<svg width="48px" height="48px" viewBox="-11 -11 70 70" version="1.1" xmlns="http://www.w3.org/2000/svg" xmlns:xlink="http://www.w3.org/1999/xlink">
    <!-- Generator: Sketch 62 (91390) - https://sketch.com -->
    <title>Atom/ Icon/ Rich icon/ Loyalty / Raffles</title>
    <desc>Created with Sketch.</desc>
    <g id="Atom/-Icon/-Rich-icon/-Loyalty-/-Raffles" stroke="none" stroke-width="1" fill="none" fill-rule="evenodd">
        <g id="LOYAL_Raffles">
            <rect id="Rectangle" x="0" y="0" width="48" height="48"></rect>
            <g id="Group">
                <polygon id="Path" fill="#BD8B13" fill-rule="nonzero" points="-5.81756865e-13 25.6513052 1.92 33.4835682 7.66909091 23.6904541"></polygon>
                <polygon id="Path" points="3.33818182 31.010222 3.33818182 31.010222 3.33818182 30.9322336"></polygon>
                <path d="M41.2690909,19.6796224 C41.1980499,19.4173031 41.0298056,19.1935323 40.8,19.0557152 C40.5705675,18.9149666 40.2952074,18.8747925 40.0363636,18.9443032 C39.298564,19.1394099 38.5152755,19.0314161 37.8545455,18.6434909 C37.1801404,18.2465593 36.6862262,17.5940121 36.48,16.8274754 C36.4133969,16.5621438 36.2455775,16.3350756 36.0139818,16.1969293 C35.7823862,16.0587831 35.5062839,16.0210528 35.2472727,16.0921562 L10.5054545,22.8548642 L9.41454545,24.748868 L9.04363636,25.3839164 L34.8654545,18.3203961 C35.2974003,19.2045962 35.9771382,19.9375788 36.8181818,20.4260827 C37.6542132,20.92018 38.6139301,21.1526234 39.5781818,21.0945547 L42.6872727,32.9599319 C40.9270707,33.871853 39.8612587,35.7603156 39.9709091,37.7729299 L11.1709091,45.6497578 C10.3302329,43.9380762 8.61685846,42.8562853 6.74181818,42.8533168 L6.45818182,42.8533168 L4.08,33.806663 L3.64363636,34.530841 L2.64,36.2577268 L4.74545455,44.2905315 C4.8144322,44.5538066 4.98323601,44.7781868 5.21455561,44.9140778 C5.4458752,45.0499688 5.72066251,45.0861806 5.97818182,45.0147094 C6.74315114,44.7959894 7.56233451,44.9045882 8.24727273,45.3155218 C8.91230851,45.7183026 9.39164568,46.3763671 9.57818182,47.1426785 C9.65506476,47.4019793 9.82183078,47.6237839 10.0472727,47.7665856 C10.2003793,47.8547978 10.3733017,47.9008678 10.5490909,47.90028 C10.6360472,47.9110144 10.7239528,47.9110144 10.8109091,47.90028 L41.3563636,39.5443806 C41.6216118,39.474518 41.8473736,39.2969668 41.9812781,39.0529143 C42.1151826,38.8088619 42.1455929,38.5195174 42.0654545,38.2520015 C41.8625149,37.4821999 41.9682556,36.6615447 42.3592865,35.9715671 C42.7503174,35.2815895 43.3944106,34.7791558 44.1490909,34.5754058 C44.6820863,34.423475 44.9975573,33.863372 44.8581818,33.3164502 L41.2690909,19.6796224 Z" id="Path" fill="#4E4C4A" fill-rule="nonzero"></path>
                <path d="M47.5318539,14.2427172 L40.6154903,1.98739802 C40.4842477,1.74939292 40.2636106,1.57637055 40.0045812,1.50832645 C39.7465629,1.44585499 39.4750978,1.48150025 39.2409448,1.60859725 C38.5809881,1.9988378 37.7967817,2.10695817 37.0591266,1.90940963 C36.3031185,1.71091214 35.6578397,1.20861933 35.2700357,0.516759724 C35.1368916,0.280446712 34.9170464,0.108045266 34.6591266,0.0376881569 C34.4018301,-0.0364615079 34.1260523,-0.000249957867 33.8954903,0.13795895 L6.50276299,16.2926978 C6.27217406,16.429607 6.10365208,16.6537471 6.03367208,16.916605 C5.96597223,17.1797224 6.00118401,17.4594188 6.1318539,17.6964889 C6.54717956,18.4292331 6.64217275,19.3064043 6.39367208,20.1141292 L6.08821753,21.0945547 L8.27003571,20.7380363 C8.58672326,19.72334 8.58672326,18.6331968 8.27003571,17.6185005 L34.0700357,2.39962239 C34.713491,3.13735804 35.5560313,3.6644908 36.4918539,3.91482549 C37.423652,4.17925295 38.411701,4.15208564 39.3282175,3.83683709 L45.3391266,14.4655412 C44.6149389,15.1256842 44.0986398,15.9902751 43.8554903,16.9500286 C43.5046905,18.2427698 43.6818043,19.6255138 44.3463994,20.7826011 L44.8482175,21.6738971 L46.5936721,20.6489067 L46.0918539,19.7576108 C45.7050932,19.0852449 45.5989679,18.2824061 45.7973084,17.5293709 C45.9916706,16.7572776 46.4834989,16.0982694 47.1609448,15.7022143 C47.3863868,15.5594126 47.5531528,15.337608 47.6300357,15.0783071 C47.7188824,14.7985506 47.6829876,14.4930633 47.5318539,14.2427172 Z" id="Path" fill="#4E4C4A" fill-rule="nonzero"></path>
            </g>
        </g>
    </g>
</svg>