<svg width="50" height="200" viewBox="0 0 50 200" fill="none" xmlns="http://www.w3.org/2000/svg">
<path opacity="0.8" d="M0 8C0 3.58173 3.58172 0 8 0H50V200H8C3.58172 200 0 196.418 0 192V8Z" fill="#bd8b13"/>
<path d="M31 148.992L27.432 151.488L27.432 152.688L31 152.688L31 154.8L20.12 154.8L20.12 151.312C20.12 150.032 20.4133 149.056 21 148.384C21.576 147.712 22.44 147.376 23.592 147.376C24.4347 147.376 25.1707 147.568 25.8 147.952C26.4187 148.336 26.8667 148.88 27.144 149.584L31 146.624L31 148.992ZM25.944 152.688L25.944 151.312C25.944 150.117 25.2293 149.52 23.8 149.52C23.1493 149.52 22.6533 149.659 22.312 149.936C21.9707 150.213 21.8 150.677 21.8 151.328L21.8 152.688L25.944 152.688ZM31.256 141.585C31.256 142.971 30.8667 144.065 30.088 144.865C29.3093 145.654 28.1413 146.049 26.584 146.049C25.0907 146.049 23.9387 145.643 23.128 144.833C22.3173 144.011 21.912 143.046 21.912 141.937C21.912 140.806 22.232 139.873 22.872 139.137C23.512 138.401 24.584 138.033 26.088 138.033L27.256 138.033L27.256 143.921C27.928 143.867 28.4773 143.633 28.904 143.217C29.32 142.79 29.528 142.182 29.528 141.393C29.528 140.07 29.176 139.089 28.472 138.449L30.36 138.449C30.9573 139.11 31.256 140.155 31.256 141.585ZM25.816 143.905L25.816 140.065L25.736 140.065C25.0533 140.065 24.5307 140.225 24.168 140.545C23.7947 140.865 23.608 141.334 23.608 141.953C23.608 142.518 23.8267 142.977 24.264 143.329C24.7013 143.67 25.2187 143.862 25.816 143.905ZM31.256 132.605C31.256 133.906 30.8667 134.941 30.088 135.709C29.2987 136.466 28.1307 136.845 26.584 136.845C25.0693 136.845 23.912 136.434 23.112 135.613C22.312 134.792 21.912 133.773 21.912 132.557C21.912 131.992 21.976 131.485 22.104 131.037C22.232 130.589 22.3867 130.258 22.568 130.045L24.6 130.045C23.992 130.6 23.688 131.384 23.688 132.397C23.688 133.122 23.944 133.693 24.456 134.109C24.968 134.514 25.6773 134.717 26.584 134.717C27.4907 134.717 28.2 134.514 28.712 134.109C29.224 133.693 29.48 133.122 29.48 132.397C29.48 131.448 29.1493 130.642 28.488 129.981L30.376 129.981C30.6 130.216 30.8027 130.573 30.984 131.053C31.1653 131.522 31.256 132.04 31.256 132.605ZM31.256 124.592C31.256 125.861 30.8667 126.869 30.088 127.616C29.2987 128.362 28.1307 128.736 26.584 128.736C25.0693 128.736 23.912 128.325 23.112 127.504C22.312 126.672 21.912 125.637 21.912 124.4C21.912 123.13 22.3067 122.128 23.096 121.392C23.8853 120.645 25.048 120.272 26.584 120.272C28.0987 120.272 29.256 120.688 30.056 121.52C30.856 122.341 31.256 123.365 31.256 124.592ZM29.56 124.496C29.56 123.792 29.2933 123.264 28.76 122.912C28.2267 122.549 27.5013 122.368 26.584 122.368C25.6773 122.368 24.9573 122.549 24.424 122.912C23.88 123.264 23.608 123.792 23.608 124.496C23.608 125.189 23.88 125.717 24.424 126.08C24.9573 126.432 25.6773 126.608 26.584 126.608C27.5013 126.608 28.2267 126.432 28.76 126.08C29.2933 125.717 29.56 125.189 29.56 124.496ZM31 118.568L22.168 118.568L22.168 116.6L22.952 116.504C22.6533 116.323 22.408 116.046 22.216 115.672C22.0133 115.299 21.912 114.872 21.912 114.392C21.912 113.144 22.344 112.286 23.208 111.816C22.344 111.24 21.912 110.382 21.912 109.24C21.912 108.184 22.2053 107.416 22.792 106.936C23.3787 106.456 24.28 106.216 25.496 106.216L31 106.216L31 108.28L25.896 108.28C25.0427 108.28 24.4347 108.392 24.072 108.616C23.6987 108.84 23.512 109.214 23.512 109.736C23.512 110.12 23.6027 110.467 23.784 110.776C23.9547 111.086 24.1627 111.31 24.408 111.448C24.696 111.395 25.0587 111.368 25.496 111.368L31 111.368L31 113.432L25.896 113.432C25.0427 113.432 24.4347 113.544 24.072 113.768C23.6987 113.992 23.512 114.366 23.512 114.888C23.512 115.272 23.5973 115.608 23.768 115.896C23.9387 116.174 24.152 116.376 24.408 116.504L31 116.504L31 118.568ZM31 104.115L22.168 104.115L22.168 102.147L22.952 102.051C22.6533 101.87 22.408 101.592 22.216 101.219C22.0133 100.846 21.912 100.419 21.912 99.9391C21.912 98.6911 22.344 97.8325 23.208 97.3631C22.344 96.7871 21.912 95.9285 21.912 94.7871C21.912 93.7311 22.2053 92.9631 22.792 92.4831C23.3787 92.0031 24.28 91.7631 25.496 91.7631L31 91.7631L31 93.8271L25.896 93.8271C25.0427 93.8271 24.4347 93.9391 24.072 94.1631C23.6987 94.3871 23.512 94.7605 23.512 95.2831C23.512 95.6671 23.6027 96.0138 23.784 96.3231C23.9547 96.6325 24.1627 96.8565 24.408 96.9951C24.696 96.9418 25.0587 96.9151 25.496 96.9151L31 96.9151L31 98.9791L25.896 98.9791C25.0427 98.9791 24.4347 99.0911 24.072 99.3151C23.6987 99.5391 23.512 99.9125 23.512 100.435C23.512 100.819 23.5973 101.155 23.768 101.443C23.9387 101.72 24.152 101.923 24.408 102.051L31 102.051L31 104.115ZM31.256 85.694C31.256 87.0807 30.8667 88.174 30.088 88.974C29.3093 89.7633 28.1413 90.158 26.584 90.158C25.0907 90.158 23.9387 89.7527 23.128 88.942C22.3173 88.1207 21.912 87.1553 21.912 86.046C21.912 84.9153 22.232 83.982 22.872 83.246C23.512 82.51 24.584 82.142 26.088 82.142L27.256 82.142L27.256 88.03C27.928 87.9767 28.4773 87.742 28.904 87.326C29.32 86.8993 29.528 86.2913 29.528 85.502C29.528 84.1793 29.176 83.198 28.472 82.558L30.36 82.558C30.9573 83.2193 31.256 84.2647 31.256 85.694ZM25.816 88.014L25.816 84.174L25.736 84.174C25.0533 84.174 24.5307 84.334 24.168 84.654C23.7947 84.974 23.608 85.4433 23.608 86.062C23.608 86.6273 23.8267 87.086 24.264 87.438C24.7013 87.7793 25.2187 87.9713 25.816 88.014ZM31 80.4745L22.168 80.4745L22.168 78.5545L22.952 78.4105C22.6533 78.2292 22.408 77.9412 22.216 77.5465C22.0133 77.1518 21.912 76.6825 21.912 76.1385C21.912 75.0078 22.2053 74.1972 22.792 73.7065C23.3787 73.2052 24.28 72.9545 25.496 72.9545L31 72.9545L31 75.0185L25.896 75.0185C25.032 75.0185 24.4187 75.1412 24.056 75.3865C23.6933 75.6212 23.512 76.0372 23.512 76.6345C23.512 77.4558 23.8107 78.0478 24.408 78.4105L31 78.4105L31 80.4745ZM31.256 67.7451C31.256 68.8118 30.8827 69.6758 30.136 70.3371C29.3787 70.9985 28.2427 71.3291 26.728 71.3291C25.1707 71.3291 23.9813 70.9718 23.16 70.2571C22.328 69.5425 21.912 68.5931 21.912 67.4091C21.912 66.4918 22.104 65.8571 22.488 65.5051L18.952 65.5051L18.952 63.4411L31 63.4411L31 65.3611L30.216 65.5051C30.9093 65.8891 31.256 66.6358 31.256 67.7451ZM28.76 65.5051L24.2 65.5051C23.7627 65.8358 23.544 66.3958 23.544 67.1851C23.544 67.8678 23.8373 68.3798 24.424 68.7211C25.0107 69.0518 25.7733 69.2171 26.712 69.2171C28.6213 69.2171 29.576 68.5665 29.576 67.2651C29.576 66.4011 29.304 65.8145 28.76 65.5051ZM31.256 57.3034C31.256 58.69 30.8667 59.7834 30.088 60.5834C29.3093 61.3727 28.1413 61.7674 26.584 61.7674C25.0907 61.7674 23.9387 61.362 23.128 60.5514C22.3173 59.73 21.912 58.7647 21.912 57.6554C21.912 56.5247 22.232 55.5914 22.872 54.8554C23.512 54.1194 24.584 53.7514 26.088 53.7514L27.256 53.7514L27.256 59.6394C27.928 59.586 28.4773 59.3514 28.904 58.9354C29.32 58.5087 29.528 57.9007 29.528 57.1114C29.528 55.7887 29.176 54.8074 28.472 54.1674L30.36 54.1674C30.9573 54.8287 31.256 55.874 31.256 57.3034ZM25.816 59.6234L25.816 55.7834L25.736 55.7834C25.0533 55.7834 24.5307 55.9434 24.168 56.2634C23.7947 56.5834 23.608 57.0527 23.608 57.6714C23.608 58.2367 23.8267 58.6954 24.264 59.0474C24.7013 59.3887 25.2187 59.5807 25.816 59.6234ZM31.256 48.9639C31.256 50.0305 30.8827 50.8945 30.136 51.5559C29.3787 52.2172 28.2427 52.5479 26.728 52.5479C25.1707 52.5479 23.9813 52.1905 23.16 51.4759C22.328 50.7612 21.912 49.8119 21.912 48.6279C21.912 47.7105 22.104 47.0759 22.488 46.7239L18.952 46.7239L18.952 44.6599L31 44.6599L31 46.5799L30.216 46.7239C30.9093 47.1079 31.256 47.8545 31.256 48.9639ZM28.76 46.7239L24.2 46.7239C23.7627 47.0545 23.544 47.6145 23.544 48.4039C23.544 49.0865 23.8373 49.5985 24.424 49.9399C25.0107 50.2705 25.7733 50.4359 26.712 50.4359C28.6213 50.4359 29.576 49.7852 29.576 48.4839C29.576 47.6199 29.304 47.0332 28.76 46.7239Z" fill="white"/>
</svg>
