<svg width="28" height="27" viewBox="0 0 28 27" fill="none" xmlns="http://www.w3.org/2000/svg">
<g clip-path="url(#clip0)">
<path d="M26.9271 18.9281C25.8543 18.0468 24.5367 17.5162 23.1525 17.408L22.598 17.321L22.423 18.4291L22.977 18.5161C23.9257 18.6386 24.843 18.9379 25.6814 19.3984C24.3654 20.7365 20.1593 24.4123 15.6606 22.3031C22.2972 21.161 24.1699 10.8162 24.2531 10.3372C24.2952 10.0923 24.1713 9.84889 23.9485 9.7389C23.7865 9.6579 22.2437 8.99586 18.9384 10.7649L18.4432 11.029L18.9719 12.0188L19.4665 11.7542C20.5383 11.0805 21.7724 10.7093 23.0381 10.6801C22.5877 12.6927 20.6734 19.778 15.9457 21.0784C17.0152 20.0868 17.7339 18.775 17.9939 17.3399C18.9492 12.1878 14.4229 6.2748 14.2296 6.02586C14.1195 5.89522 13.9574 5.81982 13.7865 5.81982C13.6157 5.81982 13.4535 5.89522 13.3434 6.02586C13.1501 6.2748 8.62331 12.1878 9.57911 17.3399C9.83897 18.7776 10.5592 20.0917 11.6311 21.0843C6.89801 19.7948 4.98533 12.6949 4.53389 10.6796C5.79903 10.7088 7.0328 11.0791 8.10491 11.7515L8.59955 12.0161L9.12821 11.0263L8.63303 10.7622C5.32769 8.99586 3.78707 9.6579 3.62291 9.7362C3.39988 9.84625 3.27592 10.09 3.31835 10.3351C3.40097 10.8135 5.27315 21.1572 11.9124 22.3009C7.41155 24.4069 3.20603 20.7349 1.88951 19.3963C2.72767 18.9359 3.64482 18.6369 4.59329 18.515L5.14733 18.428L4.97237 17.32L4.41779 17.408C3.03393 17.5162 1.7167 18.0468 0.644267 18.9281C0.442713 19.1365 0.432887 19.464 0.621587 19.6841C0.688007 19.757 7.19015 27.2128 13.7857 22.5191C15.1245 23.5151 16.746 24.0582 18.4146 24.0694C23.1218 24.0694 26.8985 19.7413 26.9466 19.6825C27.1352 19.4635 27.1268 19.1371 26.9271 18.9281ZM10.6818 17.1347C9.98411 13.3807 12.6906 8.94078 13.7862 7.33104C14.8835 8.93862 17.5873 13.3731 16.8902 17.132C16.5514 18.8723 15.4574 20.3724 13.904 21.2269C13.8708 21.2448 13.8337 21.2545 13.796 21.2549H13.7835H13.7711C13.7342 21.2546 13.698 21.2449 13.6658 21.2269C12.113 20.3729 11.0192 18.874 10.6796 17.1347H10.6818Z" fill="#4E4C4A"/>
<path d="M13.7258 23.7535L10.5527 26.9266H16.8983L13.7258 23.7535Z" fill="#BD8B13"/>
</g>
<defs>
<clipPath id="clip0">
<rect width="27" height="27" fill="white" transform="translate(0.261719)"/>
</clipPath>
</defs>
</svg>
