<svg width="92" height="16" viewBox="0 0 92 16" fill="none" xmlns="http://www.w3.org/2000/svg">
<path d="M9.6226 6.66536L8.0026 1.33203L6.3826 6.66536H1.33594L5.45594 9.60536L3.88927 14.6654L8.0026 11.5387L12.1226 14.6654L10.5559 9.60536L14.6693 6.66536H9.6226Z" fill="#FFC72C"/>
<path d="M28.6226 6.66536L27.0026 1.33203L25.3826 6.66536H20.3359L24.4559 9.60536L22.8893 14.6654L27.0026 11.5387L31.1226 14.6654L29.5559 9.60536L33.6693 6.66536H28.6226Z" fill="#FFC72C"/>
<path d="M47.6226 6.66536L46.0026 1.33203L44.3826 6.66536H39.3359L43.4559 9.60536L41.8893 14.6654L46.0026 11.5387L50.1226 14.6654L48.5559 9.60536L52.6693 6.66536H47.6226Z" fill="#FFC72C"/>
<path d="M66.6226 6.66536L65.0026 1.33203L63.3826 6.66536H58.3359L62.4559 9.60536L60.8893 14.6654L65.0026 11.5387L69.1226 14.6654L67.5559 9.60536L71.6693 6.66536H66.6226Z" fill="#FFC72C"/>
<path d="M85.6226 6.66536L84.0026 1.33203L82.3826 6.66536H77.3359L81.4559 9.60536L79.8893 14.6654L84.0026 11.5387L88.1226 14.6654L86.5559 9.60536L90.6693 6.66536H85.6226Z" fill="#FFC72C"/>
</svg>
