<?xml version="1.0" encoding="UTF-8"?>
<svg width="48px" height="48px" viewBox="0 0 48 48" version="1.1" xmlns="http://www.w3.org/2000/svg" xmlns:xlink="http://www.w3.org/1999/xlink">
    <!-- Generator: Sketch 62 (91390) - https://sketch.com -->
    <title>Atom/ Icon/ Rich icon/ Ancilliaries/ bid for upgrade</title>
    <desc>Created with Sketch.</desc>
    <g id="Atom/-Icon/-Rich-icon/-Ancilliaries/-bid-for-upgrade" stroke="none" stroke-width="1" fill="none" fill-rule="evenodd">
        <g id="ANCI_bid-for-upgrade">
            <rect id="Rectangle" x="0" y="0" width="48" height="48"></rect>
            <g id="Group" fill-rule="nonzero">
                <path d="M7.06723404,10.7750776 C7.835061,11.5108556 8.83428328,11.9434513 9.88595745,11.9953947 C10.1628841,11.9954984 10.4382694,11.9533118 10.7029787,11.8702338 C11.9670944,11.400448 12.912561,10.3092608 13.2153191,8.9706774 C13.602649,7.75281949 13.6486375,6.44858249 13.3480851,5.20542615 C12.8635009,3.47374506 11.4032825,2.2121008 9.65082571,2.01095471 C7.89836896,1.80980862 6.20036254,2.70895344 5.35148936,4.28758097 C4.78842296,5.31752817 4.65587255,6.53586378 4.98382979,7.66692004 C5.38135841,8.88088708 6.10292329,9.95736433 7.06723404,10.7750776 L7.06723404,10.7750776 Z M7.06723404,5.20542615 C7.37545368,4.64400862 7.88998454,4.23113279 8.49702128,4.05811968 C8.72157598,3.98572091 8.95603286,3.95050836 9.19148936,3.95381909 C10.254367,3.96229014 11.1851849,4.68374477 11.4791489,5.7269291 C11.8774468,7.19756739 11.2340426,9.62777111 10.212766,9.95110293 C9.19148936,10.2744348 7.28170213,8.54304498 6.86297872,7.08283675 C6.68501903,6.45409461 6.75847361,5.77893764 7.06723404,5.20542615 Z" id="Shape" fill="#4E4C4A"></path>
                <path d="M28.6468085,29.7995049 C27.7172116,28.6538748 26.3351759,27.9921425 24.8782979,27.9951047 L21.5182979,27.9951047 L20.7625532,26.0029635 L24.7659574,26.0029635 C25.2017021,25.8731672 25.5012766,25.465236 25.5012766,25.0016779 C25.5012766,24.5381197 25.2017021,24.1301885 24.7659574,24.0003922 L20.0068085,24.0003922 L17.0451064,16.1987082 C16.2282342,13.7377718 13.7066011,12.3211388 11.2340426,12.9340998 L9.00765957,13.5494732 C8.21630641,13.7448888 7.54181081,14.2709859 7.14893617,14.9992514 C6.75775193,15.7602547 6.70204954,16.6552854 6.99574468,17.4607453 L9.58978723,23.9795321 L8.76255319,23.9795321 L1.82808511,5.70606898 L0,6.4361731 L11.9591489,37.9453809 L8.23148936,46.5918997 C8.12920676,46.8987893 8.17246436,47.2368029 8.34854093,47.5065373 C8.52461751,47.7762716 8.81349232,47.9470565 9.13021277,47.9686674 L26.9719149,47.9686674 L26.9719149,45.9973863 L10.6314894,45.9973863 L13.6953191,38.9675267 L23.826383,38.9675267 L23.826383,36.9649554 L13.6851064,36.9649554 L9.51829787,26.0029635 L10.386383,26.0029635 L13.5829787,34.0236788 C14.0067667,35.2060257 15.1075849,35.9929937 16.3404255,35.9949599 L24.3268085,35.9949599 L31.8944681,44.5788983 C32.7820979,45.5920829 34.0363725,46.1911206 35.3668085,46.2372777 L35.5404255,46.2372777 C36.8089864,46.2413952 38.0290847,45.7399785 38.9412766,44.8396498 L40.0646809,43.7236335 C40.4155083,43.3266455 40.4155083,42.7229936 40.0646809,42.3260056 L28.6468085,29.7995049 Z M37.5829787,43.3585814 C37.0096902,43.9249362 36.2357623,44.2292241 35.4386016,44.2016934 C34.6414409,44.1741627 33.8894091,43.8171744 33.3548936,43.2125606 L25.5319149,34.3261505 C25.3425709,34.1232486 25.0812319,34.0067151 24.8068085,34.0028186 L16.3404255,34.0028186 C15.9191049,33.9881007 15.5499346,33.7105109 15.4110638,33.3040047 L12.4902128,26.0029635 L13.0110638,26.0029635 C13.4468085,25.8731672 13.746383,25.465236 13.746383,25.0016779 C13.746383,24.5381197 13.4468085,24.1301885 13.0110638,24.0003922 L11.693617,24.0003922 L8.80340426,16.699351 C8.70709595,16.43652 8.72568611,16.1441403 8.85446809,15.8962365 C8.98070006,15.6402861 9.2134117,15.456289 9.48765957,15.3955936 L9.48765957,15.3955936 L11.693617,14.8323705 C11.9236067,14.7703977 12.1604378,14.7388494 12.3982979,14.7384999 C13.6762597,14.7448088 14.8071812,15.584797 15.2068085,16.8245117 L17.9029787,23.9795321 L17.1268085,23.9795321 L13.8485106,18.462031 C13.5131882,18.1487516 13.0155102,18.0994562 12.6274897,18.3410881 C12.2394693,18.5827199 12.0544745,19.0571358 12.173617,19.5050368 L15.7378723,25.5127507 C15.9214079,25.8050848 16.2353695,25.9849569 16.5753191,25.9925334 L18.6178723,25.9925334 L19.8944681,29.3510124 C20.0498165,29.7261495 20.4047749,29.9746119 20.8034043,29.987246 L24.8374468,29.987246 C25.7305257,29.9896976 26.5748364,30.4035895 27.1353191,31.1136923 L38.0119149,42.9622392 L37.5829787,43.3585814 Z" id="Shape" fill="#4E4C4A"></path>
                <polygon id="Path" fill="#BD8B13" points="36.0533333 18 30.4 23.6481036 41.7066667 23.6481036"></polygon>
                <path d="M47.712,12.3208126 L36.7893333,0.289286205 C36.37872,-0.0964287349 35.7386133,-0.0964287349 35.328,0.289286205 L24.3946667,12.3208126 C24.1271064,12.6110665 24.0573785,13.0322407 24.2171414,13.3931097 C24.3769043,13.7539787 24.7357166,13.9857817 25.1306667,13.9832733 L30.1013333,13.9832733 L30.1013333,20.9741336 C30.102599,21.1226585 30.139158,21.268759 30.208,21.4004055 L32.0853333,19.5141521 L32.0853333,12.9921909 C32.0853644,12.4430808 31.6429208,11.9962934 31.0933333,11.9904518 L27.3813333,11.9904518 L36.0533333,2.39933246 L44.736,11.9904518 L41.024,11.9904518 C40.4744126,11.9962934 40.0319689,12.4430808 40.032,12.9921909 L40.032,19.4715249 L41.9306667,21.3790919 C41.9853237,21.2509734 42.0143147,21.1133937 42.016,20.9741336 L42.016,13.9832733 L46.9866667,13.9832733 C47.3796811,13.9815435 47.7346146,13.7481675 47.891659,13.3882226 C48.0487033,13.0282776 47.978242,12.6096447 47.712,12.3208126 L47.712,12.3208126 Z" id="Path" fill="#4E4C4A"></path>
            </g>
        </g>
    </g>
</svg>