<svg width="60" height="26" viewBox="35 0 60 26" fill="#BD8B13" xmlns="http://www.w3.org/2000/svg">
  <path d="M72.6066 4.28272L72.4853 4.16035L70.9068 2.56964L69.207 4.28272L70.9068 5.99579L72.6066 4.28272Z"/>
  <path d="M76.1273 4.28272L75.8844 4.16035L74.306 2.56964L72.6062 4.28272L74.306 5.99579L76.1273 4.28272Z"/>
  <path d="M52.5728 3.91561C52.5728 4.2827 52.937 4.40506 53.1798 4.52743C53.5441 4.64979 53.9083 4.89451 53.9083 5.38396V18.7215H68.5996V18.9663C68.5996 19.0886 68.5996 19.0886 68.5996 19.3334C68.5996 20.4346 68.9638 21.1688 69.5709 21.4135C69.5709 21.4135 69.9352 21.6582 70.4208 21.6582C70.7851 21.6582 71.1493 21.5359 71.5135 21.2912L71.7564 21.1688L71.5135 20.9241C71.1493 20.557 70.9065 19.5781 70.9065 18.9663V18.8439H76.3701V6.60759C76.3701 6.60759 75.6417 8.19832 72.9705 10.1561C72.9705 10.1561 73.0919 10.6456 73.5776 10.8903C74.3061 11.2574 74.1847 11.6245 74.1847 11.6245V16.519H70.7851V16.2743V16.0296C70.7851 14.8059 70.4208 11.8692 67.1426 11.8692H67.0212C66.0499 11.8692 65.0786 11.8692 64.3501 11.8692H64.1072C62.1646 11.8692 61.1932 11.6245 60.829 11.135L60.7076 10.8903L60.5861 11.0127C60.2219 11.2574 59.9791 11.7468 59.9791 12.2363C59.9791 12.9705 60.4647 13.9494 61.1932 13.9494C61.6789 13.9494 62.4074 13.9494 63.1359 13.9494C64.3501 13.9494 65.6856 13.9494 65.6856 13.9494C68.3567 13.9494 68.4781 15.173 68.4781 15.6625V16.2743H56.0938V0C56.0938 0 54.6368 1.95781 52.5728 3.42617V3.54852V3.91561Z"/>
  <path d="M44.0738 20.6793C44.0738 20.6793 43.831 22.6371 47.8377 22.6371C51.1159 22.6371 51.2373 20.557 51.2373 20.557V12.9705C51.2373 12.481 51.1159 11.135 49.7804 11.135H38.3673V10.2785C38.3673 10.0337 38.4887 10.0338 38.7316 9.9114C39.3386 9.54431 39.4601 9.17722 39.3386 8.93249C38.0031 8.19831 36.6675 6.48523 36.6675 6.48523V13.0928H48.0805H48.2019C48.5662 13.0928 49.0519 13.2152 49.0519 13.9494V19.3333C49.0519 19.3333 49.0519 20.4346 47.9591 20.4346C46.1379 20.4346 46.2593 19.4557 46.2593 19.4557V16.519H36.6675V18.8439H44.1953V20.6793H44.0738Z"/>
  <path d="M91.7905 5.38393C91.7905 4.77212 92.1547 4.64976 92.3976 4.5274C92.6404 4.40503 92.8832 4.28268 93.0046 3.79323V3.67086C93.0046 3.42613 92.8832 3.42613 92.6404 3.30377C92.3976 3.1814 92.0334 2.93667 91.3049 2.32486C90.0907 1.34595 89.8479 0.856505 89.8479 0.856505L89.4836 0.24469V18.8439H91.7905C91.7905 18.7215 91.7905 5.75102 91.7905 5.38393Z"/>
  <path d="M84.0193 21.1688L82.4408 22.7595L80.8624 21.1688L82.4408 19.5781L84.0193 21.1688ZM78.7984 21.1688L82.5623 24.962L86.3261 21.1688L84.0193 18.8439L86.8118 15.9072V0.24469C86.8118 0.24469 85.7191 2.5696 83.8978 3.79323V3.91558C83.8978 4.28267 84.1407 4.40503 84.3835 4.5274C84.6263 4.64976 84.8691 4.89448 84.8691 5.38393C84.8691 5.87338 84.8691 14.8059 84.8691 14.8059L82.5623 17.2532L80.2554 14.8059C80.2554 14.6835 80.2554 5.75102 80.2554 5.38393C80.2554 4.77212 80.4982 4.64976 80.7411 4.5274C80.9839 4.40503 81.1053 4.28267 81.2267 3.91558V3.79323C79.5269 2.5696 78.3127 0.24469 78.3127 0.24469V16.1519L81.1053 18.9662L78.7984 21.1688Z"/>
</svg>
