<svg width="130" height="18" viewBox="0 28 130 18" fill="#BD8B13" xmlns="http://www.w3.org/2000/svg">
  <path d="M26.8328 42.2152H26.59H25.9829L25.2544 42.5823C25.133 42.7047 25.0116 42.7047 24.8902 42.7047H13.1129C10.4417 42.7047 8.37765 42.3376 7.04208 41.6034C4.97802 40.5022 4.00669 39.0338 4.00669 36.9536C4.00669 36.0971 4.24954 35.1182 4.85662 34.384C5.82794 32.9157 7.28491 31.8144 9.47039 31.4473C10.0775 31.3249 10.5631 31.3249 10.9274 31.3249H16.9982C17.3624 31.3249 17.3624 31.4473 17.3624 31.4473L17.241 31.9368H17.7266L20.2764 28.7553H12.9914C11.2916 28.7553 9.95607 28.7553 9.10616 28.8777C8.62049 28.8777 8.13483 29 7.77058 29.1224C6.55643 29.3671 5.46366 29.8566 4.37093 30.4684C2.54969 31.4473 1.33557 32.7933 0.607077 34.2616C0.242831 35.1182 0 36.0971 0 37.1983C0 39.8903 1.45699 41.9705 4.24954 43.5612C5.46369 44.2954 6.92068 44.7849 8.49908 45.0296C9.71323 45.2743 11.2916 45.2743 13.2343 45.2743H24.1617L26.8328 42.2152Z"/>
  <path d="M20.8832 38.2996L23.4329 35.1182H6.31333L4.61353 37.6878H20.0333C20.2761 37.6878 20.3975 37.8101 20.3975 37.8101L20.2761 38.2996H20.8832Z"/>
  <path d="M22.2186 28.8777L19.7903 31.9368L20.2759 32.0591H20.3974L21.1259 31.692C21.3687 31.5697 21.4901 31.4473 21.7329 31.4473H31.2033V44.2954V44.4178L31.0819 44.5401L30.5962 44.9072V45.3967H35.9385V44.9072L35.4529 44.5401L35.3314 44.4178V44.2954V31.4473H43.7091C44.0734 31.4473 44.0734 31.5697 44.0734 31.5697V32.0591H44.559L47.1088 28.8777H22.2186Z"/>
  <path d="M52.816 29.7342L53.3017 29.3671V28.8777H48.0808V29.3671L48.5665 29.7342L48.8093 29.9789V44.2954V44.5401L48.6879 44.6625L48.0808 44.9072V45.3967H53.3017V44.9072L52.816 44.6625L52.6946 44.5401V29.9789V29.8566L52.816 29.7342Z"/>
  <path d="M72.1209 29.3671L72.728 29.7342C72.8494 29.8566 72.8495 29.8566 72.8495 29.9789V34.8735H62.2863L59.858 37.9325V29.9789V29.8566L59.9794 29.7342L60.4651 29.3671V28.8777H55.1228V29.3671L55.6085 29.7342L55.7299 29.8566V44.4178V44.6625L55.6085 44.7849L55.1228 45.152V45.6414H60.4651V45.152L59.858 44.7849L59.7366 44.6625V38.0549L60.3437 38.1773L61.0722 37.8102L61.4364 37.6878C61.4364 37.6878 61.5578 37.6878 61.6792 37.6878H72.728V42.8271L76.7348 38.5444V30.1013L76.8562 29.9789L77.4632 29.7342V29.2448H72.1209V29.3671Z"/>
  <path d="M84.87 31.9367L72 45.3966H77.9494V44.7848H77.7065H77.4637H77.2208L87.0555 34.384L84.87 31.9367Z"/>
  <path d="M97.8606 44.9072V45.519H103.688L88.1473 29L85.8405 31.4473L88.3902 34.1392L91.0613 36.8312H86.5689L84.1406 39.4009L84.6263 39.7679L85.2334 39.4009H85.3548C85.3548 39.4009 85.5976 39.4009 85.719 39.4009H93.2468L98.4676 45.0296C98.4676 45.0296 98.3463 45.1519 97.982 45.1519H97.8606V44.9072Z"/>
  <path d="M129.186 35.3629C128.579 33.4051 127.122 31.8144 124.936 30.5907C122.994 29.4895 120.201 29 116.437 29H101.989V29.4895L102.596 29.8565V31.5696H116.316C119.109 31.5696 121.173 31.9367 122.387 32.6709C124.329 33.7722 125.301 35.3629 125.301 37.1983C125.301 38.1772 125.058 39.0338 124.572 39.8903C124.087 40.6245 123.237 41.3587 122.265 41.8481C120.93 42.5823 118.866 42.9494 116.195 42.9494H109.031V32.7933H105.146V44.4177V44.5401L105.024 44.6625L104.539 44.9072V45.3967H116.316C118.623 45.3967 120.323 45.2743 121.658 45.0296C123.358 44.6625 124.936 44.0507 126.151 43.1941C127.486 42.3376 128.458 41.2363 128.943 40.135C129.307 39.2785 129.55 38.422 129.55 37.4431C129.429 36.7089 129.307 35.9747 129.186 35.3629Z"/>
</svg>
