<?xml version="1.0" encoding="UTF-8"?>
<svg width="62px" height="27px" viewBox="-0.25 0 62 27" version="1.1" xmlns="http://www.w3.org/2000/svg" xmlns:xlink="http://www.w3.org/1999/xlink">
  <g id="Atom/-Wordmark/Arabic-wordmark" fill="#BD8B13">
    <polyline id="Fill-8" points="39.5211268 4.92762018 39.3389372 4.77221656 37.5354815 2.96408451 35.5690141 4.93498528 37.5354815 6.91619718 39.5211268 4.92762018"></polyline>
    <polyline id="Fill-9" points="42.4852113 4.9276295 42.3115164 4.77086972 40.5073071 2.96408451 38.5330986 4.937197 40.5073071 6.91619718 42.4852113 4.9276295"></polyline>
    <path d="M16.8055851,4.8762601 C16.8602226,5.28080802 17.1495212,5.43043533 17.4339164,5.57729176 C17.7715481,5.74908608 18.1659188,5.91464593 18.1659188,6.51315518 L18.1659188,20.6522434 L34.0549248,20.6522434 L34.0549248,20.946649 C34.0332099,21.0138427 34.0332099,21.1309122 34.0332099,21.3221027 C34.0332099,22.4519274 34.4296821,23.2187674 35.1455734,23.5069385 C35.1560807,23.5097094 35.5112244,23.7126761 36.0253773,23.7126761 C36.4092408,23.7126761 36.7966067,23.5928357 37.1559533,23.3573112 L37.4291409,23.1945222 L37.1713639,22.9887847 C36.711148,22.6445033 36.549337,21.62205 36.5598442,20.8448193 L36.5598442,20.6522434 L42.4852113,20.6522434 L42.4852113,7.66099062 C42.4852113,7.66099062 41.6859627,9.39348092 38.8371073,11.4383875 C38.8371073,11.4383875 38.9442808,11.9953336 39.4318155,12.2641086 C40.1743251,12.6707347 40.1189871,13.049652 40.1189871,13.049652 L40.1189871,18.2699826 L36.584361,18.2699826 L36.584361,17.7476725 C36.5752548,16.4266573 36.164773,13.362761 32.6028281,13.362761 L32.4235051,13.3731518 C31.3216488,13.402246 30.3598886,13.4264911 29.5235145,13.4264911 L29.3175732,13.4264911 C27.2105269,13.4264911 26.0981634,13.1992793 25.8284783,12.6949798 L25.7086961,12.4795442 L25.513262,12.6146244 C25.1209927,12.8633106 24.8954379,13.3315886 24.8954379,13.9030818 C24.9052446,14.7412719 25.3710644,15.6709008 26.222849,15.7332455 C26.7468086,15.7526416 27.5131346,15.7706523 28.2906683,15.7706523 C29.6622097,15.7706523 31.0344516,15.7464072 31.0344516,15.7464072 C33.9820748,15.7706523 34.0262051,16.9981505 34.0549248,17.5897325 L34.0549248,18.2699826 L20.5720704,18.2699826 L20.5720704,0.988028169 C20.5720704,0.988028169 18.981979,3.06964886 16.7964789,4.65666817 L16.7964789,4.74187261 L16.8055851,4.8762601" id="Fill-10"></path>
    <path d="M8.081743,21.6895594 C8.081743,21.6895594 7.81633501,23.7126761 12.1511007,23.7126761 C15.6826946,23.7126761 15.8021976,21.5715894 15.8021976,21.5526058 L15.8084507,13.6072624 C15.8084507,13.1516544 15.6806102,11.6770301 14.2382358,11.6553345 L1.9377563,11.6553345 L1.9377563,10.7922555 C1.9377563,10.595639 2.12673791,10.5197043 2.26986369,10.4363118 C2.98827172,9.99968737 3.10916437,9.61662406 2.88127478,9.47153459 C1.42569951,8.65998275 0,6.91619718 0,6.91619718 L0,13.8533721 L12.3220179,13.8533721 L12.4408262,13.8493042 C12.8319903,13.8533721 13.3391836,13.9543924 13.3516898,14.7245869 L13.3516898,20.280022 C13.3516898,20.3193453 13.3329306,21.4766711 12.1156667,21.4766711 C10.1688781,21.4766711 10.2994978,20.509182 10.2994978,20.509182 L10.2911604,17.3904364 L0,17.3904364 L0,19.761361 L8.081743,19.761361 L8.081743,21.6895594" id="Fill-11"></path>
    <path d="M59.88367,6.49343463 C59.9143348,5.89196291 60.2479974,5.72635031 60.5911515,5.55172948 C60.8963395,5.40413331 61.1949566,5.25307244 61.2504453,4.83453682 L61.2577465,4.63912781 C61.2577465,4.40907181 61.0803285,4.33769901 60.8510724,4.2434592 C60.6305777,4.14367588 60.1983496,3.89421756 59.4061748,3.25740591 C58.087587,2.16741166 57.7583051,1.66918796 57.7583051,1.66918796 L57.3056338,0.988028169 L57.3056338,20.7485915 L59.88367,20.7485915 C59.88367,20.7485915 59.8442438,6.94038078 59.88367,6.49343463" id="Fill-12"></path>
    <path d="M51.5343655,22.6007251 L49.9063216,24.2996582 L48.2551172,22.6007251 L49.9063216,20.9081103 L51.5343655,22.6007251 Z M45.9554199,22.6007251 L49.9063216,26.6767606 L53.8415559,22.6007251 L51.3947216,20.0768967 L54.3415493,16.8678788 L54.3415493,-5.5067062e-14 C54.3415493,-5.5067062e-14 53.2461959,2.57156699 51.3177471,3.85559538 L51.3204719,3.99740716 C51.3620245,4.38352833 51.5854548,4.53587068 51.8088851,4.68470284 C52.0718244,4.86723285 52.3190964,5.02519151 52.3436192,5.65140984 C52.3708668,6.12037155 52.3436192,15.8176292 52.3436192,15.8176292 L49.9063216,18.4362328 L47.4560813,15.8176292 C47.4560813,15.6624787 47.4206595,6.09439613 47.4560813,5.65140984 C47.4806042,5.02519151 47.7299197,4.85389412 47.9908155,4.68470284 C48.1978972,4.53587068 48.4308642,4.38352833 48.4710544,3.98266435 L48.4792286,3.79592211 C46.7319764,2.52523245 45.4492958,-5.5067062e-14 45.4492958,-5.5067062e-14 L45.4492958,17.0981474 L48.3927175,20.081109 L45.9554199,22.6007251 L45.9554199,22.6007251 Z" id="Fill-13"></path>
  </g>
</svg>
