<?xml version="1.0" encoding="UTF-8"?>
<svg width="139px" height="18px" viewBox="-0.25 0 139 18" version="1.1" xmlns="http://www.w3.org/2000/svg" xmlns:xlink="http://www.w3.org/1999/xlink">
  <g id="Atom/-Wordmark/English-wordmark" fill="#BD8B13">
    <path d="M77.3223068,0.515004859 L77.9136212,0.892487985 C78.0780288,0.995629285 78.0932261,1.06579344 78.0932261,1.12543296 L78.0932261,6.34704899 L66.7608507,6.34704899 L64.1980276,9.64827223 L64.1980276,1.14788549 L64.2159881,0.982999738 L64.3472378,0.892487985 L64.8812168,0.550788576 L64.9420061,0.522021274 L64.9420061,-7.28306304e-14 L59.2816901,-7.28306304e-14 L59.2816901,0.515004859 L59.8446823,0.881261721 L59.9634978,0.971773474 L59.9766228,0.971773474 L59.9766228,16.586805 L59.9524452,16.7951925 L59.8446823,16.8962289 L59.2816901,17.2842367 L59.2816901,17.784507 L64.9420061,17.784507 L64.9420061,17.2688005 L64.3472378,16.8920191 L64.2159881,16.8127336 L64.1980276,16.8176451 L64.1980276,9.64827223 L64.8031578,9.83561051 L65.5948007,9.38024518 L65.9464117,9.2097463 C65.9961485,9.19571347 66.0859509,9.17115602 66.2690097,9.17115602 L78.0711209,9.17115602 L78.0711209,14.6671139 L82.2959796,10.0699588 L82.2959796,0.971773474 L82.3754202,0.83846159 L82.9943662,0.52482784 L82.9943662,-7.28306304e-14 L77.3223068,-7.28306304e-14 L77.3223068,0.515004859" id="Fill-14"></path>
    <path d="M138.004962,6.97305203 C137.340476,4.84216359 135.801408,3.09679773 133.444993,1.77480576 C131.314728,0.580386719 128.303599,-7.28306304e-14 124.233619,-7.28306304e-14 L108.683099,-7.28306304e-14 L108.683099,0.510291705 L109.353169,0.946983644 L109.355961,0.944179843 L109.355961,2.79679107 L124.206397,2.79679107 C127.208452,2.79679107 129.400839,3.1970336 130.743074,3.97999492 C132.864964,5.22418142 133.900083,6.8440772 133.902875,8.91328203 C133.902875,9.95419299 133.619491,10.9067842 133.075059,11.7507282 C132.53272,12.5813541 131.69583,13.300529 130.592308,13.8633919 C129.169106,14.6141095 126.967646,14.9919217 124.082155,14.9919217 L116.340049,14.9919217 L116.340049,4.06971653 L112.101156,4.06971653 L112.11023,16.6118175 L112.078122,16.7961673 L111.967142,16.9104222 L111.445743,17.237065 L111.40526,17.2728134 L111.40526,17.784507 L124.096813,17.784507 C126.54257,17.784507 128.45925,17.6429151 129.808465,17.3674417 C131.651857,16.9819191 133.293529,16.3076051 134.666476,15.3648271 C136.079906,14.4122359 137.096877,13.313847 137.669229,12.0850814 C138.108963,11.19137 138.323944,10.1995255 138.323944,9.14599747 C138.323944,8.39107417 138.219943,7.65998317 138.004962,6.97305203" id="Fill-15"></path>
    <polyline id="Fill-16" points="90.4806416 3.95211268 77.0661972 17.784507 83.2450004 17.784507 83.2450004 17.2075989 83.0339043 17.2075989 82.73932 17.1774469 82.5139698 17.1151328 92.8746479 6.46946908 90.4806416 3.95211268"></polyline>
    <path d="M104.41907,17.1778429 L104.41907,17.784507 L110.659155,17.784507 L94.1175088,-7.28306304e-14 L91.7042276,2.57096706 L94.3803142,5.47258711 L97.1565825,8.31886482 L92.4706862,8.31886482 L89.9105634,11.0600621 L90.4581319,11.4474585 L91.0702009,11.1133029 L91.2390002,11.0600621 C91.2781123,11.0474525 91.4345604,11.0474525 91.6754082,11.0474525 L99.6741625,11.0474525 L105.195821,17.0741636 C105.195821,17.0741636 105.107304,17.1778429 104.630412,17.1778429 L104.41907,17.1778429" id="Fill-17"></path>
    <polyline id="Fill-18" points="56.7677047 0.869589461 57.3056338 0.520351113 57.3056338 -7.28306304e-14 51.3774648 -7.28306304e-14 51.3774648 0.520351113 51.9767047 0.879407407 52.181074 1.12345348 52.187643 16.5726921 52.1460393 16.769051 51.9840036 16.886165 51.3774648 17.2599482 51.3774648 17.784507 57.3056338 17.784507 57.3056338 17.2704675 56.7574862 16.8980868 56.625376 16.8132317 56.6107782 16.818842 56.6107782 1.15220604 56.6334048 0.981093271 56.7677047 0.869589461"></polyline>
    <path d="M28.6528169,14.3453782 L28.4255309,14.3453782 L27.7977224,14.3608192 L27.0604287,14.7952724 C26.865711,14.9110798 26.752761,14.9489804 26.7333585,14.9644214 L14.1369993,14.9995146 C11.2557329,14.9995146 9.06463995,14.6106825 7.6357868,13.8737263 C5.46271043,12.7303914 4.404583,11.1041748 4.3969606,8.89471004 C4.3969606,7.90648691 4.68037522,6.96739419 5.24581856,6.10059336 C6.32473435,4.48560656 7.88871183,3.37596112 10.1331616,2.95624704 C10.7325592,2.84886199 11.305625,2.8221912 11.6805084,2.8221912 L18.1630114,2.8221912 C18.5572972,2.80394276 18.4963181,2.90150172 18.5039404,2.94220978 L18.4374177,3.40614123 L18.9744503,3.40614123 L21.7587044,-7.28306304e-14 L14.001875,-7.28306304e-14 C12.2113044,-7.28306304e-14 10.811555,0.0596583566 9.8414316,0.179676933 C9.32657327,0.243546468 8.84705514,0.325664441 8.3689229,0.440769976 C7.10360483,0.733446855 5.86877636,1.22264538 4.69215529,1.89011711 C2.79487113,2.98502342 1.43739134,4.36558798 0.652977297,6.00935117 C0.216421776,6.94563644 -0.00809249234,7.99071047 1.77635684e-15,9.11018199 C-0.00809249234,11.9906278 1.52331656,14.2688752 4.53485671,15.9168495 C5.89302944,16.6762653 7.42028082,17.2026626 9.07434119,17.472178 C10.318178,17.6806313 12.0228233,17.784507 14.1460076,17.784507 L25.8567827,17.784507 L28.6528169,14.3453782" id="Fill-19"></path>
    <path d="M22.0335803,9.88028169 L24.7007042,6.91619718 L6.74283751,6.91619718 L4.94014085,9.31283173 L21.1244413,9.31283173 C21.4252294,9.34408956 21.5336216,9.40840857 21.5444608,9.45769978 L21.4807804,9.88028169 L22.0335803,9.88028169" id="Fill-20"></path>
    <path d="M23.2713223,-7.28306304e-14 L20.7485915,3.25636757 L21.2644651,3.43938048 L21.3408908,3.45761165 L22.1153835,3.0523187 C22.3371545,2.90015854 22.5582431,2.83284345 22.7854732,2.83284345 L32.780864,2.83284345 L32.780864,16.5938714 L32.7358274,16.7838962 L32.6130004,16.8813629 L32.0425371,17.2761379 L32.0425371,17.784507 L37.625708,17.784507 L37.625708,17.2628151 L37.0504681,16.9031001 L36.9085346,16.7705735 L36.8969343,16.6184133 L36.8969343,2.83284345 L45.7698226,2.83284345 C46.1075969,2.87211059 46.1478569,2.95064486 46.1478569,2.95064486 L46.1478569,3.44709366 L46.6487182,3.44709366 L49.4014085,-7.28306304e-14 L23.2713223,-7.28306304e-14" id="Fill-21"></path>
  </g>
</svg>
