<svg width="24" height="24" viewBox="0 0 24 24" fill="none" xmlns="http://www.w3.org/2000/svg">
<path d="M11.9972 18L9 21H15L11.9972 18Z" fill="#BD8B13"/>
<path d="M16.5 9.14132C16.4193 6.55342 14.4284 4.5 12 4.5C9.57157 4.5 7.58067 6.55342 7.5 9.14132C7.5 11.6424 9.43319 15.5 11.9975 15.5C14.5618 15.5 16.5 11.6424 16.5 9.14132ZM11.9826 14.4879C10.0594 14.4879 8.43429 11.2026 8.43429 9.14132C8.50574 7.10543 10.0744 5.49428 11.9851 5.49428C13.8958 5.49428 15.4644 7.10543 15.5359 9.14132C15.5359 11.2026 13.9108 14.4879 11.9826 14.4879Z" fill="#4E4C4A"/>
<path d="M12.0002 0C7.14622 0 2.77032 2.92423 0.913282 7.4089C-0.943755 11.8936 0.0838585 17.0553 3.51687 20.4868C6.94988 23.9183 12.1121 24.9437 16.5959 23.0847C21.0798 21.2257 24.0021 16.8485 24 11.9946C23.9942 5.37051 18.6243 0.00288505 12.0002 0ZM12.0002 22.9949C5.93067 22.9949 1.01037 18.0746 1.01037 12.0051C1.01037 5.93555 5.93067 1.01525 12.0002 1.01525C18.0697 1.01525 22.99 5.93555 22.99 12.0051C22.99 14.9197 21.8321 17.715 19.7711 19.776C17.7101 21.837 14.9148 22.9949 12.0002 22.9949Z" fill="#4E4C4A"/>
<path d="M18.8498 16.6925C17.6533 16.1633 16.3953 15.786 15.1049 15.5695L14.7305 15.5L14.57 15.8636C14.3111 16.4368 13.9483 16.9572 13.5 17.3984L14.2222 18.115C14.6519 17.6822 15.0127 17.1863 15.2922 16.6444C16.3713 16.8568 17.423 17.1905 18.4272 17.639C18.6562 17.7449 18.8549 17.9068 19.0049 18.1096L19.2938 18.5L20 17.7353L19.8288 17.5053C19.5769 17.1556 19.24 16.8759 18.8498 16.6925Z" fill="#4E4C4A"/>
<path d="M9.28932 15.5L8.89652 15.5698C7.6078 15.786 6.35141 16.1628 5.15687 16.6914C4.74804 16.8784 4.39689 17.1712 4.1399 17.5394L4 17.7326L4.71565 18.5L4.9793 18.1243C5.13569 17.9161 5.34325 17.7516 5.58195 17.6467C6.58101 17.1972 7.628 16.8623 8.70281 16.6485C8.98272 17.1947 9.34574 17.6943 9.77897 18.1297L10.5 17.4106C10.0453 16.9689 9.6799 16.4442 9.42384 15.8649L9.28932 15.5Z" fill="#4E4C4A"/>
</svg>
