<svg width="28" height="28" viewBox="0 0 28 28" fill="none" xmlns="http://www.w3.org/2000/svg">
<path d="M13.9996 3.15L17.1554 0H10.8496L13.9996 3.15Z" fill="#BD8B13"/>
<path d="M12.8333 15.6159H20.0492V14.5017H13.3642V5.58838H12.25V15.0559C12.2625 15.3689 12.5201 15.6161 12.8333 15.6159Z" fill="white"/>
<path d="M17.1795 1.75L16.2578 2.67589C22.1638 3.85025 26.2189 9.33491 25.6316 15.3542C25.0443 21.3735 20.0063 25.9628 13.9857 25.9628C7.96516 25.9628 2.92716 21.3735 2.33986 15.3542C1.75256 9.33491 5.80766 3.85025 11.7136 2.67589L10.792 1.75C4.53473 3.37302 0.454955 9.41694 1.26925 15.8573C2.08355 22.2976 7.53785 27.125 14.0003 27.125C20.4627 27.125 25.917 22.2976 26.7313 15.8573C27.5456 9.41694 23.4659 3.37302 17.2086 1.75H17.1795Z" fill="white"/>
</svg>
