<svg width="32" height="28" viewBox="0 0 32 28" fill="none" xmlns="http://www.w3.org/2000/svg">
<path d="M31.998 5.64258H26.668L31.998 10.1566V5.64258Z" fill="#C3922D"/>
<path d="M31.045 10.9498L30.655 10.6197V21.996C30.655 22.9309 29.7596 23.6889 28.655 23.6889H26.655V7.22971L25.72 6.44675L24.78 5.64262H20V3.94973C20 3.01477 19.1046 2.25684 18 2.25684H14C12.8954 2.25684 12 3.01477 12 3.94973V5.64262H3.34501C2.45837 5.63924 1.60675 5.9353 0.978866 6.46518C0.350977 6.99507 -0.0013327 7.71503 3.78863e-06 8.46553V22.0087C0.00276111 23.5644 1.49204 24.825 3.33001 24.8273H28.655C29.5422 24.8273 30.393 24.529 31.0203 23.9981C31.6476 23.4671 32 22.7469 32 21.996V11.7582L31.045 10.9498ZM21.32 14.0351L16.75 12.7655L17.895 9.80291L21.305 10.789L21.32 14.0351ZM13.32 3.95396C13.32 3.79794 13.3932 3.64831 13.5236 3.53798C13.6539 3.42766 13.8307 3.36568 14.015 3.36568H18.015C18.3871 3.37929 18.6804 3.63873 18.68 3.95396V5.64686H13.335L13.32 3.95396ZM20 6.7684H21.325V9.58707L17.05 8.40627L15.09 13.5273L21.32 15.254V23.6889H10.66V20.375L11.065 21.522L18.065 19.7487L16.465 15.2413L10.66 16.7142V6.7684H20ZM5.35001 13.4299C4.56962 13.1821 4.05268 12.5505 4.05268 11.845C4.05268 11.1394 4.56962 10.5079 5.35001 10.26V13.4299ZM6.66501 6.7684H9.33001V23.6973H6.66501V6.7684ZM11.165 17.7722L15.595 16.6634L16.42 19.025L12 20.0999L11.165 17.7722ZM1.40501 22.0044V8.46129C1.40444 7.5474 2.2609 6.7981 3.34001 6.7684H5.34001V9.09613C3.80959 9.37603 2.71724 10.5218 2.71724 11.8471C2.71724 13.1724 3.80959 14.3181 5.34001 14.598V23.6889H3.34001C2.23544 23.6889 1.34001 22.9309 1.34001 21.996L1.40501 22.0044ZM25.37 23.6973H22.65V15.5884V6.78956H25.315L25.37 23.6973Z" fill="white"/>
</svg>
