<svg width="481" height="248" viewBox="0 0 481 248" fill="none" xmlns="http://www.w3.org/2000/svg">
<g clip-path="url(#clip0)">
<path d="M559.36 254.528L-25.0625 253.59L-24.3354 -87.0039L560.066 -87.0231L559.36 254.528Z" fill="#7A7A86"/>
<g opacity="0.9">
<path opacity="0.24" d="M429.145 79.6384L582.572 53.1514L471.914 21.9496L429.145 79.6384Z" fill="url(#paint0_linear)"/>
<path opacity="0.9" d="M624.572 -48.2307L582.55 52.909L471.871 21.9693L624.572 -48.2307Z" fill="#7A7A86"/>
<path opacity="0.9" d="M364.68 32.2065L356.422 -85.5585L471.894 21.9499L364.68 32.2065Z" fill="#7A7A86"/>
<path opacity="0.9" d="M551.335 146.343L582.423 53.2068L429.145 79.6375L551.335 146.343Z" fill="#7A7A86"/>
<path opacity="0.14" d="M429.146 79.6404L450.349 174.881L362.969 172.12L429.146 79.6404Z" fill="#231F20"/>
<path opacity="0.9" d="M305.605 108.528L362.988 172.078L429.144 79.656L305.605 108.528Z" fill="url(#paint1_linear)"/>
<path opacity="0.33" d="M548.086 237.849L480.047 284.23L450.457 174.937L548.086 237.849Z" fill="#231F20"/>
<path opacity="0.24" d="M401.438 307.127L480.044 284.228L450.433 174.917L401.438 307.127Z" fill="#231F20"/>
<path opacity="0.15" d="M362.968 172.117L401.438 307.069L301.605 251.258L362.968 172.117Z" fill="#231F20"/>
<path opacity="0.36" d="M548.169 237.921L450.391 174.878L551.357 146.344L548.169 237.921Z" fill="#231F20"/>
<path opacity="0.28" d="M362.988 172.136L450.39 174.879L401.352 307.24L362.988 172.136Z" fill="#231F20"/>
<path opacity="0.09" d="M471.892 21.9487L455.289 -59.8984L543.996 -86.6487L471.892 21.9487Z" fill="#231F20"/>
<g style="mix-blend-mode:multiply" opacity="0.23">
<path d="M48.8565 224.719L48.5795 299.521L-26.6914 237.999L48.8565 224.719Z" fill="#231F20"/>
</g>
<path opacity="0.35" d="M48.8591 224.719L110.886 269.164L48.582 299.54L48.8591 224.719Z" fill="#231F20"/>
<path opacity="0.26" d="M51.3203 -49.1707L140.84 -80.9924L136.004 9.12006L51.3203 -49.1707Z" fill="#231F20"/>
<g style="mix-blend-mode:multiply" opacity="0.12">
<path d="M51.3827 -49.1721L7.64967 53.1129L-102.859 21.9492L51.3827 -49.1721Z" fill="#231F20"/>
</g>
<path opacity="0.35" d="M51.3407 -49.1524L-30.4547 -86.7229L-102.879 21.9498L51.3407 -49.1524Z" fill="#231F20"/>
<path opacity="0.32" d="M136.005 9.11918L7.65234 53.1888L51.3418 -49.1716L136.005 9.11918Z" fill="#231F20"/>
<path opacity="0.9" d="M273.023 150.591L223.256 232.983L206.996 149.351L273.023 150.591Z" fill="#7A7A86"/>
<path opacity="0.9" d="M126.332 187.841L223.297 233.018L206.994 149.406L126.332 187.841Z" fill="url(#paint2_linear)"/>
<path opacity="0.15" d="M194.669 -59.6165L136.023 9.11879L234.935 54.2223L194.669 -59.6165Z" fill="#231F20"/>
<path opacity="0.12" d="M194.69 -59.6722L140.838 -80.9932L136.023 9.10022L194.69 -59.6722Z" fill="#231F20"/>
<g opacity="0.25">
<path opacity="0.4" d="M273.019 150.57L302.225 251.164L223.254 233.018L273.019 150.57Z" fill="#231F20"/>
</g>
<path opacity="0.12" d="M276.358 -52.2698L235.129 54.2047L364.83 32.2267L276.358 -52.2698Z" fill="#231F20"/>
<path opacity="0.3" d="M272.998 150.553L235.043 54.2225L364.85 32.2254L272.998 150.553Z" fill="url(#paint3_linear)"/>
<path opacity="0.17" d="M206.974 149.387L235.003 54.2029L107.977 103.814L206.974 149.387Z" fill="#231F20"/>
<path opacity="0.28" d="M206.952 149.369L107.89 103.851L48.8594 224.677L206.952 149.369Z" fill="#231F20"/>
<path opacity="0.19" d="M107.973 103.817L136.002 9.12085L7.69141 53.1533L107.973 103.817Z" fill="#231F20"/>
<path opacity="0.9" d="M7.69248 53.1516L107.974 103.815L-23.4375 146.344L7.69248 53.1516Z" fill="#7A7A86"/>
<path opacity="0.1" d="M223.256 233.019L201.391 316.106L302.228 251.166L223.256 233.019Z" fill="white"/>
<path opacity="0.35" d="M48.8594 224.68L126.312 187.804L110.844 269.144L48.8594 224.68Z" fill="#231F20"/>
<path opacity="0.2" d="M201.39 316.106L110.844 269.143L223.256 233.019L201.39 316.106Z" fill="white"/>
<path opacity="0.9" d="M48.8567 224.677L-26.6055 238.015L-23.4818 146.324L48.8567 224.677Z" fill="#7A7A86"/>
<path opacity="0.24" d="M364.723 32.2433L471.872 21.9496L429.144 79.6384L364.723 32.2433Z" fill="url(#paint4_linear)"/>
<path opacity="0.9" d="M234.875 54.2419L206.953 149.371L273.002 150.553L234.875 54.2419Z" fill="url(#paint5_linear)"/>
<path opacity="0.28" d="M273 150.552L305.607 108.53L363.075 172.212L273 150.552Z" fill="#231F20"/>
<path opacity="0.07" d="M107.974 103.816L48.8572 224.679L-23.5234 146.741L107.974 103.816Z" fill="#231F20"/>
</g>
<g opacity="0.9">
<path opacity="0.9" d="M626.113 -49.1524L544.317 -86.7229L471.914 21.9498L626.113 -49.1524Z" fill="#7A7A86"/>
<path opacity="0.21" d="M471.893 21.9499L455.29 -59.9355L356.441 -85.5585L471.893 21.9499Z" fill="#7A7A86"/>
<path opacity="0.9" d="M450.348 174.881L429.145 79.6404L551.335 146.346L450.348 174.881Z" fill="url(#paint6_linear)"/>
<path opacity="0.25" d="M273.039 150.609L301.667 251.184L362.9 172.174L273.039 150.609Z" fill="#7A7A86"/>
<path opacity="0.9" d="M364.72 32.187L356.44 -85.5588L276.398 -52.2903L364.72 32.187Z" fill="#7A7A86"/>
<path opacity="0.9" d="M194.625 -59.6165L276.357 -52.3838L235.042 54.3911L194.625 -59.6165Z" fill="url(#paint7_linear)"/>
<g style="mix-blend-mode:multiply" opacity="0.9">
<path d="M48.8574 224.679L-23.4375 146.365L107.974 103.816L48.8574 224.679Z" fill="#7A7A86"/>
</g>
<path opacity="0.9" d="M136.001 9.12085L234.871 54.2423L107.973 103.817L136.001 9.12085Z" fill="#7A7A86"/>
<path opacity="0.25" d="M223.253 233.02L110.84 269.144L126.309 187.804L223.253 233.02Z" fill="#7A7A86"/>
</g>
<g style="mix-blend-mode:multiply" opacity="0.12">
<path d="M576.826 -94.543L518.113 42.9433L369.77 1.0584L576.826 -94.543Z" fill="#2D2A26"/>
</g>
<path opacity="0.1" d="M576.764 -94.506L466.964 -145.012L369.75 1.05716L576.764 -94.506Z" fill="url(#paint8_linear)"/>
<path opacity="0.09" d="M518.179 43L652.784 111.085L476.367 168.24L518.179 43Z" fill="white"/>
<path opacity="0.1" d="M573.432 273.512L472.137 291.449L476.324 168.219L573.432 273.512Z" fill="white"/>
<path opacity="0.07" d="M652.782 111.082L573.43 273.511L476.258 168.763L652.782 111.082Z" fill="#2D2A26"/>
<path opacity="0.3" d="M573.431 273.511L476.387 168.256L652.783 111.082L573.431 273.511Z" fill="url(#paint9_linear)"/>
</g>
<defs>
<linearGradient id="paint0_linear" x1="429.145" y1="50.8032" x2="582.572" y2="50.8032" gradientUnits="userSpaceOnUse">
<stop stop-color="white" stop-opacity="0.3"/>
<stop offset="0.79" stop-color="white"/>
</linearGradient>
<linearGradient id="paint1_linear" x1="412.349" y1="126.968" x2="269.531" y2="109.842" gradientUnits="userSpaceOnUse">
<stop stop-color="#7A7A86"/>
<stop offset="0.79" stop-color="#A2A2AF"/>
</linearGradient>
<linearGradient id="paint2_linear" x1="126.332" y1="191.203" x2="223.297" y2="191.203" gradientUnits="userSpaceOnUse">
<stop stop-color="#7A7A86"/>
<stop offset="1" stop-color="#A3A3B1"/>
</linearGradient>
<linearGradient id="paint3_linear" x1="235.043" y1="91.3797" x2="364.85" y2="91.3797" gradientUnits="userSpaceOnUse">
<stop stop-color="white" stop-opacity="0.1"/>
<stop offset="1" stop-color="white"/>
</linearGradient>
<linearGradient id="paint4_linear" x1="364.723" y1="50.7848" x2="471.872" y2="50.7848" gradientUnits="userSpaceOnUse">
<stop stop-color="white" stop-opacity="0.3"/>
<stop offset="0.79" stop-color="white"/>
</linearGradient>
<linearGradient id="paint5_linear" x1="244.822" y1="172.476" x2="196.237" y2="19.8715" gradientUnits="userSpaceOnUse">
<stop stop-color="#7A7A86"/>
<stop offset="0.79" stop-color="#A4A4B3"/>
</linearGradient>
<linearGradient id="paint6_linear" x1="429.145" y1="127.261" x2="551.335" y2="127.261" gradientUnits="userSpaceOnUse">
<stop stop-color="#7A7A86"/>
<stop offset="0.79" stop-color="#A2A2B0"/>
</linearGradient>
<linearGradient id="paint7_linear" x1="224.353" y1="-0.93109" x2="264.751" y2="-8.99492" gradientUnits="userSpaceOnUse">
<stop stop-color="#7A7A86"/>
<stop offset="0.79" stop-color="#A3A3B4"/>
</linearGradient>
<linearGradient id="paint8_linear" x1="369.75" y1="-71.986" x2="576.764" y2="-71.986" gradientUnits="userSpaceOnUse">
<stop stop-color="white"/>
<stop offset="0.79" stop-color="#EAE8E1"/>
</linearGradient>
<linearGradient id="paint9_linear" x1="476.387" y1="192.296" x2="652.783" y2="192.296" gradientUnits="userSpaceOnUse">
<stop stop-color="white" stop-opacity="0.1"/>
<stop offset="1" stop-color="white"/>
</linearGradient>
<clipPath id="clip0">
<rect width="481" height="247.5" fill="white"/>
</clipPath>
</defs>
</svg>
