<svg width="26" height="26" viewBox="0 0 26 26" fill="none" xmlns="http://www.w3.org/2000/svg">
<path d="M2.42089 8.84915L6.00889 6.42826L0 5.25537L2.42089 8.84915Z" fill="#BD8B13"/>
<path d="M18.4173 26.0002V23.8335H17.334V26.0002H18.4173Z" fill="white"/>
<path d="M8.26742 7.35286L10.5265 6.19731L10.0412 5.23242L8.56209 5.97775L6.61498 7.28353L6.32031 7.47997C6.56668 7.53744 6.81848 7.56843 7.07142 7.57242C7.48046 7.57633 7.88645 7.5018 8.26742 7.35286Z" fill="white"/>
<path d="M25.3533 1.37525C23.6069 0.391971 20.283 1.69908 19.9162 1.84628L15.5794 3.51255L9.26334 0.0504739C9.1193 -0.0168246 8.95333 -0.0168246 8.80929 0.0504739L8.35523 0.22711C8.21606 0.285559 8.10809 0.401189 8.05835 0.545056C8.00464 0.706158 8.03062 0.88354 8.1282 1.02197L12.0051 6.73911L12.9074 6.11499L9.80472 1.60487L15.2767 4.59592C15.417 4.66957 15.5809 4.68232 15.7307 4.63124L20.3121 2.86488C21.1969 2.50572 23.7291 1.6873 24.8177 2.32908H24.8701C24.3894 2.73827 23.839 3.0555 23.246 3.26526L10.7187 8.23463C8.77022 8.56104 6.79639 8.70688 4.82174 8.67033L3.25 9.74192H3.28493C3.86705 9.74192 4.44918 9.74192 4.99055 9.74192C7.0157 9.78938 9.04034 9.62761 11.033 9.25912L23.6418 4.32507C24.3578 4.06601 25.9296 3.37124 25.9994 2.39385C26.014 1.95155 25.7568 1.54615 25.3533 1.37525Z" fill="white"/>
<path d="M13.0066 13.0815V11.9165H11.9088V13.0815C10.8548 13.3569 10.1698 14.3702 10.3089 15.4481C10.4481 16.526 11.3681 17.3332 12.4577 17.3332C13.5472 17.3332 14.4673 16.526 14.6064 15.4481C14.7456 14.3702 14.0606 13.3569 13.0066 13.0815ZM12.4577 16.2212C12.0254 16.2212 11.6358 15.9615 11.4704 15.5631C11.305 15.1648 11.3964 14.7063 11.702 14.4015C12.0077 14.0966 12.4673 14.0054 12.8666 14.1704C13.266 14.3354 13.5263 14.7241 13.5263 15.1552C13.5263 15.7439 13.0479 16.2212 12.4577 16.2212Z" fill="white"/>
<path d="M12.9993 18.4165H11.916V25.9999H12.9993V18.4165Z" fill="white"/>
<path d="M18.4187 18.5075V11.9165H17.3267V18.5075C16.2727 18.7823 15.5877 19.7934 15.7269 20.8689C15.8661 21.9445 16.7861 22.7498 17.8756 22.7498C18.9652 22.7498 19.8852 21.9445 20.0244 20.8689C20.1636 19.7934 19.4786 18.7823 18.4246 18.5075H18.4187ZM17.8698 21.6403C17.2796 21.6403 16.8012 21.1641 16.8012 20.5767C16.8012 19.9893 17.2796 19.513 17.8698 19.513C18.46 19.513 18.9385 19.9893 18.9385 20.5767C18.9416 20.8608 18.8304 21.1343 18.6296 21.3363C18.4289 21.5383 18.1553 21.6519 17.8698 21.6519V21.6403Z" fill="white"/>
<path d="M23.8377 15.2578V11.9165H22.7457V15.2578C21.6907 15.5311 21.0042 16.5419 21.1427 17.6179C21.2812 18.6938 22.2015 19.4998 23.2917 19.4998C24.3818 19.4998 25.3021 18.6938 25.4406 17.6179C25.5791 16.5419 24.8926 15.5311 23.8377 15.2578ZM23.2887 18.3898C22.9069 18.3898 22.5542 18.1871 22.3633 17.8581C22.1724 17.5291 22.1724 17.1237 22.3633 16.7947C22.5542 16.4657 22.9069 16.263 23.2887 16.263C23.8789 16.263 24.3574 16.7391 24.3574 17.3264C24.3574 17.9137 23.8789 18.3898 23.2887 18.3898Z" fill="white"/>
<path d="M23.8333 20.5835H22.75V26.0002H23.8333V20.5835Z" fill="white"/>
</svg>
