<svg width="24" height="23" viewBox="0 0 24 23" fill="none" xmlns="http://www.w3.org/2000/svg">
<path fill-rule="evenodd" clip-rule="evenodd" d="M0.0163155 14.8668L2.51231 12.7062L9.93791 12.9558L7.67591 21.9102C7.63723 22.0488 7.66932 22.1976 7.76171 22.308C7.85171 22.4229 7.99017 22.4893 8.13612 22.4875H10.0081C10.168 22.4898 10.318 22.4103 10.4059 22.2768L15.9673 13.26L20.7955 13.4862C21.7449 13.4743 22.6573 13.1166 23.3617 12.48C23.6942 12.2124 23.9065 11.8235 23.9518 11.3992C23.9972 10.9748 23.8719 10.5498 23.6035 10.218C23.533 10.128 23.4518 10.0468 23.3617 9.9762C22.652 9.35117 21.7412 9.00233 20.7955 8.9934L15.9673 9.243L10.4059 0.2262C10.3177 0.0908842 10.1695 0.00660376 10.0081 0L8.13612 0C7.98992 0.00453573 7.85306 0.0729626 7.76171 0.1872C7.67499 0.300263 7.64351 0.446242 7.67591 0.585L9.93791 9.5862L2.60592 9.8748L0.000715256 7.7922L0.0163155 14.8668Z" fill="#B8B7B7"/>
</svg>
