<svg width="26" height="35" viewBox="0 0 26 35" fill="none" xmlns="http://www.w3.org/2000/svg">
<path d="M13 22.1053C16.0829 22.1053 18.5529 19.6368 18.5529 16.5789L18.5714 5.52632C18.5714 2.46842 16.0829 0 13 0C9.91714 0 7.42857 2.46842 7.42857 5.52632V16.5789C7.42857 19.6368 9.91714 22.1053 13 22.1053ZM22.8429 16.5789C22.8429 22.1053 18.1257 25.9737 13 25.9737C7.87429 25.9737 3.15714 22.1053 3.15714 16.5789H0C0 22.8605 5.05143 28.0553 11.1429 28.9579V35H14.8571V28.9579C20.9486 28.0737 26 22.8789 26 16.5789H22.8429Z" fill="white"/>
</svg>
