<svg width="28" height="28" viewBox="0 0 28 28" fill="none" xmlns="http://www.w3.org/2000/svg">
<path d="M14.0042 4.32363L17.3032 1.12646H10.7051L14.0042 4.32363Z" fill="#BD8B13"/>
<path d="M3.50217 8.12015C3.50209 8.05736 3.52875 7.99729 3.57592 7.954C3.62308 7.91072 3.68661 7.88804 3.75162 7.89126H24.2796C24.341 7.89105 24.3997 7.91571 24.4413 7.95923C24.4829 8.00275 24.5037 8.06113 24.4986 8.12015V21.4196H25.667V8.12015C25.6733 7.76174 25.5299 7.4159 25.2688 7.16077C25.0078 6.90564 24.6512 6.76275 24.2796 6.76427H3.75162C3.37628 6.75966 3.01471 6.9006 2.74813 7.15554C2.48156 7.41048 2.33235 7.75805 2.334 8.12015V21.4196H3.50217V8.12015Z" fill="white"/>
<path d="M27.4335 22.5469H15.4667C15.1306 22.5469 14.8581 22.8084 14.8581 23.131V23.4698H13.1598V23.131C13.1598 22.8084 12.8873 22.5469 12.5511 22.5469H0.608687C0.272519 22.5469 0 22.8084 0 23.131V24.4744C0 25.2777 0.678571 25.9289 1.51563 25.9289H26.4718C26.8801 25.9321 27.2725 25.777 27.5601 25.4988C27.8477 25.2206 28.0062 24.8429 27.9998 24.4511V23.1076C27.9879 22.8094 27.7438 22.5676 27.4335 22.5469ZM26.8249 24.4511C26.8249 24.6359 26.6705 24.7867 26.4779 24.7898H1.52172C1.34596 24.7664 1.21568 24.6213 1.21736 24.4511V23.6684H12.0155C12.1222 24.1505 12.5671 24.4944 13.0807 24.492H14.9554C15.4691 24.4944 15.9139 24.1505 16.0207 23.6684H26.8492L26.8249 24.4511Z" fill="white"/>
<path d="M17.014 18.4145L18.0833 17.9222L16.2397 13.8975L17.8497 12.1559C17.9664 11.9128 17.9114 11.6219 17.714 11.4384C17.5166 11.2548 17.2229 11.2214 16.9894 11.3559L15.3671 13.1037L11.2251 11.6821L10.8441 12.796L14.4883 14.0267L12.6447 16.0391L10.6844 15.7252L10.5 16.8945L12.4112 17.196L13.0257 19.1653L14.1503 18.8145L13.5358 16.8268L15.3793 14.8083L17.014 18.4145Z" fill="white"/>
</svg>
