<svg width="34" height="31" viewBox="0 0 34 31" fill="none" xmlns="http://www.w3.org/2000/svg">
<path fill-rule="evenodd" clip-rule="evenodd" d="M0.757946 20.0185L4.11887 17.1092L14.1176 17.4453L11.0718 29.5027C11.0197 29.6893 11.0629 29.8897 11.1873 30.0383C11.3085 30.193 11.4949 30.2824 11.6915 30.2799H14.2122C14.4274 30.283 14.6294 30.1761 14.7478 29.9963L22.2364 17.8549L28.7377 18.1595C30.016 18.1436 31.2446 17.6618 32.1931 16.8046C32.6408 16.4443 32.9267 15.9207 32.9877 15.3493C33.0488 14.7779 32.8801 14.2056 32.5187 13.7588C32.4237 13.6375 32.3144 13.5282 32.1931 13.4332C31.2375 12.5916 30.011 12.1219 28.7377 12.1098L22.2364 12.4459L14.7478 0.304584C14.6291 0.122378 14.4295 0.00889214 14.2122 0L11.6915 0C11.4946 0.00610748 11.3103 0.098246 11.1873 0.25207C11.0706 0.404311 11.0282 0.600876 11.0718 0.787718L14.1176 12.9081L4.24491 13.2967L0.736938 10.4924L0.757946 20.0185Z" fill="white"/>
</svg>
