<svg width="17" height="32" viewBox="0 0 17 32" fill="none" xmlns="http://www.w3.org/2000/svg">
<path d="M3.60156 9.0813L4.42105 9.55265C4.51613 9.60419 4.6311 9.60419 4.72618 9.55265L9.0372 7.07482C9.06839 7.05598 9.08742 7.02239 9.08742 6.98617C9.08742 6.94995 9.06839 6.91635 9.0372 6.89752L8.25259 6.46509L3.60156 9.0813Z" fill="#F68D2E"/>
<path d="M8.28702 0.138428L8.15625 0.942752V7.88761L8.68369 7.30816V0.756806L8.28702 0.138428Z" fill="#303543"/>
<path d="M3.84766 2.61597V9.39218L4.47535 9.79867V2.97921L3.84766 2.61597Z" fill="#303543"/>
<path d="M4.8122 9.55239V3.19564L8.60451 0.912397L8.60015 7.4724L8.94451 7.27348V0.713478V0.328613L4.8122 2.7805L4.47656 2.97942V9.71672L4.8122 9.55239Z" fill="#303543"/>
<path d="M3.84766 2.61622L4.47535 2.97946L8.9433 0.328649L8.36791 0L3.84766 2.61622Z" fill="#303543"/>
<path d="M1.33652 27.6756C1.51524 27.7231 1.79857 27.8788 1.96422 28.4107C2.00673 28.5942 2.00673 28.785 1.96422 28.9685C1.93435 29.0973 1.85446 29.2092 1.74191 29.2799C1.67216 29.3188 1.17524 29.5393 1.17524 29.5393L0.390625 28.3026L0.564984 27.948L1.00088 27.7491C1.10135 27.6881 1.21951 27.6622 1.33652 27.6756Z" fill="#463C40"/>
<path d="M0.826575 27.9264C1.00529 27.9696 1.28863 28.1296 1.45863 28.6572C1.49868 28.8425 1.49868 29.0341 1.45863 29.2194C1.40789 29.4459 1.19972 29.6031 0.966062 29.5913C0.674011 29.5913 0.268627 29.2237 0.21196 28.7048C0.153145 28.4364 0.252816 28.1582 0.469139 27.9869C0.573769 27.9162 0.704221 27.8941 0.826575 27.9264Z" fill="#463C40"/>
<path d="M5.27402 29.8811C5.45274 29.9286 5.73607 30.0843 5.90171 30.6162C5.95115 30.7981 5.96007 30.9884 5.92787 31.1741C5.89483 31.3026 5.81381 31.4139 5.7012 31.4854C5.63146 31.5243 5.13453 31.7449 5.13453 31.7449L4.32812 30.4951L4.50248 30.1405L4.93838 29.9416C5.04041 29.8851 5.15847 29.8638 5.27402 29.8811Z" fill="#463C40"/>
<path d="M4.7644 30.1191C4.94312 30.1623 5.22646 30.3223 5.39646 30.8499C5.43651 31.0351 5.43651 31.2268 5.39646 31.412C5.34571 31.6386 5.13755 31.7958 4.90389 31.7839C4.6162 31.7839 4.20646 31.412 4.14979 30.9191C4.08979 30.6497 4.19162 30.3702 4.41133 30.2012C4.50942 30.1202 4.64024 30.0898 4.7644 30.1191Z" fill="#463C40"/>
<path d="M15.8696 24.6487C16.0483 24.6919 16.3316 24.8519 16.5016 25.3795C16.5417 25.5648 16.5417 25.7564 16.5016 25.9417C16.4715 26.0704 16.3896 26.1813 16.275 26.2487C16.2052 26.2876 15.7083 26.5125 15.7083 26.5125L14.9062 25.2628L15.0762 24.9082C15.0762 24.9082 15.4773 24.7179 15.5121 24.7092C15.6192 24.6447 15.747 24.6231 15.8696 24.6487Z" fill="#463C40"/>
<path d="M15.3649 24.8692C15.5436 24.9168 15.8269 25.0724 15.9925 25.6043C16.042 25.7862 16.0509 25.9765 16.0187 26.1622C15.9682 26.3895 15.7606 26.548 15.5261 26.5384C15.2341 26.5384 14.8287 26.1665 14.772 25.6735C14.7099 25.405 14.8102 25.1251 15.0292 24.9557C15.1242 24.882 15.2457 24.8507 15.3649 24.8692Z" fill="#463C40"/>
<path d="M16.6862 8.28966L11.4554 5.26263C11.0991 5.05959 10.6609 5.05959 10.3046 5.26263L8.94462 6.05399V6.83236L9.03615 6.88426C9.06734 6.90309 9.08637 6.93669 9.08637 6.9729C9.08637 7.00912 9.06734 7.04272 9.03615 7.06155L4.72513 9.53939C4.63005 9.59092 4.51508 9.59092 4.42 9.53939L3.60051 9.08101L0.754104 10.6767C0.286984 10.9442 -0.000551984 11.4389 7.95591e-07 11.974V27.0486C0.00065739 27.4194 0.199846 27.7619 0.523079 27.948L5.82795 30.9751L5.71462 14.3999L16.6862 8.28966Z" fill="#FABB82"/>
<path d="M4.3003 30.1103L4.21748 14.1405C4.21355 13.6679 4.46906 13.2305 4.88441 12.9989L15.0408 7.35136L14.5265 7.05298L4.79287 12.5795C3.99082 12.973 3.70312 13.4789 3.70312 14.0108V29.7643L4.3003 30.1103Z" fill="#F68D2E"/>
<path d="M6.06956 13.9676L16.1301 8.25518C16.2832 8.16741 16.4721 8.16861 16.6241 8.25833C16.776 8.34805 16.8672 8.51226 16.8624 8.68761V24.6227C16.8613 24.9267 16.6945 25.2063 16.4265 25.3536L6.24392 30.9536C6.09146 31.0421 5.90247 31.0412 5.7509 30.9511C5.59933 30.8611 5.50928 30.6963 5.51597 30.5211V14.919C5.51411 14.526 5.72563 14.1625 6.06956 13.9676Z" fill="#F68D2E"/>
<path d="M6.30744 20.9384L16.8779 15.4163V17.5525L6.34231 23.2C5.85628 23.4704 5.26346 23.4704 4.77744 23.2L0 20.4411V18.3957L4.79487 20.9341C5.26746 21.183 5.83341 21.1846 6.30744 20.9384Z" fill="#BD8B13"/>
</svg>
