<svg width="26" height="50" viewBox="0 0 26 50" fill="none" xmlns="http://www.w3.org/2000/svg">
<path d="M5.50684 14.0001L6.76017 14.7268C6.90558 14.8062 7.08142 14.8062 7.22684 14.7268L13.8202 10.9068C13.8679 10.8778 13.897 10.826 13.897 10.7701C13.897 10.7143 13.8679 10.6625 13.8202 10.6335L12.6202 9.9668L5.50684 14.0001Z" fill="#B3AEA4"/>
<path d="M12.6731 0.213379L12.4731 1.45338V12.16L13.2798 11.2667V1.16671L12.6731 0.213379Z" fill="#303543"/>
<path d="M5.88672 4.0332V14.4799L6.84672 15.1065V4.5932L5.88672 4.0332Z" fill="#303543"/>
<path d="M7.36001 14.7268V4.92684L13.16 1.40684L13.1533 11.5202L13.68 11.2135V1.10017V0.506836L7.36001 4.28684L6.84668 4.5935V14.9802L7.36001 14.7268Z" fill="#303543"/>
<path d="M5.88672 4.03333L6.84672 4.59333L13.6801 0.506667L12.8001 0L5.88672 4.03333Z" fill="#303543"/>
<path d="M2.04676 42.6664C2.3201 42.7398 2.75343 42.9798 3.00676 43.7998C3.07179 44.0827 3.07179 44.3768 3.00676 44.6598C2.96108 44.8583 2.8389 45.0308 2.66676 45.1398C2.5601 45.1998 1.8001 45.5398 1.8001 45.5398L0.600098 43.6331L0.866764 43.0864L1.53343 42.7798C1.68709 42.6857 1.8678 42.6458 2.04676 42.6664Z" fill="#463C40"/>
<path d="M1.26673 43.0531C1.54006 43.1198 1.9734 43.3665 2.2334 44.1798C2.29465 44.4655 2.29465 44.7608 2.2334 45.0465C2.15579 45.3958 1.83742 45.6381 1.48006 45.6198C1.0334 45.6198 0.413397 45.0531 0.32673 44.2531C0.236778 43.8395 0.389215 43.4106 0.720064 43.1465C0.880085 43.0375 1.0796 43.0034 1.26673 43.0531Z" fill="#463C40"/>
<path d="M8.06678 46.0666C8.34012 46.1399 8.77345 46.3799 9.02678 47.1999C9.10239 47.4803 9.11604 47.7738 9.06678 48.0599C9.01625 48.2581 8.89234 48.4297 8.72011 48.5399C8.61345 48.5999 7.85345 48.9399 7.85345 48.9399L6.62012 47.0133L6.88678 46.4666L7.55345 46.1599C7.7095 46.0728 7.89006 46.04 8.06678 46.0666Z" fill="#463C40"/>
<path d="M7.28676 46.4333C7.5601 46.5 7.99343 46.7466 8.25343 47.56C8.31469 47.8456 8.31469 48.141 8.25343 48.4267C8.17583 48.776 7.85746 49.0183 7.5001 49C7.0601 49 6.43343 48.4267 6.34676 47.6666C6.25499 47.2515 6.41074 46.8205 6.74676 46.56C6.89679 46.4351 7.09686 46.3882 7.28676 46.4333Z" fill="#463C40"/>
<path d="M24.2731 38.0001C24.5465 38.0668 24.9798 38.3134 25.2398 39.1268C25.3011 39.4124 25.3011 39.7078 25.2398 39.9934C25.1937 40.1919 25.0684 40.3629 24.8931 40.4668C24.7865 40.5268 24.0265 40.8734 24.0265 40.8734L22.7998 38.9468L23.0598 38.4001C23.0598 38.4001 23.6731 38.1068 23.7265 38.0934C23.8902 37.9939 24.0857 37.9606 24.2731 38.0001Z" fill="#463C40"/>
<path d="M23.4998 38.34C23.7732 38.4134 24.2065 38.6534 24.4598 39.4734C24.5354 39.7537 24.5491 40.0472 24.4998 40.3334C24.4225 40.6838 24.105 40.9282 23.7465 40.9134C23.2998 40.9134 22.6798 40.34 22.5932 39.58C22.4982 39.1661 22.6516 38.7345 22.9865 38.4734C23.1318 38.3598 23.3176 38.3116 23.4998 38.34Z" fill="#463C40"/>
<path d="M25.52 12.7799L17.52 8.11319C16.9751 7.80016 16.3049 7.80016 15.76 8.11319L13.68 9.33319V10.5332L13.82 10.6132C13.8677 10.6422 13.8968 10.694 13.8968 10.7499C13.8968 10.8057 13.8677 10.8575 13.82 10.8865L7.22667 14.7065C7.08126 14.786 6.90541 14.786 6.76 14.7065L5.50667 13.9999L1.15334 16.4599C0.438917 16.8723 -0.00084421 17.6349 1.21679e-06 18.4599V41.6999C0.00100542 42.2715 0.305647 42.7995 0.800002 43.0865L8.91333 47.7532L8.74 22.1999L25.52 12.7799Z" fill="#D8D1C4"/>
<path d="M6.57984 46.4202L6.45317 21.8002C6.44715 21.0715 6.83793 20.3972 7.47317 20.0402L23.0065 11.3335L22.2198 10.8735L7.33317 19.3935C6.1065 20.0002 5.6665 20.7802 5.6665 21.6002V45.8869L6.57984 46.4202Z" fill="#B3AEA4"/>
<path d="M9.27982 21.5333L24.6665 12.7267C24.9006 12.5913 25.1896 12.5932 25.422 12.7315C25.6544 12.8698 25.7938 13.123 25.7865 13.3933V37.96C25.7848 38.4286 25.5297 38.8596 25.1198 39.0867L9.54648 47.72C9.31331 47.8565 9.02427 47.8551 8.79245 47.7163C8.56064 47.5775 8.42291 47.3233 8.43315 47.0533V23C8.4303 22.3942 8.75381 21.8338 9.27982 21.5333Z" fill="#B3AEA4"/>
<path d="M9.64667 32.2799L25.8133 23.7666V27.0599L9.7 35.7666C8.95667 36.1834 8.05 36.1834 7.30667 35.7666L0 31.5133V28.3599L7.33333 32.2733C8.05612 32.657 8.92168 32.6595 9.64667 32.2799Z" fill="#BD8B13"/>
</svg>
