<svg width="24" height="24" viewBox="0 0 24 24" fill="none" xmlns="http://www.w3.org/2000/svg">
<path d="M24 11.5H20V12.5H24V11.5Z" fill="white"/>
<path d="M4 11.5H0V12.5H4V11.5Z" fill="white"/>
<path d="M12.5 0H11.5V4H12.5V0Z" fill="white"/>
<path d="M12.5 20H11.5V24H12.5V20Z" fill="white"/>
<path d="M2.70312 20.3594L5.30287 17.7596L6.00336 18.4601L3.40361 21.0599L2.70312 20.3594Z" fill="white"/>
<path d="M17.7578 18.4609L18.4582 17.7603L21.0584 20.3596L20.358 21.0602L17.7578 18.4609Z" fill="white"/>
<path d="M2.70703 3.40625L3.40752 2.70576L6.00726 5.30551L5.30678 6.00599L2.70703 3.40625Z" fill="white"/>
<path d="M12.0001 6C9.57288 6 7.38477 7.46239 6.4564 9.70504C5.52803 11.9477 6.0423 14.5288 7.75933 16.2443C9.47636 17.9599 12.0579 18.4719 14.2997 17.5416C16.5416 16.6113 18.0021 14.422 18 11.9948C17.9972 8.68311 15.3117 6 12.0001 6ZM12.0001 16.9955C9.23823 16.9955 6.9993 14.7566 6.9993 11.9948C6.9993 9.2329 9.23823 6.99398 12.0001 6.99398C14.7619 6.99398 17.0009 9.2329 17.0009 11.9948C16.998 14.7554 14.7608 16.9927 12.0001 16.9955Z" fill="white"/>
<path d="M18 2V6L22 2H18Z" fill="#BD8B13"/>
</svg>
