<svg width="38" height="38" viewBox="0 0 38 38" fill="none" xmlns="http://www.w3.org/2000/svg">
<g filter="url(#filter0_d)">
<circle cx="19" cy="18" r="16" fill="white"/>
<path d="M23.1182 9.11133L22.1946 9.98116L25.4605 13.0571H15.9336V14.2873H25.4605L22.1946 17.3632L23.1182 18.2331L27.5014 14.1071C27.624 13.9918 27.6928 13.8353 27.6928 13.6722C27.6928 13.5091 27.624 13.3526 27.5014 13.2373L23.1182 9.11133Z" fill="#BD8B13"/>
<path d="M14.8971 19.1032L13.9733 18.2334L9.5911 22.3597C9.46853 22.475 9.39966 22.6315 9.39966 22.7946C9.39966 22.9577 9.46853 23.1142 9.5911 23.2295L13.9733 27.3552L14.8971 26.4854L11.6302 23.4091H21.1589V22.1789H11.6302L14.8971 19.1032Z" fill="#BD8B13"/>
</g>
<defs>
<filter id="filter0_d" x="0" y="0" width="38" height="38" filterUnits="userSpaceOnUse" color-interpolation-filters="sRGB">
<feFlood flood-opacity="0" result="BackgroundImageFix"/>
<feColorMatrix in="SourceAlpha" type="matrix" values="0 0 0 0 0 0 0 0 0 0 0 0 0 0 0 0 0 0 127 0"/>
<feOffset dy="1"/>
<feGaussianBlur stdDeviation="1.5"/>
<feColorMatrix type="matrix" values="0 0 0 0 0.3 0 0 0 0 0.3 0 0 0 0 0.3 0 0 0 0.25 0"/>
<feBlend mode="normal" in2="BackgroundImageFix" result="effect1_dropShadow"/>
<feBlend mode="normal" in="SourceGraphic" in2="effect1_dropShadow" result="shape"/>
</filter>
</defs>
</svg>
