<svg width="20" height="20" viewBox="0 0 20 20" fill="none" xmlns="http://www.w3.org/2000/svg">
<path d="M15.0955 4.26208L12.7818 1.66663L12.5 5.75753L15.0955 4.26208Z" fill="#BD8B13"/>
<path d="M17.537 19.1579C17.588 18.6073 17.625 18.066 17.6574 17.5385C17.8116 17.5617 17.9658 17.4968 18.0571 17.3705C18.1484 17.2441 18.1614 17.0774 18.0909 16.9384C18.0204 16.7994 17.8781 16.7114 17.7222 16.7103H17.6898C17.9583 9.98756 16.713 5.51342 16.6667 5.30059C16.632 5.18703 16.5514 5.0931 16.4444 5.04148C16.3371 4.99258 16.2138 4.99258 16.1065 5.04148L12.7731 6.39714C12.6152 6.45876 12.5119 6.61171 12.5139 6.78117V16.4605H11.6574C11.3102 10.8019 11.6574 0.54884 11.6806 0.442423C11.685 0.306492 11.6228 0.17694 11.5139 0.0954114C11.4022 0.000860306 11.248 -0.0257103 11.1111 0.026009L8.61111 0.858837C8.43066 0.917492 8.31266 1.09058 8.32407 1.27988C8.32407 1.31227 8.44907 3.21389 8.47685 6.74878L6.89815 7.54459C6.85773 7.56377 6.8203 7.58871 6.78704 7.61862C5.86111 8.54399 5.47685 11.6671 5.67593 16.8399C4.9161 16.9495 4.184 17.2023 3.51852 17.5848C3.40321 17.6628 3.33389 17.7927 3.33333 17.9318V19.1811H2.50463C2.49424 16.4478 2.73132 13.7192 3.21296 11.0286L4.16667 11.4913V15.8266H5V11.2461C5.00112 11.0883 4.91093 10.944 4.76852 10.8759L3.10185 10.0431C2.98789 9.98756 2.8547 9.98756 2.74074 10.0431C2.62793 10.0977 2.54494 10.1993 2.51389 10.3207C2.47685 10.4549 1.70833 13.615 1.6713 19.1672H0V20H20V19.1579H17.537ZM13.3333 7.04952L15.963 5.98073C16.7181 9.47473 17.02 13.0514 16.8611 16.6224C16.3194 16.5854 14.9815 16.5021 13.3333 16.4605V7.04952ZM10.8148 1.00227C10.7407 3.28792 10.5139 11.5422 10.8148 16.4559C10.2731 16.4559 9.72685 16.4559 9.18519 16.4975C9.31944 12.6248 9.34722 9.43696 9.3287 6.98938C9.30556 4.12075 9.22685 2.27002 9.18981 1.56674L10.8148 1.00227ZM7.33796 8.2525L8.49537 7.67415C8.49537 10.0292 8.46759 12.9996 8.34259 16.5391C7.7037 16.5808 7.08333 16.6363 6.49074 16.7103C6.33796 12.1899 6.64352 9.05294 7.33796 8.2525ZM4.16667 18.1446C6.35185 17.0018 13.787 17.2563 16.8241 17.4738C16.7963 18.0243 16.7546 18.5842 16.6991 19.1579H4.16667V18.1446Z" fill="#4E4C4A"/>
</svg>
