<svg width="29" height="29" viewBox="0 0 29 29" fill="none" xmlns="http://www.w3.org/2000/svg">
<g clip-path="url(#clip0)">
<path d="M10.875 27.7915L18.125 27.7915L14.5 24.1665L10.875 27.7915Z" fill="#BD8B13"/>
<path d="M28.7323 17.1749L15.4932 1.52755C15.3795 1.3979 15.2178 1.32045 15.0456 1.31304C14.873 1.30914 14.7073 1.3805 14.5916 1.50863L0.148379 17.156C0.000816801 17.3311 -0.0402096 17.5724 0.0412052 17.7865C0.142455 17.9994 0.354047 18.138 0.589684 18.1458L9.61751 18.1458L9.61751 27.5015L10.1786 26.9404L10.809 26.3099L10.809 17.5595C10.7932 17.2355 10.5341 16.9764 10.2101 16.9606L1.97034 16.9606L15.014 2.82624L26.9923 16.9606L18.6453 16.9606C18.3214 16.9764 18.0623 17.2355 18.0464 17.5595L18.0464 26.2973L18.6769 26.9278L19.2316 27.4889L19.2316 18.1647L28.2721 18.1647C28.4963 18.1447 28.6928 18.0067 28.7877 17.8026C28.8826 17.5985 28.8615 17.3593 28.7323 17.1749Z" fill="white"/>
</g>
<defs>
<clipPath id="clip0">
<rect width="29" height="29" fill="white" transform="translate(0 29) rotate(-90)"/>
</clipPath>
</defs>
</svg>
