<svg xmlns="http://www.w3.org/2000/svg" width="50" height="50" viewBox="0 0 50 50">
  <g id="Car_rental" data-name="Car rental" transform="translate(-448.9 -4293.524)">
    <path id="Path_1063" data-name="Path 1063" d="M380.317,3844.065l5.893-5.893H374.424Z" transform="translate(93.584 486.602)" fill="#bd8b13"/>
    <path id="Path_1064" data-name="Path 1064" d="M403.4,3829.324a3.114,3.114,0,0,0-2.767,1.752l-2.973-5.2a9.69,9.69,0,0,0-8.411-4.882H374.582a9.69,9.69,0,0,0-8.411,4.882l-2.974,5.2a3.112,3.112,0,0,0-2.766-1.752h-3.515v2.362a3.117,3.117,0,0,0,2.167,2.975,1.042,1.042,0,1,0,.64-1.983,1.041,1.041,0,0,1-.724-.992v-.279h1.432a1.047,1.047,0,0,1,1.02.828l.29,1.387-1.508,2.638a9.406,9.406,0,0,0-1.234,4.653v14.453a3.128,3.128,0,0,0,3.124,3.125h5.049l.9-5.38a1.038,1.038,0,0,1,1.028-.87h25.637a1.037,1.037,0,0,1,1.027.87l.9,5.38h5.05a3.129,3.129,0,0,0,3.124-3.125v-14.583h0a9.39,9.39,0,0,0-1.234-4.522l-1.507-2.638.29-1.387a1.047,1.047,0,0,1,1.02-.828h1.432v.279a1.042,1.042,0,0,1-.723.992,1.042,1.042,0,1,0,.639,1.983,3.117,3.117,0,0,0,2.167-2.975v-2.362Zm-37.385,23.446-.607,3.638h-3.285a1.042,1.042,0,0,1-1.041-1.042v-3.125H366.2A3.013,3.013,0,0,0,366.016,3852.77Zm35.692,3.638h-3.285l-.607-3.638a3.008,3.008,0,0,0-.188-.529h5.121v3.125A1.042,1.042,0,0,1,401.708,3856.408Zm1.041-6.25H361.083v-9.245a7.319,7.319,0,0,1,.96-3.619l5.937-10.389a7.607,7.607,0,0,1,6.6-3.831H389.25a7.607,7.607,0,0,1,6.6,3.831l5.937,10.389a7.319,7.319,0,0,1,.96,3.619Z" transform="translate(91.984 485.033)" fill="#4e4c4a"/>
    <path id="Path_1065" data-name="Path 1065" d="M362.643,3837.218c0,2.073,3.525,3.125,10.48,3.125v-2.083c-3.974,0-7.922-.574-8.4-1.042Z" transform="translate(92.508 486.515)" fill="#4e4c4a"/>
    <path id="Path_1066" data-name="Path 1066" d="M387.473,3838.275v2.083c4.745,0,10.4-.542,10.4-3.125l-2.032-.18C395.32,3837.7,391.409,3838.273,387.473,3838.275Z" transform="translate(94.776 486.499)" fill="#4e4c4a"/>
    <rect id="Rectangle_395" data-name="Rectangle 395" width="50" height="50" transform="translate(448.9 4293.524)" fill="none"/>
  </g>
</svg>
