<svg xmlns="http://www.w3.org/2000/svg" width="49.999" height="50" viewBox="0 0 49.999 50">
  <g id="Checked_Baggage" data-name="Checked Baggage" transform="translate(-1050 -3750)">
    <path id="Path_997" data-name="Path 997" d="M100.866,3367.284v8.333l8.333-8.333Z" transform="translate(957.468 399.383)" fill="#bd8b13"/>
    <path id="Path_998" data-name="Path 998" d="M137.99,3361.868H124.449v-1.042a3.129,3.129,0,0,0-3.125-3.125h-6.25a3.129,3.129,0,0,0-3.125,3.125v1.042H98.408a5.214,5.214,0,0,0-5.209,5.208v22.917a5.215,5.215,0,0,0,5.209,5.208H137.99a5.215,5.215,0,0,0,5.209-5.208v-22.917A5.214,5.214,0,0,0,137.99,3361.868Zm-23.957-1.042a1.042,1.042,0,0,1,1.041-1.042h6.25a1.042,1.042,0,0,1,1.041,1.042v1.042h-8.332Zm27.082,29.167a3.128,3.128,0,0,1-3.125,3.125h-5.2v-6.25H130.71v6.25h-25v-17.9l-2.083,2.083v15.816H98.408a3.128,3.128,0,0,1-3.125-3.125v-22.917a3.129,3.129,0,0,1,3.125-3.125h5.221v2.084h2.083v-2.084H130.7v4.168h2.084v-4.168h5.208a3.129,3.129,0,0,1,3.125,3.125Z" transform="translate(956.801 398.55)" fill="#4e4c4a"/>
    <path id="Path_999" data-name="Path 999" d="M93.845,3396.117a.752.752,0,0,0-.334.229.978.978,0,0,0-.312.73.838.838,0,0,0,.084.4.729.729,0,0,0,.228.333.747.747,0,0,0,.334.23.851.851,0,0,0,.4.083.975.975,0,0,0,.728-.313.725.725,0,0,0,.23-.333.852.852,0,0,0,.084-.4.976.976,0,0,0-.314-.73A1.021,1.021,0,0,0,93.845,3396.117Z" transform="translate(956.801 401.883)" fill="#4e4c4a"/>
    <path id="Path_1000" data-name="Path 1000" d="M98.8,3396.345a1.043,1.043,0,0,0-1.458,0,.74.74,0,0,0-.229.333.978.978,0,0,0,0,.792.732.732,0,0,0,.229.333,1.005,1.005,0,0,0,1.458,0,.732.732,0,0,0,.229-.333.852.852,0,0,0,.084-.4.911.911,0,0,0-.084-.4A.741.741,0,0,0,98.8,3396.345Z" transform="translate(957.134 401.884)" fill="#4e4c4a"/>
    <path id="Path_1001" data-name="Path 1001" d="M102.636,3396.346a.742.742,0,0,0-.333-.229,1.023,1.023,0,0,0-1.125.229.974.974,0,0,0-.312.73.837.837,0,0,0,.083.4.74.74,0,0,0,.229.333.976.976,0,0,0,.729.313.851.851,0,0,0,.4-.083,1.128,1.128,0,0,0,.563-.563.851.851,0,0,0,.083-.4.909.909,0,0,0-.083-.4A.74.74,0,0,0,102.636,3396.346Z" transform="translate(957.468 401.883)" fill="#4e4c4a"/>
    <path id="Path_1002" data-name="Path 1002" d="M106.136,3396.117a1.038,1.038,0,0,0-.791,0,.747.747,0,0,0-.334.229.978.978,0,0,0-.312.73.84.84,0,0,0,.084.4.73.73,0,0,0,.228.333.747.747,0,0,0,.334.23.987.987,0,0,0,.791,0,1.132,1.132,0,0,0,.563-.563.854.854,0,0,0,.084-.4.976.976,0,0,0-.314-.73A.726.726,0,0,0,106.136,3396.117Z" transform="translate(957.801 401.883)" fill="#4e4c4a"/>
    <path id="Path_1003" data-name="Path 1003" d="M109.179,3396.117a.746.746,0,0,0-.334.229.975.975,0,0,0-.313.73.838.838,0,0,0,.084.4.731.731,0,0,0,.229.333.741.741,0,0,0,.334.23.845.845,0,0,0,.4.083.975.975,0,0,0,.728-.313.731.731,0,0,0,.229-.333.851.851,0,0,0,.084-.4.975.975,0,0,0-.313-.73A1.022,1.022,0,0,0,109.179,3396.117Z" transform="translate(958.134 401.883)" fill="#4e4c4a"/>
    <path id="Path_1004" data-name="Path 1004" d="M114.136,3396.345a1.043,1.043,0,0,0-1.458,0,.749.749,0,0,0-.229.333.99.99,0,0,0,0,.792.741.741,0,0,0,.229.333,1,1,0,0,0,1.458,0,.735.735,0,0,0,.23-.333.851.851,0,0,0,.083-.4.909.909,0,0,0-.083-.4A.743.743,0,0,0,114.136,3396.345Z" transform="translate(958.467 401.884)" fill="#4e4c4a"/>
    <path id="Path_1005" data-name="Path 1005" d="M117.969,3396.346a.731.731,0,0,0-.333-.229,1.023,1.023,0,0,0-1.125.229.978.978,0,0,0-.312.73.838.838,0,0,0,.084.4.729.729,0,0,0,.228.333.979.979,0,0,0,.729.313.851.851,0,0,0,.4-.083,1.128,1.128,0,0,0,.563-.563.851.851,0,0,0,.084-.4.91.91,0,0,0-.084-.4A.732.732,0,0,0,117.969,3396.346Z" transform="translate(958.801 401.883)" fill="#4e4c4a"/>
    <path id="Path_1006" data-name="Path 1006" d="M121.47,3396.117a1.038,1.038,0,0,0-.791,0,.741.741,0,0,0-.334.229.975.975,0,0,0-.313.73.84.84,0,0,0,.084.4.732.732,0,0,0,.229.333.742.742,0,0,0,.334.23.987.987,0,0,0,.791,0,1.124,1.124,0,0,0,.562-.563.853.853,0,0,0,.084-.4.975.975,0,0,0-.313-.73A.738.738,0,0,0,121.47,3396.117Z" transform="translate(959.134 401.883)" fill="#4e4c4a"/>
    <path id="Path_1007" data-name="Path 1007" d="M124.512,3396.117a.752.752,0,0,0-.334.229.974.974,0,0,0-.312.73.838.838,0,0,0,.083.4.739.739,0,0,0,.229.333.747.747,0,0,0,.334.23.845.845,0,0,0,.4.083.975.975,0,0,0,.728-.313.733.733,0,0,0,.23-.333.851.851,0,0,0,.083-.4.975.975,0,0,0-.313-.73A1.022,1.022,0,0,0,124.512,3396.117Z" transform="translate(959.467 401.883)" fill="#4e4c4a"/>
    <path id="Path_1008" data-name="Path 1008" d="M129.469,3396.345a1.043,1.043,0,0,0-1.458,0,.738.738,0,0,0-.228.333.9.9,0,0,0-.084.4.839.839,0,0,0,.084.4.73.73,0,0,0,.228.333,1,1,0,0,0,1.458,0,.727.727,0,0,0,.23-.333.852.852,0,0,0,.084-.4.911.911,0,0,0-.084-.4A.735.735,0,0,0,129.469,3396.345Z" transform="translate(959.8 401.884)" fill="#4e4c4a"/>
    <path id="Path_1009" data-name="Path 1009" d="M133.3,3396.346a.742.742,0,0,0-.333-.229,1.023,1.023,0,0,0-1.125.229.975.975,0,0,0-.313.73.838.838,0,0,0,.084.4.731.731,0,0,0,.229.333.976.976,0,0,0,.729.313.851.851,0,0,0,.4-.083,1.121,1.121,0,0,0,.562-.563.852.852,0,0,0,.084-.4.911.911,0,0,0-.084-.4A.738.738,0,0,0,133.3,3396.346Z" transform="translate(960.134 401.883)" fill="#4e4c4a"/>
    <path id="Path_1010" data-name="Path 1010" d="M136.8,3396.117a1.038,1.038,0,0,0-.791,0,.747.747,0,0,0-.334.229.974.974,0,0,0-.312.73.839.839,0,0,0,.083.4,1.12,1.12,0,0,0,.563.563.987.987,0,0,0,.791,0,1.132,1.132,0,0,0,.563-.563.853.853,0,0,0,.083-.4.975.975,0,0,0-.313-.73A.738.738,0,0,0,136.8,3396.117Z" transform="translate(960.467 401.883)" fill="#4e4c4a"/>
    <path id="Path_1011" data-name="Path 1011" d="M126.144,3367.589a1.045,1.045,0,0,0-.737-.3h-6.25a1.04,1.04,0,0,0-1.041,1.041v6.25a1.041,1.041,0,0,0,.305.737l8.332,8.333a1.04,1.04,0,0,0,1.473,0l6.25-6.25a1.04,1.04,0,0,0,0-1.473Zm1.347,13.847-7.292-7.292v-4.778h4.777l7.292,7.292Z" transform="translate(958.967 399.382)" fill="#4e4c4a"/>
    <rect id="Rectangle_358" data-name="Rectangle 358" width="2.946" height="2.083" transform="translate(1083.638 3775.306) rotate(-45)" fill="#4e4c4a"/>
    <rect id="Rectangle_359" data-name="Rectangle 359" width="2.946" height="2.083" transform="translate(1081.555 3773.223) rotate(-45)" fill="#4e4c4a"/>
    <rect id="Rectangle_360" data-name="Rectangle 360" width="49.999" height="49.999" transform="translate(1050 3750)" fill="none"/>
  </g>
</svg>
