<svg width="22" height="22" viewBox="0 0 22 22" fill="none" xmlns="http://www.w3.org/2000/svg">
<g clip-path="url(#clip0)">
<rect y="6.00049" width="10" height="1" fill="#333333"/>
<rect y="11.0005" width="15" height="1" fill="#333333"/>
<rect y="16.0005" width="15" height="1" fill="#333333"/>
<path fill-rule="evenodd" clip-rule="evenodd" d="M16.5049 3.85315C17.4421 4.79028 17.4421 6.30981 16.5049 7.24695C15.5679 8.18414 14.0483 8.18414 13.1111 7.24695C12.1741 6.30981 12.1741 4.79028 13.1111 3.85315C14.0483 2.91595 15.5679 2.91595 16.5049 3.85315ZM17.5068 7.6156C18.5298 6.28253 18.4324 4.36646 17.2122 3.146C15.8843 1.8183 13.7317 1.8183 12.4041 3.146C11.0764 4.47375 11.0764 6.62634 12.4041 7.9541C13.6213 9.17139 15.532 9.27258 16.8647 8.25781L16.7998 8.32269L21.1707 12.6937L21.8779 11.9866L17.5068 7.6156Z" fill="#333333"/>
</g>
<defs>
<clipPath id="clip0">
<rect width="22" height="22" fill="white"/>
</clipPath>
</defs>
</svg>
