<svg id="Lounge" xmlns="http://www.w3.org/2000/svg" width="49.864" height="49.864" viewBox="0 0 49.864 49.864">
  <g id="Layer_1" data-name="Layer 1" transform="translate(0 0)">
    <g id="Group_1167" data-name="Group 1167">
      <path id="Path_2083" data-name="Path 2083" d="M9,21.311h8.311L9,13Z" transform="translate(9.699 14.01)" fill="#bd8b13"/>
      <g id="Group_1166" data-name="Group 1166">
        <path id="Path_2084" data-name="Path 2084" d="M41.366,18.459a4.075,4.075,0,0,0-2.046.565V14.906A4.922,4.922,0,0,0,34.393,10H15.16a4.922,4.922,0,0,0-4.927,4.906v4.125A4.134,4.134,0,0,0,4,22.584V30.62a4.343,4.343,0,0,0,4.363,4.312h1.87v4.035h2.078V34.932H37.242v4.035H39.32V34.932h1.87a4.343,4.343,0,0,0,4.363-4.312V22.584a4.152,4.152,0,0,0-4.187-4.125ZM12.311,14.906a2.842,2.842,0,0,1,2.85-2.828H34.393a2.842,2.842,0,0,1,2.85,2.828V26.621H12.311ZM43.475,30.62a2.29,2.29,0,0,1-2.286,2.234H8.363A2.29,2.29,0,0,1,6.078,30.62V22.584a2.078,2.078,0,1,1,4.156,0V27.66A1.038,1.038,0,0,0,11.272,28.7H38.281A1.038,1.038,0,0,0,39.32,27.66V22.584a2.078,2.078,0,1,1,4.156,0Z" transform="translate(4.311 10.777)" fill="#4e4c4a"/>
        <path id="Path_2085" data-name="Path 2085" d="M20.776,15.582V13.5a7.259,7.259,0,0,0-6.328-7.176A7.254,7.254,0,0,0,0,7.272V49.864H2.078V7.272a5.188,5.188,0,0,1,10.295-.924A7.265,7.265,0,0,0,6.233,13.5v2.078a1.038,1.038,0,0,0,1.039,1.039H19.738a1.038,1.038,0,0,0,1.039-1.039ZM18.7,14.544H8.311V13.5a5.194,5.194,0,0,1,10.388,0Z" transform="translate(0 0)" fill="#4e4c4a"/>
      </g>
      <rect id="Rectangle_1878" data-name="Rectangle 1878" width="49.864" height="49.864" transform="translate(0 0)" fill="none"/>
    </g>
  </g>
</svg>
