<svg xmlns="http://www.w3.org/2000/svg" width="50" height="50" viewBox="0 0 50 50">
  <g id="Onboard" transform="translate(-950 -5550)">
    <path id="Path_442" data-name="Path 442" d="M129,4074.975a6.237,6.237,0,0,0,6.211-6.25v-4.166a6.211,6.211,0,1,0-12.421,0v4.166A6.237,6.237,0,0,0,129,4074.975Zm-4.141-10.416a4.141,4.141,0,1,1,8.282,0v4.166a4.141,4.141,0,1,1-8.282,0Z" transform="translate(858.565 1496.268)" fill="#4e4c4a"/>
    <g id="Group_1358" data-name="Group 1358">
      <path id="Path_1875" data-name="Path 1875" d="M2792.1,1177.9l5.893-5.893h-11.785Z" transform="translate(-1813.768 4377.996)" fill="#bd8b13"/>
      <path id="Path_1876" data-name="Path 1876" d="M2777.03,1183.036A4.678,4.678,0,0,0,2780,1184.3a3.127,3.127,0,0,0,.873-.123,4.213,4.213,0,0,0,2.653-3.025,7.183,7.183,0,0,0,.135-3.955,4.593,4.593,0,0,0-2.2-2.77,4.584,4.584,0,0,0-6.251,1.812,4.618,4.618,0,0,0-.395,3.518A7.138,7.138,0,0,0,2777.03,1183.036Zm0-5.79a2.515,2.515,0,0,1,1.513-1.215,2.546,2.546,0,0,1,.7-.1,2.536,2.536,0,0,1,2.428,1.842c.438,1.527-.2,4.063-1.371,4.4-1.188.335-3.054-1.467-3.491-2.995A2.539,2.539,0,0,1,2777.031,1177.245Z" transform="translate(-1815.059 4378.202)" fill="#4e4c4a"/>
      <path id="Path_1877" data-name="Path 1877" d="M2797.556,1200.578h-4.736l-.8-2.083h4.232a1.041,1.041,0,0,0,0-2.082h-5.033l-3.125-8.125a5.19,5.19,0,0,0-6.165-3.4l-2.332.587a3.11,3.11,0,0,0-1.989,1.564,3.153,3.153,0,0,0-.163,2.57l2.758,6.808h-.868l-7.337-19.05-1.931.753,7.839,20.352v.028h.01l4.792,12.443-3.935,9.008a1.04,1.04,0,0,0,.947,1.46h12.655v-2.082h-11.068l3.2-7.318h8.642v-2.083h-8.607l-4.4-11.427h.908l3.386,8.357a3.116,3.116,0,0,0,2.918,2.057h7.758l-.893,9.064a3.142,3.142,0,0,0,.789,2.406,3.1,3.1,0,0,0,2.3,1.026h1.986a1.035,1.035,0,0,0,1.02-.866l2.348-13.88a5.217,5.217,0,0,0-1.146-4.232A5.154,5.154,0,0,0,2797.556,1200.578Zm3.063,5.731-2.2,13.014H2797.3a1.018,1.018,0,0,1-.767-.342,1.033,1.033,0,0,1-.263-.8l1.006-10.208a1.046,1.046,0,0,0-.262-.8,1.031,1.031,0,0,0-.768-.342h-8.9a1.054,1.054,0,0,1-.987-.723l-3.083-7.609h1.682l-1.275-2.082h-1.25l-3.061-7.556a1.034,1.034,0,0,1,.059-.845,1.022,1.022,0,0,1,.663-.521h0l2.332-.586a3.053,3.053,0,0,1,.744-.092,3.153,3.153,0,0,1,2.974,2.181l2.853,7.42h-.819l-3.466-5.747a1.034,1.034,0,0,0-1.422-.35,1.046,1.046,0,0,0-.349,1.431l3.768,6.247a1.037,1.037,0,0,0,.886.5h2.2l1.345,3.5a1.034,1.034,0,0,0,.965.667h5.447a3.087,3.087,0,0,1,2.374,1.109A3.129,3.129,0,0,1,2800.619,1206.309Z" transform="translate(-1815.57 4378.594)" fill="#4e4c4a"/>
      <rect id="Rectangle_1124" data-name="Rectangle 1124" width="50" height="50" transform="translate(950 5550)" fill="none"/>
    </g>
  </g>
</svg>
