<svg width="24" height="24" viewBox="0 0 24 24" fill="none" xmlns="http://www.w3.org/2000/svg">
<path d="M12 0C8.74102 0 8.33223 0.0138139 7.0525 0.0722132C5.7752 0.130517 4.90294 0.333343 4.13965 0.630008C3.33896 0.931324 2.61363 1.40367 2.01424 2.01411C1.40367 2.61347 0.93119 3.33881 0.629765 4.13954C0.333341 4.90288 0.130516 5.77516 0.0724508 7.05246C0.0138138 8.3322 0 8.741 0 12C0 15.2591 0.0138138 15.6678 0.0724508 16.9476C0.130754 18.2249 0.333579 19.0972 0.630241 19.8605C0.931556 20.6612 1.4039 21.3865 2.01433 21.9859C2.61372 22.5963 3.33905 23.0687 4.13975 23.37C4.90308 23.6667 5.77535 23.8695 7.0526 23.9278C8.33251 23.9862 8.74117 24 12.0001 24C15.2591 24 15.6679 23.9862 16.9476 23.9278C18.2249 23.8695 19.0972 23.6667 19.8605 23.37C20.6576 23.0617 21.3816 22.5903 21.9859 21.9859C22.5903 21.3815 23.0617 20.6576 23.37 19.8605C23.6667 19.0971 23.8695 18.2248 23.9278 16.9476C23.9862 15.6677 24 15.259 24 12C24 8.74104 23.9862 8.3322 23.9278 7.05246C23.8695 5.77516 23.6667 4.90288 23.37 4.13959C23.0687 3.33889 22.5963 2.61355 21.9859 2.01416C21.3865 1.4036 20.6611 0.931149 19.8603 0.62977C19.097 0.333343 18.2247 0.130517 16.9474 0.0724514C15.6677 0.0138139 15.2589 0 11.9999 0H12Z" fill="black"/>
<path d="M12 5.83783C10.7813 5.83783 9.58989 6.19924 8.57653 6.87634C7.56317 7.55345 6.77336 8.51586 6.30696 9.64185C5.84056 10.7678 5.71853 12.0068 5.9563 13.2022C6.19406 14.3975 6.78095 15.4955 7.64274 16.3573C8.50453 17.2191 9.60252 17.806 10.7979 18.0438C11.9932 18.2816 13.2322 18.1595 14.3582 17.6931C15.4842 17.2267 16.4465 16.4369 17.1237 15.4235C17.8008 14.4102 18.1622 13.2188 18.1622 12C18.1622 10.3657 17.5129 8.79832 16.3573 7.64269C15.2017 6.48706 13.6343 5.83783 12 5.83783ZM12 16C11.2089 16 10.4356 15.7654 9.77779 15.3258C9.12001 14.8863 8.60733 14.2616 8.30459 13.5307C8.00185 12.7998 7.92265 11.9955 8.07699 11.2196C8.23134 10.4437 8.6123 9.73099 9.1717 9.17158C9.73111 8.61218 10.4438 8.23123 11.2197 8.07689C11.9957 7.92255 12.7999 8.00177 13.5308 8.30452C14.2617 8.60727 14.8864 9.11996 15.3259 9.77775C15.7654 10.4355 16 11.2089 16 12C16 13.0609 15.5786 14.0783 14.8284 14.8284C14.0783 15.5786 13.0609 16 12 16Z" fill="white"/>
<path d="M18.4053 7.03438C19.2006 7.03438 19.8453 6.38968 19.8453 5.5944C19.8453 4.79912 19.2006 4.15442 18.4053 4.15442C17.61 4.15442 16.9653 4.79912 16.9653 5.5944C16.9653 6.38968 17.61 7.03438 18.4053 7.03438Z" fill="white"/>
</svg>
