<svg width="24" height="24" viewBox="0 0 24 24" fill="none" xmlns="http://www.w3.org/2000/svg">
<path d="M22.2278 0H1.7733C0.793857 0 0 0.769631 0 1.71955V22.2797C0 23.2297 0.794135 24 1.7733 24H22.2278C23.207 24 24 23.2292 24 22.2797V1.71955C24 0.76991 23.207 0 22.2278 0ZM7.27612 20.0896H3.64989V9.25393H7.27612V20.0896ZM5.46337 7.77359H5.43898C4.22295 7.77359 3.43467 6.94196 3.43467 5.90082C3.43467 4.83869 4.2461 4.02961 5.48624 4.02961C6.72649 4.02961 7.48938 4.83847 7.51349 5.90082C7.51349 6.94219 6.72677 7.77359 5.46337 7.77359ZM20.3476 20.0896H16.7225V14.2922C16.7225 12.8354 16.1973 11.8414 14.8864 11.8414C13.8835 11.8414 13.2882 12.512 13.0267 13.1594C12.9299 13.3907 12.9059 13.7141 12.9059 14.037V20.0894H9.28149C9.28149 20.0894 9.32892 10.27 9.28149 9.25376H12.9064V10.79C13.3876 10.0518 14.2476 8.99881 16.1726 8.99881C18.5586 8.99881 20.3476 10.5466 20.3476 13.8764V20.0896ZM12.883 10.8244C12.8892 10.8142 12.8978 10.802 12.9064 10.7901V10.8244H12.883Z" fill="black"/>
</svg>
