<svg width="24" height="17" viewBox="0 0 24 17" fill="none" xmlns="http://www.w3.org/2000/svg">
<path d="M21.2808 7.33563C22.6287 7.22465 23.543 6.61311 23.8949 5.78334C23.4086 6.08142 21.8993 6.4064 21.0657 6.0969C21.0249 5.90145 20.9792 5.71579 20.9344 5.54818C20.2993 3.22063 18.1246 1.34548 15.8459 1.572C16.0303 1.49772 16.2172 1.42856 16.4037 1.36647C16.6545 1.27681 18.1261 1.03787 17.8943 0.519491C17.699 0.0635374 15.9011 0.864073 15.5626 0.968707C16.0094 0.800982 16.7485 0.512474 16.8277 0C16.143 0.0937188 15.4709 0.416751 14.9516 0.886459C15.1391 0.685044 15.2813 0.439582 15.3115 0.17541C13.4854 1.33963 12.4187 3.68678 11.5555 5.96359C10.8776 5.30801 10.2768 4.79174 9.73789 4.50507C8.22591 3.69591 6.41809 2.85166 3.58022 1.80032C3.49311 2.73734 4.04457 3.98325 5.63361 4.81179C5.28933 4.76579 4.65976 4.86842 4.15623 4.98876C4.36129 6.06221 5.03098 6.94661 6.844 7.37427C6.01544 7.42885 5.58724 7.61701 5.19916 8.02257C5.57653 8.76914 6.49738 9.64781 8.15387 9.46744C6.31218 10.2596 7.40293 11.7267 8.90152 11.5079C6.34505 14.1431 2.31448 13.9494 0 11.7453C6.04295 19.9629 19.1789 16.6052 21.1365 8.69007C22.6032 8.70254 23.4654 8.18305 24 7.61033C23.155 7.75344 21.9302 7.60554 21.2808 7.33563Z" fill="black"/>
</svg>
