<svg width="35" height="29" viewBox="0 0 35 29" fill="none" xmlns="http://www.w3.org/2000/svg">
<mask id="mask0" mask-type="alpha" maskUnits="userSpaceOnUse" x="0" y="0" width="35" height="29">
<path d="M10.4451 28.4918H34.7195C34.7195 28.4918 10.2536 4.23022 8.19052 2.27381C6.67898 0.715794 4.95526 0.667307 4.95526 0.667307L0.0527344 0.537354L10.4451 28.4918Z" fill="white"/>
</mask>
<g mask="url(#mask0)">
<path d="M11.3249 30.8533L5.45623 14.9364L0.0849609 0.49939C0.0849609 0.49939 3.66359 0.587763 4.99975 0.587763C6.05095 0.587763 6.74184 1.04724 6.74184 1.04724C8.41446 2.57241 16.4847 10.1871 37.1085 30.8533H11.3249Z" fill="#F5EDD7"/>
</g>
<mask id="mask1" mask-type="alpha" maskUnits="userSpaceOnUse" x="0" y="0" width="35" height="29">
<path d="M4.68785 13.0053L10.4451 28.4918H34.7195C34.7195 28.4918 10.2536 4.23022 8.19052 2.27381C7.88733 1.99555 7.65828 1.79341 7.51305 1.67754C6.20739 0.702521 4.95526 0.667307 4.95526 0.667307L0.0527344 0.537354C0.100713 0.554012 3.28332 9.18904 4.68785 13.0053Z" fill="white"/>
</mask>
<g mask="url(#mask1)">
<path d="M7.0921 27.7434L13.1611 21.3409L9.33695 19.9319L7.08594 27.7117" fill="#C79D39"/>
</g>
<mask id="mask2" mask-type="alpha" maskUnits="userSpaceOnUse" x="0" y="0" width="35" height="29">
<path d="M4.68785 13.0053L10.4451 28.4918H34.7195C34.7195 28.4918 10.2536 4.23022 8.19052 2.27381C7.88733 1.99555 7.65828 1.79341 7.51305 1.67754C6.20739 0.702521 4.95526 0.667307 4.95526 0.667307L0.0527344 0.537354C0.100713 0.554012 3.28332 9.18904 4.68785 13.0053Z" fill="white"/>
</mask>
<g mask="url(#mask2)">
<path d="M7.49896 26.4886L1.7627 17.2701L9.33659 19.9265L7.49896 26.4886Z" fill="#987638"/>
</g>
<mask id="mask3" mask-type="alpha" maskUnits="userSpaceOnUse" x="0" y="0" width="35" height="29">
<path d="M4.68785 13.0053L10.4451 28.4918H34.7195C34.7195 28.4918 10.2536 4.23022 8.19052 2.27381C7.88733 1.99555 7.65828 1.79341 7.51305 1.67754C6.20739 0.702521 4.95526 0.667307 4.95526 0.667307L0.0527344 0.537354C0.100713 0.554012 3.28332 9.18904 4.68785 13.0053Z" fill="white"/>
</mask>
<g mask="url(#mask3)">
<path d="M11.6897 10.1942L-1.45996 16.1432L9.3448 19.9249L11.6897 10.1942Z" fill="#653A25"/>
</g>
<mask id="mask4" mask-type="alpha" maskUnits="userSpaceOnUse" x="0" y="0" width="35" height="29">
<path d="M4.68785 13.0053L10.4451 28.4918H34.7195C34.7195 28.4918 10.2536 4.23022 8.19052 2.27381C7.88733 1.99555 7.65828 1.79341 7.51305 1.67754C6.20739 0.702521 4.95526 0.667307 4.95526 0.667307L0.0527344 0.537354C0.100713 0.554012 3.28332 9.18904 4.68785 13.0053Z" fill="white"/>
</mask>
<g mask="url(#mask4)">
<path d="M11.685 10.1942L16.726 15.9136L13.1661 21.3403L9.3457 19.9307L11.685 10.1942Z" fill="#CDC9B9"/>
</g>
<mask id="mask5" mask-type="alpha" maskUnits="userSpaceOnUse" x="0" y="0" width="35" height="29">
<path d="M4.68785 13.0053L10.4451 28.4918H34.7195C34.7195 28.4918 10.2536 4.23022 8.19052 2.27381C7.88733 1.99555 7.65828 1.79341 7.51305 1.67754C6.20739 0.702521 4.95526 0.667307 4.95526 0.667307L0.0527344 0.537354C0.100713 0.554012 3.28332 9.18904 4.68785 13.0053Z" fill="white"/>
</mask>
<g mask="url(#mask5)">
<path d="M11.6816 10.1887L-1.465 16.156L-2.74023 -1.81934L11.6816 10.1887Z" fill="#C79D39"/>
</g>
<mask id="mask6" mask-type="alpha" maskUnits="userSpaceOnUse" x="0" y="0" width="35" height="29">
<path d="M4.68785 13.0053L10.4451 28.4918H34.7195C34.7195 28.4918 10.2536 4.23022 8.19052 2.27381C7.88733 1.99555 7.65828 1.79341 7.51305 1.67754C6.20739 0.702521 4.95526 0.667307 4.95526 0.667307L0.0527344 0.537354C0.100713 0.554012 3.28332 9.18904 4.68785 13.0053Z" fill="white"/>
</mask>
<g mask="url(#mask6)">
<path d="M11.6867 10.1887L13.2942 0.790351L-1.39844 -0.651733L11.6867 10.1887Z" fill="#987638"/>
</g>
<mask id="mask7" mask-type="alpha" maskUnits="userSpaceOnUse" x="0" y="0" width="35" height="29">
<path d="M4.68785 13.0053L10.4451 28.4918H34.7195C34.7195 28.4918 10.2536 4.23022 8.19052 2.27381C7.88733 1.99555 7.65828 1.79341 7.51305 1.67754C6.20739 0.702521 4.95526 0.667307 4.95526 0.667307L0.0527344 0.537354C0.100713 0.554012 3.28332 9.18904 4.68785 13.0053Z" fill="white"/>
</mask>
<g mask="url(#mask7)">
<path d="M8.47852 26.2644L13.1634 21.3369L15.1078 26.016L8.49397 26.2764" fill="#CDC9B9"/>
</g>
<mask id="mask8" mask-type="alpha" maskUnits="userSpaceOnUse" x="0" y="0" width="35" height="29">
<path d="M4.68785 13.0053L10.4451 28.4918H34.7195C34.7195 28.4918 10.2536 4.23022 8.19052 2.27381C7.88733 1.99555 7.65828 1.79341 7.51305 1.67754C6.20739 0.702521 4.95526 0.667307 4.95526 0.667307L0.0527344 0.537354C0.100713 0.554012 3.28332 9.18904 4.68785 13.0053Z" fill="white"/>
</mask>
<g mask="url(#mask8)">
<path d="M9.17676 29.4405L24.653 31.909L15.1125 26.0177L9.17676 29.4405Z" fill="#CDC9B9"/>
</g>
<mask id="mask9" mask-type="alpha" maskUnits="userSpaceOnUse" x="0" y="0" width="35" height="29">
<path d="M4.68785 13.0053L10.4451 28.4918H34.7195C34.7195 28.4918 10.2536 4.23022 8.19052 2.27381C7.88733 1.99555 7.65828 1.79341 7.51305 1.67754C6.20739 0.702521 4.95526 0.667307 4.95526 0.667307L0.0527344 0.537354C0.100713 0.554012 3.28332 9.18904 4.68785 13.0053Z" fill="white"/>
</mask>
<g mask="url(#mask9)">
<path d="M20.2048 18.8485L13.1719 21.335L15.1163 26.0141L20.2048 18.8485Z" fill="#987638"/>
</g>
<mask id="mask10" mask-type="alpha" maskUnits="userSpaceOnUse" x="0" y="0" width="35" height="29">
<path d="M4.68785 13.0053L10.4451 28.4918H34.7195C34.7195 28.4918 10.2536 4.23022 8.19052 2.27381C7.88733 1.99555 7.65828 1.79341 7.51305 1.67754C6.20739 0.702521 4.95526 0.667307 4.95526 0.667307L0.0527344 0.537354C0.100713 0.554012 3.28332 9.18904 4.68785 13.0053Z" fill="white"/>
</mask>
<g mask="url(#mask10)">
<path d="M20.2048 18.8518L13.1719 21.3383L16.7317 15.9116L20.2048 18.8518Z" fill="#653A25"/>
</g>
<mask id="mask11" mask-type="alpha" maskUnits="userSpaceOnUse" x="0" y="0" width="35" height="29">
<path d="M4.68785 13.0053L10.4451 28.4918H34.7195C34.7195 28.4918 10.2536 4.23022 8.19052 2.27381C7.88733 1.99555 7.65828 1.79341 7.51305 1.67754C6.20739 0.702521 4.95526 0.667307 4.95526 0.667307L0.0527344 0.537354C0.100713 0.554012 3.28332 9.18904 4.68785 13.0053Z" fill="white"/>
</mask>
<g mask="url(#mask11)">
<path d="M33.6316 25.3932C34.2713 24.4882 31.2295 25.0464 32.0446 24.3112C32.3142 24.0679 30.3653 23.9612 30.6372 23.7214L26.2703 19.3149L22.4473 24.9018L31.2692 25.3298L32.4446 25.5812L33.5859 25.4385C33.551 25.2972 33.5201 25.3514 33.5192 25.4062C33.5195 25.4586 33.5486 25.5114 33.6316 25.3932Z" fill="#653A25"/>
</g>
<mask id="mask12" mask-type="alpha" maskUnits="userSpaceOnUse" x="0" y="0" width="35" height="29">
<path d="M4.68785 13.0053L10.4451 28.4918H34.7195C34.7195 28.4918 10.2536 4.23022 8.19052 2.27381C7.88733 1.99555 7.65828 1.79341 7.51305 1.67754C6.20739 0.702521 4.95526 0.667307 4.95526 0.667307L0.0527344 0.537354C0.100713 0.554012 3.28332 9.18904 4.68785 13.0053Z" fill="white"/>
</mask>
<g mask="url(#mask12)">
<path d="M20.2012 18.8485L25.9799 19.745L22.4538 24.898L20.2012 18.8485Z" fill="#CDC9B9"/>
</g>
<mask id="mask13" mask-type="alpha" maskUnits="userSpaceOnUse" x="0" y="0" width="35" height="29">
<path d="M4.68785 13.0053L10.4451 28.4918H34.7195C34.7195 28.4918 10.2536 4.23022 8.19052 2.27381C7.88733 1.99555 7.65828 1.79341 7.51305 1.67754C6.20739 0.702521 4.95526 0.667307 4.95526 0.667307L0.0527344 0.537354C0.100713 0.554012 3.28332 9.18904 4.68785 13.0053Z" fill="white"/>
</mask>
<g mask="url(#mask13)">
<path d="M20.1996 18.8523L22.7781 15.9038L20.1097 12.9241L16.7266 15.9121L20.1996 18.8523Z" fill="#CDC9B9"/>
</g>
<mask id="mask14" mask-type="alpha" maskUnits="userSpaceOnUse" x="0" y="0" width="35" height="29">
<path d="M4.68785 13.0053L10.4451 28.4918H34.7195C34.7195 28.4918 10.2536 4.23022 8.19052 2.27381C7.88733 1.99555 7.65828 1.79341 7.51305 1.67754C6.20739 0.702521 4.95526 0.667307 4.95526 0.667307L0.0527344 0.537354C0.100713 0.554012 3.28332 9.18904 4.68785 13.0053Z" fill="white"/>
</mask>
<g mask="url(#mask14)">
<path d="M11.6816 10.193L12.5196 5.32385L19.1801 12.3891L18.734 12.2575L17.6557 11.789L11.6816 10.193Z" fill="#653A25"/>
</g>
<mask id="mask15" mask-type="alpha" maskUnits="userSpaceOnUse" x="0" y="0" width="35" height="29">
<path d="M4.68785 13.0053L10.4451 28.4918H34.7195C34.7195 28.4918 10.2536 4.23022 8.19052 2.27381C7.88733 1.99555 7.65828 1.79341 7.51305 1.67754C6.20739 0.702521 4.95526 0.667307 4.95526 0.667307L0.0527344 0.537354C0.100713 0.554012 3.28332 9.18904 4.68785 13.0053Z" fill="white"/>
</mask>
<g mask="url(#mask15)">
<path d="M18.5739 12.0355L19.3051 12.3465L20.4416 12.6831L16.7226 15.9136L11.6816 10.1942L18.5739 12.0355Z" fill="#FFFFFE"/>
</g>
<mask id="mask16" mask-type="alpha" maskUnits="userSpaceOnUse" x="0" y="0" width="35" height="29">
<path d="M4.68785 13.0053L10.4451 28.4918H34.7195C34.7195 28.4918 10.2536 4.23022 8.19052 2.27381C7.88733 1.99555 7.65828 1.79341 7.51305 1.67754C6.20739 0.702521 4.95526 0.667307 4.95526 0.667307L0.0527344 0.537354C0.100713 0.554012 3.28332 9.18904 4.68785 13.0053Z" fill="white"/>
</mask>
<g mask="url(#mask16)">
<path d="M15.1025 26.0189L22.4437 24.9027L24.643 31.9102L15.1427 26.0429" fill="#FFFFFE"/>
</g>
<mask id="mask17" mask-type="alpha" maskUnits="userSpaceOnUse" x="0" y="0" width="35" height="29">
<path d="M4.68785 13.0053L10.4451 28.4918H34.7195C34.7195 28.4918 10.2536 4.23022 8.19052 2.27381C7.88733 1.99555 7.65828 1.79341 7.51305 1.67754C6.20739 0.702521 4.95526 0.667307 4.95526 0.667307L0.0527344 0.537354C0.100713 0.554012 3.28332 9.18904 4.68785 13.0053Z" fill="white"/>
</mask>
<g mask="url(#mask17)">
<path d="M32.5109 26.2798C32.3753 26.2798 25.418 30.8847 25.418 30.8847H37.5624L32.5109 26.2798Z" fill="#CDC9B9"/>
</g>
</svg>
