<svg width="21" height="17" viewBox="0 0 21 17" fill="none" xmlns="http://www.w3.org/2000/svg">
<path d="M18.0527 8.5C18.0527 7.4 18.9527 6.5 20.0527 6.5V2.5C20.0527 1.4 19.1527 0.5 18.0527 0.5H2.05273C0.952734 0.5 0.0627344 1.4 0.0627344 2.5V6.5C1.16273 6.5 2.05273 7.4 2.05273 8.5C2.05273 9.6 1.16273 10.5 0.0527344 10.5V14.5C0.0527344 15.6 0.952734 16.5 2.05273 16.5H18.0527C19.1527 16.5 20.0527 15.6 20.0527 14.5V10.5C18.9527 10.5 18.0527 9.6 18.0527 8.5ZM13.6327 13.3L10.0527 11L6.47274 13.3L7.55274 9.18L4.26273 6.49L8.50274 6.24L10.0527 2.3L11.5927 6.25L15.8327 6.5L12.5427 9.19L13.6327 13.3Z" fill="white"/>
</svg>
