<svg width="27" height="28" viewBox="0 0 27 28" fill="none" xmlns="http://www.w3.org/2000/svg">
<path d="M20.0254 0.474976L18.7267 1.74084L23.3193 6.21723H9.92212V8.00762H23.3193L18.7267 12.484L20.0254 13.7499L26.1894 7.74536C26.3617 7.57754 26.4585 7.34985 26.4585 7.11243C26.4585 6.875 26.3617 6.64731 26.1894 6.47949L20.0254 0.474976Z" fill="#001D83"/>
<path d="M8.46444 15.0159L7.16528 13.7501L1.00285 19.7551C0.830487 19.9229 0.733643 20.1506 0.733643 20.388C0.733643 20.6254 0.830487 20.8531 1.00285 21.0209L7.16528 27.025L8.46444 25.7592L3.87033 21.2823H17.2701V19.492H3.87033L8.46444 15.0159Z" fill="#001D83"/>
</svg>
